<?xml version="1.0" encoding="UTF-8" standalone="no"?>
<!-- Created with Inkscape (http://www.inkscape.org/) -->

<svg
   width="400"
   height="400"
   viewBox="0 0 400 400"
   version="1.1"
   id="svg1"
   xml:space="preserve"
   inkscape:version="1.4.2 (f4327f4, 2025-05-13)"
   sodipodi:docname="JSS_logo.svg"
   xmlns:inkscape="http://www.inkscape.org/namespaces/inkscape"
   xmlns:sodipodi="http://sodipodi.sourceforge.net/DTD/sodipodi-0.dtd"
   xmlns="http://www.w3.org/2000/svg"
   xmlns:svg="http://www.w3.org/2000/svg"><sodipodi:namedview
     id="namedview1"
     pagecolor="#ffffff"
     bordercolor="#000000"
     borderopacity="0.25"
     inkscape:showpageshadow="2"
     inkscape:pageopacity="0.0"
     inkscape:pagecheckerboard="0"
     inkscape:deskcolor="#d1d1d1"
     inkscape:document-units="px"
     inkscape:zoom="4.65"
     inkscape:cx="200.21505"
     inkscape:cy="185.37634"
     inkscape:window-width="4096"
     inkscape:window-height="2088"
     inkscape:window-x="-8"
     inkscape:window-y="-8"
     inkscape:window-maximized="1"
     inkscape:current-layer="layer1" /><defs
     id="defs1" /><g
     inkscape:label="Layer 1"
     inkscape:groupmode="layer"
     id="layer1"><g
       id="g5"
       transform="translate(0.43010742,1.0752689)"><path
         style="fill:#1f3f97"
         d="m 194.64267,375.42439 c -1.23147,-3.59355 -3.81424,-10.89565 -5.73947,-16.22689 -1.92524,-5.33124 -4.08016,-11.4 -4.78871,-13.48614 -0.70856,-2.08614 -1.59104,-4.11426 -1.96109,-4.50693 -0.56065,-0.59494 -12.88837,7.35332 -31.15326,20.08596 -6.07076,4.23198 -5.85686,4.24084 -4.66804,-0.1933 1.45564,-5.4294 6.96094,-24.46883 9.32325,-32.2434 l 1.92084,-6.32163 -5.18222,-0.25058 c -2.85022,-0.13781 -12.87148,-0.51711 -22.26947,-0.84288 l -17.08724,-0.59231 7.71737,-5.90019 c 4.24456,-3.2451 8.14543,-6.29653 8.66861,-6.78096 0.52318,-0.48443 4.83433,-3.81714 9.58034,-7.40603 4.74601,-3.58889 8.61433,-6.79587 8.59627,-7.12662 -0.0181,-0.33075 -1.77734,-1.9289 -3.90952,-3.55146 -2.13217,-1.62255 -6.79635,-5.22588 -10.36483,-8.00739 -3.56849,-2.78152 -9.45467,-7.33309 -13.08042,-10.11461 l -6.59227,-5.0573 4.57245,-0.5488 c 2.51484,-0.30185 11.58096,-0.62413 20.14692,-0.71618 8.56597,-0.0921 16.38093,-0.41405 17.36659,-0.71553 l 1.7921,-0.54814 -1.87355,-5.90019 c -2.05891,-6.4839 -7.6255,-25.48184 -9.33469,-31.8579 l -1.08372,-4.04275 2.45611,1.51409 c 3.89694,2.40231 21.69439,14.56909 27.95095,19.10797 3.13714,2.27586 5.89372,3.94789 6.12572,3.71561 0.232,-0.23229 1.21376,-2.65651 2.18169,-5.38717 0.96792,-2.73065 3.45249,-9.70604 5.52127,-15.50087 2.06877,-5.79482 4.52891,-12.73823 5.46696,-15.4298 0.93806,-2.69156 1.81891,-4.7777 1.95744,-4.63586 0.13854,0.14184 1.20444,2.91298 2.36869,6.15808 1.16424,3.2451 3.30459,9.12422 4.75632,13.0647 1.45173,3.94048 3.79305,10.38854 5.20291,14.32902 1.40987,3.94048 2.69266,7.30197 2.85064,7.46998 0.15798,0.16801 4.00147,-2.28919 8.54108,-5.46045 4.53962,-3.17126 11.6634,-8.03679 15.83062,-10.81229 4.16723,-2.7755 7.76619,-5.28721 7.99771,-5.58157 0.23151,-0.29437 1.30916,-1.00384 2.39479,-1.57662 1.76235,-0.92982 1.92428,-0.8756 1.51119,0.50598 -0.25446,0.85106 -2.18363,7.4265 -4.28704,14.61209 -4.17233,14.25333 -7.19378,24.26948 -7.81857,25.91867 -0.31052,0.81966 3.40625,1.07392 16.73866,1.14509 9.4258,0.0503 19.36566,0.33479 22.08858,0.63216 l 4.95076,0.54068 -9.71279,7.58595 c -5.34204,4.17228 -13.14107,10.23531 -17.33118,13.47341 -6.34579,4.90399 -7.37848,6.01835 -6.1822,6.67104 0.7899,0.43097 1.6256,1.00908 1.85712,1.2847 0.54272,0.64612 13.23105,10.52695 23.90562,18.61613 l 8.33114,6.31333 -16.32885,0.52009 c -8.98086,0.28605 -19.04898,0.57052 -22.37359,0.63216 l -6.04475,0.11208 0.85521,2.73937 c 1.09509,3.50773 6.24119,21.1977 9.80796,33.71535 0.89164,3.1292 1.356,5.68946 1.03191,5.68946 -0.32409,0 -2.64096,-1.43594 -5.1486,-3.19098 -17.88632,-12.51819 -31.07806,-21.1012 -31.07806,-20.22048 0,0.91232 -1.66095,5.74329 -5.44101,15.82551 -0.60834,1.62255 -2.12422,5.79482 -3.36864,9.27172 -2.16124,6.03848 -3.60749,9.96814 -5.19654,14.11968 -0.6239,1.63 -1.04244,0.97569 -2.96547,-4.63586 z"
         id="path8" /><path
         style="fill:#8a5000"
         d="m 178.17145,185.90845 c -6.74938,-4.73057 -9.56366,-11.6946 -10.52843,-26.05295 -0.17439,-2.5955 -0.56564,-3.35537 -1.6998,-3.3013 -0.81029,0.0386 -3.75642,0.13346 -6.54695,0.21072 l -5.07369,0.14049 0.23297,12.43253 0.23298,12.43254 3.99885,0.2569 c 3.80731,0.2446 3.99885,0.37581 3.99885,2.73937 v 2.48247 H 152.68387 142.5815 v -2.13366 c 0,-1.26282 0.60131,-2.35579 1.47326,-2.67789 0.8103,-0.29933 1.75159,-0.9512 2.09177,-1.4486 0.34018,-0.4974 0.62431,-6.11971 0.6314,-12.49401 l 0.0129,-11.58965 h -2.52559 c -2.23226,0 -2.52559,-0.28719 -2.52559,-2.47267 0,-2.0664 0.37783,-2.51649 2.29963,-2.73937 2.30922,-0.26782 2.88179,-1.23427 3.97825,-6.71483 0.31101,-1.55456 1.25451,-2.51559 3.10317,-3.16082 1.46096,-0.50991 2.78918,-0.92711 2.9516,-0.92711 0.16242,0 0.2953,2.27579 0.2953,5.05731 v 5.0573 h 13.04889 13.04889 v 2.47003 c 0,1.91978 -0.42197,2.53003 -1.89419,2.73937 -1.82127,0.25897 -1.8942,0.59642 -1.8942,8.76506 0,7.9726 0.15551,8.74652 2.52559,12.56893 1.38908,2.24027 2.88642,4.10666 3.32742,4.14754 0.44101,0.0409 1.95637,-1.56884 3.36746,-3.57716 2.47134,-3.5173 2.56563,-3.98192 2.56563,-12.64326 0,-8.68307 -0.065,-9.00101 -1.8942,-9.26111 -1.47222,-0.20934 -1.89419,-0.81959 -1.89419,-2.73937 v -2.47003 h 8.41864 8.41863 v 2.47003 c 0,1.91978 -0.42196,2.53003 -1.89419,2.73937 -1.7692,0.25157 -1.93651,0.82555 -2.53549,8.69818 -0.75635,9.94094 -3.05842,15.57488 -7.97624,19.52059 -5.89051,4.72611 -6.23065,4.77199 -10.93459,1.47506 z m -63.3769,1.44658 c -6.15277,-2.02101 -10.93878,-6.19198 -10.93878,-9.53306 0,-2.82394 2.34815,-6.29094 5.19606,-7.6719 3.85869,-1.87108 5.14307,-0.65053 4.41695,4.19747 -0.66223,4.42142 0.79481,6.52038 5.5076,7.93408 4.06298,1.21877 8.92447,-0.6941 10.18231,-4.00648 1.2554,-3.30595 -0.79939,-5.66712 -8.47082,-9.73388 -11.34697,-6.01524 -14.30651,-9.26196 -14.30651,-15.69475 0,-6.55185 6.32059,-11.126 15.33047,-11.0945 11.71168,0.0409 17.75074,6.60541 11.67393,12.68958 -2.72352,2.72681 -3.95264,2.97368 -6.22361,1.24997 -1.27449,-0.96736 -1.35736,-1.43477 -0.49854,-2.81164 2.94302,-4.71822 -5.54656,-8.23326 -10.48729,-4.34218 -4.71771,3.71546 -2.05245,7.53722 9.34852,13.40503 9.28546,4.77901 12.00548,7.91325 12.00548,13.83377 0,5.02573 -1.72129,7.61257 -6.823,10.25396 -3.1443,1.62795 -12.59434,2.41454 -15.91277,1.32453 z m 99.71267,-0.45353 c -3.91472,-1.70694 -8.5036,-7.60365 -9.65418,-12.40564 -1.40675,-5.8711 -0.42031,-12.41287 2.54733,-16.89304 3.13001,-4.7253 6.53594,-6.66254 12.69707,-7.22189 2.74269,-0.249 4.98671,-0.83808 4.98671,-1.30905 0,-1.99668 -6.91711,-7.30974 -11.32965,-8.70236 -4.08975,-1.29074 -4.56957,-1.67635 -4.15312,-3.33765 0.31001,-1.23666 -0.003,-2.14373 -0.91577,-2.65525 -1.01105,-0.5665 -1.23243,-1.39209 -0.81732,-3.04802 0.54126,-2.15917 0.76169,-2.24603 4.4728,-1.76271 6.76951,0.88164 10.57032,-1.86278 11.62943,-8.39718 l 0.49314,-3.04254 -3.2239,1.34866 c -6.61869,2.76882 -14.68068,-0.70746 -18.1154,-7.81124 -3.99635,-8.26535 -1.80784,-20.256267 4.5773,-25.07912 4.20298,-3.174622 8.30274,-3.874192 19.25038,-3.284829 l 9.9182,0.533943 v 2.39912 c 0,1.973554 -0.36006,2.399119 -2.02983,2.399119 h -2.02983 l -0.28529,17.068397 -0.2853,17.06839 -2.62261,4.63586 c -2.02848,3.58565 -3.57562,5.13584 -6.82936,6.84283 l -4.20675,2.20697 3.36044,1.48442 c 12.07888,5.33564 18.5667,23.23679 13.90011,38.35304 -2.80571,9.08836 -13.09202,14.20378 -21.3346,10.60977 z m 12.02271,-7.99505 c 1.62153,-2.41669 1.92168,-3.97011 1.92168,-9.94574 0,-10.17637 -1.6747,-12.89819 -7.93609,-12.89819 -4.80666,0 -7.47926,4.63773 -7.52376,13.05586 -0.0472,8.93687 2.74333,13.31038 8.23296,12.90311 2.77356,-0.20576 3.72997,-0.76734 5.30521,-3.11504 z m -4.35404,-66.21413 c 1.96136,-1.96373 2.0664,-2.57642 2.0664,-12.05323 0,-6.641758 -0.33821,-10.322965 -1.01024,-10.995806 -0.55563,-0.556303 -2.63924,-1.011461 -4.63025,-1.011461 -6.20223,0 -8.6712,3.867474 -8.6712,13.582867 0,5.71748 1.46045,10.42102 3.69539,11.90146 2.06949,1.37084 6.49466,0.63391 8.5499,-1.42383 z m 49.6317,73.84898 c -1.8521,-0.88449 -4.37213,-2.69906 -5.60006,-4.03238 -2.57314,-2.79396 -4.92324,-9.18171 -4.92324,-13.3817 0,-7.09769 4.36701,-14.60626 9.86486,-16.96149 3.54382,-1.51813 11.48087,-1.4848 14.46603,0.0608 11.57619,5.99353 12.57501,25.41641 1.69523,32.96524 -4.43889,3.07988 -10.73237,3.62775 -15.50282,1.34957 z m 11.17489,-6.03858 c 2.45727,-2.29207 3.8335,-7.88148 3.31974,-13.48271 -0.53275,-5.80822 -1.89307,-8.82115 -4.52471,-10.02166 -7.02284,-3.20369 -11.23272,1.51062 -11.23272,12.57865 0,5.9064 0.67139,8.25451 3.18518,11.13987 1.7886,2.05297 6.95007,1.9335 9.25251,-0.21415 z m -41.74837,4.4619 c 0.19051,-1.6339 0.86583,-2.42495 2.37104,-2.77737 l 2.10466,-0.49278 v -12.60525 -12.60526 l -2.31512,-0.2667 c -1.93894,-0.22337 -2.31513,-0.6685 -2.31513,-2.73938 v -2.47266 h 8.83957 8.83957 v 2.52865 c 0,2.10516 -0.3374,2.52865 -2.01459,2.52865 -1.10802,0 -2.24454,0.59997 -2.52559,1.33326 -0.72663,1.89588 -0.61052,22.49524 0.13329,23.64503 0.34018,0.52585 1.37618,1.09804 2.30223,1.27153 1.10834,0.20764 1.77476,1.10509 1.95011,2.62616 l 0.26639,2.31072 h -8.95141 -8.95141 z m 5.10127,-40.3094 c -1.50162,-1.63815 -2.73023,-3.27059 -2.73023,-3.62763 0,-0.35704 1.32726,-1.93715 2.94946,-3.51136 l 2.94946,-2.86219 3.36658,3.29136 3.36657,3.29136 -3.11943,3.19846 c -1.71569,1.75916 -3.3293,3.19846 -3.58581,3.19846 -0.2565,0 -1.69497,-1.3403 -3.1966,-2.97846 z M 137.29249,119.78703 c -9.7214,-2.43141 -14.1958,-9.01455 -9.8696,-14.52108 0.92326,-1.17516 2.79416,-2.52599 4.15755,-3.00185 3.37981,-1.17963 4.41459,0.22002 3.75027,5.07263 -0.46811,3.41938 -0.2968,3.95358 1.79648,5.60215 3.13009,2.46512 9.78897,2.53973 12.18922,0.13657 2.2578,-2.26053 2.1601,-6.02937 -0.21047,-8.11866 -1.0418,-0.9182 -4.35664,-2.9189 -7.3663,-4.44602 -10.1583,-5.154348 -13.46982,-8.77999 -13.46982,-14.747522 0,-7.18594 4.68876,-10.89392 14.33074,-11.333081 5.32036,-0.242325 7.07787,0.02329 9.98733,1.509376 6.22626,3.18025 6.7421,8.819553 1.10809,12.113976 -2.66311,1.557227 -2.82964,1.56123 -4.43504,0.106598 -1.1377,-1.030847 -1.39405,-1.785704 -0.80629,-2.374182 0.47397,-0.47454 0.86176,-1.524028 0.86176,-2.332196 0,-3.837042 -8.60317,-5.594648 -11.78609,-2.407869 -3.83864,3.84329 -1.27841,7.461064 9.23666,13.05202 9.67859,5.146193 12.6518,8.3443 12.6518,13.60882 0,4.96175 -2.05619,8.36312 -6.29559,10.41421 -4.08661,1.97718 -11.47709,2.75499 -15.8307,1.66611 z m 35.263,0.0534 c -1.34077,-0.43158 -3.51909,-1.82192 -4.84072,-3.08965 -2.01127,-1.92925 -2.40295,-2.98748 -2.40295,-6.49219 0,-3.78899 0.32044,-4.49243 3.36915,-7.39611 3.52782,-3.360004 9.79196,-5.801829 14.88372,-5.801829 2.60693,0 2.79373,-0.188516 2.79373,-2.819457 0,-3.957887 -2.26782,-5.783005 -6.7736,-5.451333 -4.17215,0.307114 -6.01024,2.263233 -4.46081,4.747269 0.77904,1.248956 0.66084,1.726871 -0.62611,2.531564 -2.24929,1.406402 -3.59165,1.240966 -6.12602,-0.754987 -3.88647,-3.060798 -2.45376,-7.775441 3.25392,-10.707793 5.9409,-3.052169 16.65235,-1.733029 20.19949,2.487614 2.02123,2.405004 2.1099,2.983105 2.1099,13.755832 0,6.18493 0.22995,11.84529 0.511,12.57859 0.28105,0.73329 1.41757,1.33326 2.52559,1.33326 1.67719,0 2.01459,0.42349 2.01459,2.52865 v 2.52865 h -5.76602 c -3.17132,0 -8.56977,0.18149 -11.99656,0.4033 -3.4268,0.22182 -7.32753,0.0502 -8.6683,-0.38138 z m 12.47128,-5.59084 c 1.03607,-0.39806 1.33165,-1.80122 1.33165,-6.32163 0,-5.65507 -0.0568,-5.81001 -2.1317,-5.81001 -2.68572,0 -7.17426,1.85169 -9.05639,3.7361 -1.80246,1.80465 -1.86459,5.83287 -0.11694,7.58263 1.33159,1.3332 7.34368,1.82324 9.97338,0.81291 z m 64.39867,5.66055 c -7.88317,-2.58851 -10.76819,-9.7233 -6.15249,-15.2154 3.41806,-4.06705 8.66736,-6.720218 14.50456,-7.331065 5.02192,-0.52553 5.19051,-0.621405 5.19051,-2.95175 0,-3.448684 -2.67497,-5.780112 -6.63183,-5.780112 -3.86603,0 -5.56115,1.633672 -4.80888,4.634565 0.42741,1.705024 0.13271,2.310594 -1.48323,3.047756 -2.42587,1.106639 -4.93444,0.01395 -6.91465,-3.01189 -1.17666,-1.797987 -1.18287,-2.274162 -0.058,-4.451993 3.70942,-7.181921 22.01848,-7.775332 25.97518,-0.841876 0.67352,1.180243 1.23504,6.468415 1.49821,14.109575 l 0.42094,12.22182 2.31512,0.2667 c 1.93893,0.22337 2.31513,0.6685 2.31513,2.73938 v 2.47266 h -5.76603 c -3.17132,0 -8.56977,0.18149 -11.99656,0.4033 -3.42679,0.22182 -7.21037,0.0816 -8.40795,-0.31167 z m 12.53234,-6.16039 c 0.57194,-0.57263 1.01024,-3.31534 1.01024,-6.32163 0,-5.23547 -0.0326,-5.30991 -2.31513,-5.29166 -2.60271,0.0208 -8.95559,2.6791 -9.84466,4.11939 -1.2087,1.95809 -0.73115,6.22823 0.82385,7.36666 1.92705,1.41079 8.95718,1.49742 10.3257,0.12724 z M 95.150738,66.653379 c -1.185281,-1.694276 -1.030769,-2.096706 2.445816,-6.370186 2.041064,-2.508911 4.000236,-5.596216 4.353726,-6.860676 0.35348,-1.264461 0.64269,-11.022866 0.64269,-21.685345 V 12.350846 l -2.31512,-0.266707 C 98.338913,11.86077 97.962721,11.415641 97.962721,9.3447669 V 6.8721021 h 9.260499 9.2605 v 2.5286511 c 0,2.2224488 -0.29268,2.5286508 -2.41702,2.5286508 h -2.41702 l -0.46741,18.754163 c -0.25707,10.31479 -0.84935,20.2434 -1.31618,22.063578 -1.1675,4.552146 -4.83819,9.521706 -9.51977,12.888337 l -3.930373,2.826425 z M 126.01037,50.749714 c -2.21618,-1.007397 -4.40134,-2.931114 -5.89304,-5.187957 -2.13689,-3.232958 -2.37081,-4.299858 -2.37081,-10.812937 0,-6.10639 0.31652,-7.779341 2.04271,-10.796738 3.75628,-6.566 10.9035,-9.62965 18.48585,-7.923945 5.40464,1.215813 7.67388,3.752343 7.67388,8.57778 0,6.859628 -5.76855,11.53352 -15.30307,12.399128 -3.764,0.341721 -4.90093,0.760188 -4.89852,1.802985 0.006,2.431136 3.25897,6.778135 5.49296,7.33951 3.2934,0.827593 9.526,-0.122414 11.29018,-1.720912 1.47477,-1.336265 1.64028,-1.309045 2.88839,0.475038 1.60831,2.298966 0.83242,3.49591 -3.79987,5.861994 -4.11515,2.101937 -10.96738,2.095815 -15.60866,-0.01395 z m 9.16167,-21.239032 c 2.03712,-1.452316 2.40616,-2.247481 2.19328,-4.725867 -0.63125,-7.349416 -9.69643,-3.535526 -11.32138,4.763118 l -0.56159,2.868063 3.62023,-0.579601 c 1.99113,-0.31878 4.72239,-1.365351 6.06946,-2.325713 z m 16.82451,20.592544 c 0.19055,-1.634228 0.86553,-2.424614 2.37104,-2.776443 l 2.10466,-0.491845 0.23181,-12.707273 0.2318,-12.707273 -2.54693,-0.510003 C 152.34019,20.500145 151.842,19.972949 151.842,18.215173 V 16.02996 l 7.84831,0.209492 c 6.23336,0.166385 8.26407,-0.08206 9.86876,-1.207394 2.778,-1.948142 3.77879,-1.803916 7.86379,1.133258 5.95795,4.283865 8.89623,11.481871 8.93706,21.893484 0.0296,7.543781 0.59674,9.271721 3.04321,9.271721 1.66817,0 2.00647,0.426343 2.00647,2.528651 v 2.528651 h -8.83957 -8.83957 v -2.528651 c 0,-2.105158 0.3374,-2.528651 2.01459,-2.528651 2.49234,0 3.03659,-1.34425 3.03659,-7.500087 0,-9.793681 -3.13872,-19.472192 -6.31479,-19.472192 -1.1407,0 -4.89698,3.917551 -6.2103,6.476936 -0.5307,1.034214 -0.94473,5.928746 -0.94473,11.16821 v 9.327133 h 2.10466 c 1.77727,0 2.10466,0.393346 2.10466,2.528651 v 2.528651 h -8.89549 -8.89548 z m 48.96664,0.551012 c -6.12515,-3.035608 -6.83225,-8.790107 -1.5092,-12.282131 3.13205,-2.054684 5.09492,-0.693724 4.73811,3.285175 -0.20812,2.320859 0.15507,3.266124 1.66058,4.321903 2.67801,1.878022 7.08041,1.716747 9.1291,-0.334432 3.28087,-3.284841 1.96582,-4.99552 -7.01972,-9.13156 -7.32787,-3.373015 -10.65941,-6.81077 -10.65941,-10.999241 0,-5.315764 3.52572,-8.567438 10.55655,-9.736013 4.32078,-0.718146 10.25396,0.597789 12.40488,2.751308 2.06749,2.07 2.14174,5.569717 0.16457,7.75711 -2.79661,3.093966 -7.98909,1.467302 -6.17134,-1.933314 1.19675,-2.23884 -0.0556,-3.320494 -3.84436,-3.320494 -3.6574,0 -5.70654,1.485288 -5.36369,3.887796 0.18022,1.262884 2.38148,2.865751 7.79873,5.678725 4.1512,2.15556 8.41314,4.926619 9.47097,6.157909 2.28257,2.656865 2.56952,7.588995 0.6049,10.39728 -3.60925,5.159172 -14.96197,6.96851 -21.96067,3.499979 z m 35.44438,0.547988 c -6.15694,-2.685048 -9.21003,-9.324229 -8.60787,-18.718522 0.32071,-5.003311 0.84615,-6.836736 2.74595,-9.581473 3.99378,-5.770017 10.0048,-8.245054 17.21923,-7.090023 11.35785,1.818393 11.37025,14.86432 0.0185,19.481325 -2.52955,1.028826 -6.20925,1.882246 -8.17711,1.896488 -3.277,0.02372 -3.57792,0.208577 -3.57792,2.197942 0,1.276838 1.01423,3.187507 2.46083,4.63586 2.01068,2.013117 3.17332,2.463814 6.35579,2.463814 2.14222,0 5.0471,-0.596521 6.45528,-1.325603 2.35781,-1.220748 2.68723,-1.210627 4.16454,0.127943 1.31025,1.187197 1.41192,1.686254 0.55485,2.723507 -3.17882,3.8471 -14.04954,5.614576 -19.6121,3.188742 z M 245.41072,29.5431 c 3.14124,-2.239473 3.45956,-7.162373 0.5332,-8.246215 -4.3893,-1.625675 -8.67734,1.863114 -9.6476,7.849382 l -0.52996,3.269752 3.6203,-0.579612 c 1.99117,-0.318787 4.702,-1.350775 6.02406,-2.293307 z m 16.71544,20.372058 c 0,-2.070873 0.37619,-2.516003 2.31512,-2.739372 l 2.31513,-0.266707 0.2318,-12.744344 0.2318,-12.744343 -2.54693,-0.510003 c -2.02771,-0.406035 -2.54692,-0.943872 -2.54692,-2.638285 0,-2.086605 0.12364,-2.128281 6.31397,-2.128281 3.56301,0 6.31398,0.359966 6.31398,0.826186 0,0.454403 1.73952,-0.146152 3.8656,-1.334566 4.53013,-2.532214 6.79131,-2.032371 11.1343,2.461291 4.37575,4.527557 6.24108,9.995648 6.80644,19.952676 l 0.50305,8.859669 2.31513,0.266707 c 1.93893,0.223369 2.31512,0.668499 2.31512,2.739372 v 2.472665 h -8.83957 -8.83957 v -2.528651 c 0,-2.156608 0.31977,-2.528651 2.17332,-2.528651 h 2.17332 l -0.27912,-10.390969 c -0.25384,-9.449722 -0.46978,-10.670818 -2.38379,-13.48038 -1.15756,-1.699176 -2.50389,-3.092003 -2.99184,-3.095171 -0.48795,-0.0032 -2.07683,1.226958 -3.53085,2.733613 -3.02072,3.130084 -4.37598,7.879514 -4.38946,15.382628 -0.0127,7.083687 0.58862,8.850279 3.01263,8.850279 1.66817,0 2.00648,0.426343 2.00648,2.528651 v 2.528651 h -8.83957 -8.83957 z"
         id="path7" /><path
         style="fill:#002c2c"
         d="m 141.73964,333.12629 c -3.00967,-1.2467 -6.60863,-2.89251 -7.99771,-3.65736 -2.47732,-1.36406 -2.35264,-1.39128 6.52445,-1.42438 9.92198,-0.037 10.23387,0.16411 7.95973,5.13241 l -1.01436,2.21606 z m 103.64712,-0.90636 c -0.51686,-1.72721 -0.93974,-3.38085 -0.93974,-3.67476 0,-0.2939 4.26193,-0.53066 9.47096,-0.52613 l 9.47097,0.008 -4.63025,2.17052 c -2.54664,1.19379 -6.38569,2.84372 -8.53122,3.66653 l -3.90097,1.496 z m -142.0701,-21.43238 c -3.639203,-2.89924 -10.056113,-8.84973 -14.259797,-13.22332 -25.40435,-26.43117 -39.407047,-58.85147 -42.003516,-97.25031 -1.038345,-15.35595 2.12972,-37.068 7.953222,-54.50669 10.675767,-31.96899 32.318842,-59.759296 61.056221,-78.397891 10.04438,-6.514616 14.16029,-8.278446 19.31785,-8.278446 2.55266,0 6.14636,-0.602977 7.98601,-1.339949 3.05706,-1.224675 3.50918,-1.224675 5.25553,0 2.78114,1.950344 42.44444,1.996688 46.19668,0.05398 2.24096,-1.160249 2.74091,-1.152847 5.11381,0.07572 2.03286,1.052505 4.50286,1.29665 10.87823,1.07525 7.71124,-0.267792 8.49826,-0.463035 12.08945,-2.999171 l 3.84126,-2.712732 4.35639,2.712732 c 3.89294,2.424133 5.14906,2.744104 11.80715,3.007614 6.12659,0.242476 8.04781,-8.78e-4 10.81029,-1.369298 1.84774,-0.915299 3.35953,-1.378486 3.35953,-1.029304 0,0.349182 1.23123,1.088268 2.73606,1.642413 21.82708,8.037684 47.48685,30.16214 63.18811,54.482262 20.65074,31.98653 28.4789,73.47824 20.73837,109.91993 -2.23236,10.50972 -2.07389,9.87279 -4.05143,16.28308 -6.64107,21.52733 -18.63629,41.63169 -34.97952,58.6267 -8.56342,8.90495 -19.49689,18.02074 -21.15486,17.63789 -0.60002,-0.13855 -4.00196,-2.52769 -7.55986,-5.30921 -17.37618,-13.58444 -19.81922,-15.56255 -19.87427,-16.09201 -0.0326,-0.31359 2.53188,-2.57997 5.69885,-5.03641 l 5.75813,-4.46625 1.92753,7.26985 c 1.06014,3.99843 2.04845,7.39092 2.19624,7.53889 0.8522,0.85323 18.01418,-14.97284 23.95985,-22.09478 l 7.02981,-8.42056 -4.07503,-1.1582 c -2.24127,-0.637 -4.6433,-1.32999 -5.33783,-1.53997 -0.95409,-0.28845 -0.67452,-0.8551 1.14358,-2.31787 1.3235,-1.06485 2.08118,-2.1308 1.68372,-2.36878 -0.39745,-0.23798 -12.2179,-0.71106 -26.26766,-1.05128 -25.48316,-0.61708 -25.544,-0.62292 -25.13047,-2.41288 0.39944,-1.72891 4.86365,-17.00039 8.28595,-28.34514 0.90901,-3.01331 2.28347,-7.75453 3.05436,-10.53605 l 1.40161,-5.0573 1.08184,11.75351 c 0.68033,7.39134 1.47067,12.00073 2.12951,12.41963 0.57621,0.36636 2.07623,0.67192 3.33337,0.67902 5.47622,0.0309 36.83127,7.59733 44.12183,10.64721 1.53308,0.64134 3.31532,1.16607 3.96053,1.16607 2.28209,0 9.29265,-19.31464 12.08455,-33.29391 2.31907,-11.61172 2.09791,-37.50748 -0.41751,-48.88725 -6.49331,-29.37583 -20.67939,-53.82251 -41.82432,-72.07527 -3.11491,-2.688855 -4.43605,-4.546252 -5.10228,-7.1733 -2.04615,-8.068345 -7.9679,-11.908386 -20.04704,-12.999795 -4.22918,-0.382127 -9.20478,-1.357518 -11.05688,-2.167536 -5.53298,-2.419855 -18.01331,-6.104483 -26.09777,-7.70497 -10.52053,-2.082757 -34.86334,-2.09147 -45.46065,-0.01627 -4.16722,0.81604 -9.4361,2.087024 -11.7086,2.82441 -3.82809,1.242144 -4.47421,1.232643 -8.78938,-0.12924 -2.62126,-0.82728 -7.29444,-1.46994 -10.68884,-1.46994 -12.41966,0 -21.42413,7.235453 -21.43281,17.222124 -0.003,3.415471 -0.29222,3.849367 -5.22002,7.830253 C 70.906149,129.10535 55.323,190.37602 77.778175,243.93316 c 1.555824,3.71075 3.245569,6.53235 3.911964,6.53235 0.645212,0 2.467517,-0.54149 4.049566,-1.20332 7.00387,-2.92995 27.734345,-7.89399 46.492085,-11.13283 2.2273,-0.38458 2.56818,-1.92067 3.42443,-15.43169 l 0.6113,-9.64583 3.30548,11.3316 c 1.81801,6.23238 4.74498,16.26247 6.50436,22.28909 1.75939,6.02662 3.20792,11.3865 3.21897,11.91085 0.0142,0.67537 -7.40565,1.13316 -25.4463,1.57 -14.00651,0.33915 -25.747674,0.78419 -26.091481,0.98898 -0.343807,0.20479 0.41387,1.27214 1.683727,2.37191 1.772634,1.53519 2.015564,2.08751 1.046034,2.37823 -0.694535,0.20826 -3.09656,0.89984 -5.33783,1.53684 l -4.075036,1.1582 7.029811,8.42056 c 5.945675,7.12194 23.107655,22.94801 23.959855,22.09478 0.14779,-0.14797 1.13683,-3.54323 2.19787,-7.54503 l 1.92916,-7.276 6.20836,4.70309 c 6.06086,4.59135 6.16722,4.73533 4.47688,6.06041 -0.95231,0.74653 -7.40429,5.77997 -14.33773,11.18543 l -12.60625,9.82811 z m 72.72214,-74.50936 c -2.76858,-1.82783 -2.22891,-2.67037 1.71043,-2.67037 2.29516,0 2.79022,0.27672 2.38528,1.33327 -0.28105,0.73329 -0.511,1.68154 -0.511,2.10721 0,1.15234 -0.99737,0.93807 -3.58471,-0.77011 z m 38.13074,-0.0863 c -1.28151,-2.39743 -1.14178,-2.58407 1.93473,-2.58407 3.75128,0 4.27987,0.74514 1.87317,2.64055 -2.488,1.95944 -2.73225,1.95581 -3.8079,-0.0565 z m -67.97483,-20.16954 -9.43569,-6.43671 -0.0353,-9.1088 -0.0353,-9.10879 1.87105,1.31212 c 1.38373,0.97038 4.01491,1.31212 10.10237,1.31212 h 8.23131 l -0.0592,12.85398 c -0.0325,7.06968 -0.31667,13.47471 -0.63139,14.23338 -0.473,1.14021 -2.20846,0.26322 -10.00791,-5.0573 z m 91.19729,4.69758 c -0.27432,-1.02442 -0.50394,-7.68744 -0.51026,-14.80673 -0.0102,-11.45995 0.14119,-12.88549 1.32015,-12.43253 0.73241,0.28139 5.25159,0.51162 10.04262,0.51162 h 8.71097 l 0.27021,7.67008 0.27022,7.67007 -9.80258,6.62503 c -9.22338,6.23358 -9.83204,6.51497 -10.30133,4.76246 z m -99.08354,-80.34019 c -1.12251,-1.20815 -2.84627,-2.50839 -3.83056,-2.88942 -1.4193,-0.54943 -1.91431,-1.69196 -2.39219,-5.52146 -0.33142,-2.65576 -0.77867,-5.28813 -0.99391,-5.84971 -0.2935,-0.76577 0.72554,-0.72227 4.07592,0.17398 2.56236,0.68546 7.15642,1.08733 10.77373,0.94247 l 6.30646,-0.25257 0.48504,3.58226 c 0.30845,2.278 0.15792,3.58525 -0.41342,3.59049 -0.49415,0.005 -2.87425,0.92924 -5.2891,2.05491 -3.16322,1.47453 -4.54196,2.65037 -4.93198,4.20618 -0.67923,2.70955 -1.24313,2.70402 -3.78999,-0.0371 z m 120.00115,-7.15596 c -1.37359,-1.46376 -3.63395,-3.37049 -5.02302,-4.23719 l -2.52559,-1.57581 4.20931,-0.0147 c 2.31513,-0.008 5.04432,-0.23882 6.06488,-0.51279 1.73479,-0.4657 1.8225,-0.28665 1.34761,2.75088 -0.98581,6.30563 -1.28063,6.56544 -4.07319,3.58957 z m -17.20344,-1.71025 c -0.0146,-1.21691 0.208,-3.38701 0.49473,-4.82243 0.4662,-2.33379 0.70589,-2.51098 2.26596,-1.67504 0.95954,0.51415 2.71384,1.21411 3.89845,1.55546 l 2.15382,0.62063 -2.3485,0.94089 c -1.29167,0.51749 -3.2686,1.98762 -4.39318,3.26697 l -2.04468,2.32609 z"
         id="path6" /><path
         style="fill:#000000"
         d="m 193.7917,390.97262 c -1.6704,-4.7277 -5.00587,-14.09563 -7.41216,-20.81763 -2.4063,-6.722 -4.85586,-13.73901 -5.44348,-15.59335 -1.44173,-4.54966 -3.22964,-4.61442 -9.32726,-0.33786 -2.76277,1.93768 -10.20644,7.05085 -16.5415,11.36261 -6.33506,4.31176 -13.44076,9.19247 -15.79043,10.84602 -2.34968,1.65355 -4.27214,2.87132 -4.27214,2.70616 0,-0.49142 6.60588,-23.26603 8.54822,-29.47109 1.03194,-3.29665 1.47586,-6.01944 1.04359,-6.40093 -0.41373,-0.36513 -3.02528,-1.54549 -5.80343,-2.62302 -5.94018,-2.30395 -18.78487,-8.60869 -23.11756,-11.34711 -2.30843,-1.45901 -4.9125,-2.0693 -10.8307,-2.53828 l -7.791552,-0.61742 3.028522,-2.64722 3.02853,-2.64721 -4.468008,-3.46918 C 63.210854,289.86633 40.726223,245.21672 39.244332,199.42551 37.79378,154.6027 53.758209,113.82486 85.101688,82.292356 l 7.55821,-7.603792 -2.820703,-3.678788 c -4.042656,-5.272471 -3.840472,-8.204604 0.918498,-13.320317 4.882627,-5.248638 5.5213,-8.108462 5.5213,-24.723034 V 19.348821 l -2.525591,-2.362114 c -2.276194,-2.12886 -2.525591,-2.873519 -2.525591,-7.540998 0,-4.3747231 0.320863,-5.5001356 2.066393,-7.2477803 1.998418,-2.00083956 2.456617,-2.06889645 13.929016,-2.06889645 11.4724,0 11.9306,0.0680569 13.92902,2.06889645 1.50252,1.5043358 2.06639,2.985415 2.06639,5.4275828 v 3.3586865 l 3.87419,-1.3216681 c 4.58659,-1.5647021 12.99935,-1.1580393 16.80502,0.8123351 2.16181,1.119268 2.72373,1.13439 4.12172,0.110918 1.11526,-0.8164876 4.12135,-1.1943186 9.66593,-1.2148977 5.38415,-0.019984 8.74377,-0.4285082 10.15192,-1.2344577 3.32098,-1.9007404 7.77215,-1.5399487 11.45815,0.9287451 4.77087,3.1952823 7.85793,6.2740933 9.52422,9.4987783 l 1.46833,2.841571 2.18145,-3.726873 c 1.51042,-2.580475 3.56037,-4.491645 6.66425,-6.213105 3.98412,-2.2096467 5.27888,-2.4851075 11.63866,-2.4761193 7.81166,0.01104 13.31085,2.0213503 15.2007,5.5568473 l 0.94531,1.768478 2.23983,-2.096448 c 5.74695,-5.3790819 15.63958,-7.1535595 23.3701,-4.19198 3.6596,1.402005 4.52176,1.477184 5.84348,0.509546 1.03567,-0.7582184 4.22245,-1.1450319 9.59775,-1.1649827 5.38415,-0.019984 8.74377,-0.4285082 10.15193,-1.2344577 3.82836,-2.1911384 7.71855,-1.5697396 12.74829,2.0363454 2.53207,1.815369 5.65456,4.818811 6.93887,6.674317 3.15782,4.562257 5.56875,12.700903 5.56875,18.798585 0,4.433971 0.27134,5.256313 2.31513,7.016435 2.05173,1.766966 2.31512,2.574807 2.31512,7.100669 0,4.187086 -0.34478,5.452656 -1.91429,7.02677 -1.76554,1.770722 -2.84488,1.952649 -13.89075,2.341344 l -11.97646,0.421442 3.36745,2.047242 c 11.05602,6.721496 28.04129,22.430368 37.92237,35.072603 22.74519,29.10107 34.22945,64.85673 33.00305,102.75333 -1.48073,45.7552 -23.81733,90.13957 -59.3567,117.9459 l -4.42669,3.46348 3.14154,2.64068 3.14155,2.64069 -7.94589,0.62965 c -6.06069,0.48027 -8.66504,1.08419 -10.97702,2.54544 -4.21022,2.66102 -15.24454,8.08365 -22.28371,10.95096 -3.24118,1.32025 -6.20769,2.66628 -6.59226,2.99118 -0.38456,0.3249 0.81539,5.47209 2.66656,11.43819 4.36886,14.08034 6.9109,23.3115 6.52563,23.69723 -0.28459,0.28494 -7.16623,-4.28204 -27.43491,-18.20712 -4.39874,-3.02205 -9.2818,-6.37179 -10.85125,-7.44388 -4.76392,-3.25423 -5.48176,-2.78795 -8.35328,5.42598 -1.41807,4.05638 -4.14783,11.73716 -6.06612,17.0684 -1.9183,5.33124 -4.58989,12.88153 -5.93687,16.77843 -1.34697,3.8969 -2.55971,7.19607 -2.69497,7.33149 -0.13526,0.13543 -1.61262,-3.62189 -3.28301,-8.34959 z m 5.64664,-15.76033 c 0.60707,-1.62255 2.12192,-5.79483 3.36634,-9.27172 1.24442,-3.4769 2.7603,-7.64917 3.36864,-9.27172 3.78006,-10.08222 5.44101,-14.91319 5.44101,-15.82551 0,-0.88072 13.19174,7.70229 31.07806,20.22048 2.50764,1.75504 4.82451,3.19098 5.1486,3.19098 0.32409,0 -0.14027,-2.56026 -1.03191,-5.68946 -3.56677,-12.51765 -8.71287,-30.20762 -9.80796,-33.71535 l -0.85521,-2.73937 6.04475,-0.11208 c 3.32461,-0.0616 13.39273,-0.34611 22.37359,-0.63216 l 16.32885,-0.52009 -8.33114,-6.31333 c -10.67457,-8.08918 -23.3629,-17.97001 -23.90562,-18.61613 -0.23152,-0.27562 -1.06722,-0.85373 -1.85712,-1.2847 -1.19628,-0.65269 -0.16359,-1.76705 6.1822,-6.67104 4.19011,-3.2381 11.98914,-9.30113 17.33118,-13.47341 l 9.71279,-7.58595 -4.95076,-0.54068 c -2.72292,-0.29737 -12.66278,-0.58185 -22.08858,-0.63216 -13.33241,-0.0712 -17.04918,-0.32543 -16.73866,-1.14509 0.62479,-1.64919 3.64624,-11.66534 7.81857,-25.91867 2.10341,-7.18559 4.03258,-13.76103 4.28704,-14.61209 0.41309,-1.38158 0.25116,-1.4358 -1.51119,-0.50598 -1.08563,0.57278 -2.16328,1.28225 -2.39479,1.57662 -0.23152,0.29436 -3.83048,2.80607 -7.99771,5.58157 -4.16722,2.7755 -11.291,7.64103 -15.83062,10.81229 -4.53961,3.17126 -8.3831,5.62846 -8.54108,5.46045 -0.15798,-0.16801 -1.44077,-3.5295 -2.85064,-7.46998 -1.40986,-3.94048 -3.75118,-10.38854 -5.20291,-14.32902 -1.45173,-3.94048 -3.59208,-9.8196 -4.75632,-13.0647 -1.16425,-3.2451 -2.23015,-6.01624 -2.36869,-6.15808 -0.13853,-0.14184 -1.01938,1.9443 -1.95744,4.63586 -0.93805,2.69157 -3.39819,9.63498 -5.46696,15.4298 -2.06878,5.79483 -4.55335,12.77022 -5.52127,15.50087 -0.96793,2.73066 -1.94969,5.15488 -2.18169,5.38717 -0.232,0.23228 -2.98858,-1.43975 -6.12572,-3.71561 -6.25656,-4.53888 -24.05401,-16.70566 -27.95095,-19.10797 l -2.45611,-1.51409 1.08372,4.04275 c 1.70919,6.37606 7.27578,25.374 9.33469,31.8579 l 1.87355,5.90019 -1.7921,0.54814 c -0.98566,0.30148 -8.80062,0.62347 -17.36659,0.71553 -8.56596,0.092 -17.63208,0.41433 -20.14692,0.71618 l -4.57245,0.5488 6.59227,5.0573 c 3.62575,2.78152 9.51193,7.33309 13.08042,10.11461 3.56848,2.78151 8.23266,6.38484 10.36483,8.00739 2.13218,1.62256 3.89146,3.22071 3.90952,3.55146 0.0181,0.33075 -3.85026,3.53773 -8.59627,7.12662 -4.74601,3.58889 -9.05716,6.9216 -9.58034,7.40603 -0.52318,0.48443 -4.42405,3.53586 -8.66861,6.78096 l -7.71737,5.90019 17.08724,0.59231 c 9.39799,0.32577 19.41925,0.70507 22.26947,0.84288 l 5.18222,0.25058 -1.92084,6.32163 c -2.36231,7.77457 -7.86761,26.814 -9.32325,32.2434 -1.18882,4.43414 -1.40272,4.42528 4.66804,0.1933 18.26489,-12.73264 30.59261,-20.6809 31.15326,-20.08596 0.37005,0.39267 1.25253,2.42079 1.96109,4.50693 0.70855,2.08614 2.86347,8.1549 4.78871,13.48614 1.92523,5.33124 4.508,12.63334 5.73947,16.22689 2.41798,7.05587 2.07064,7.07123 4.79567,-0.2121 z m -50.1599,-45.72644 c 0.0339,-1.31772 -0.9273,-1.47145 -9.01206,-1.4413 -8.87709,0.0331 -9.00177,0.0603 -6.52445,1.42438 1.38908,0.76485 4.98804,2.41066 7.99771,3.65736 l 5.47211,2.26673 1.01436,-2.21606 c 0.5579,-1.21884 1.03145,-2.87984 1.05233,-3.69111 z m 109.48026,0.71194 4.63025,-2.17052 -9.47097,-0.008 c -5.20903,-0.005 -9.47096,0.23223 -9.47096,0.52613 0,0.29391 0.42288,1.94755 0.93974,3.67476 l 0.93975,3.14039 3.90097,-1.496 c 2.14553,-0.82281 5.98458,-2.47274 8.53122,-3.66653 z M 136.87738,295.04534 c 1.69034,-1.32508 1.58398,-1.46906 -4.47688,-6.06041 l -6.20836,-4.70309 -1.92916,7.276 c -1.06104,4.0018 -2.05008,7.39706 -2.19787,7.54503 -0.8522,0.85323 -18.01418,-14.97284 -23.959855,-22.09478 l -7.029811,-8.42056 4.075036,-1.1582 c 2.24127,-0.637 4.643295,-1.32858 5.33783,-1.53684 0.96953,-0.29072 0.7266,-0.84304 -1.046034,-2.37823 -1.269857,-1.09977 -2.027534,-2.16712 -1.683727,-2.37191 0.343807,-0.20479 12.084971,-0.64983 26.091481,-0.98898 18.04065,-0.43684 25.46052,-0.89463 25.4463,-1.57 -0.0111,-0.52435 -1.45958,-5.88423 -3.21897,-11.91085 -1.75938,-6.02662 -4.68635,-16.05671 -6.50436,-22.28909 l -3.30548,-11.3316 -0.6113,9.64583 c -0.85625,13.51102 -1.19713,15.04711 -3.42443,15.43169 -18.75774,3.23884 -39.488215,8.20288 -46.492085,11.13283 -1.582049,0.66183 -3.404354,1.20332 -4.049566,1.20332 -2.760917,0 -10.569983,-23.21907 -12.666412,-37.66164 -6.668696,-45.94153 11.082927,-91.13108 47.288013,-120.37906 4.9278,-3.980886 5.21706,-4.414782 5.22002,-7.830253 0.009,-9.986671 9.01315,-17.222124 21.43281,-17.222124 3.3944,0 8.06758,0.64266 10.68884,1.46994 4.31517,1.361883 4.96129,1.371384 8.78938,0.12924 2.2725,-0.737386 7.54138,-2.00837 11.7086,-2.82441 10.59731,-2.075198 34.94012,-2.066485 45.46065,0.01627 8.08446,1.600487 20.56479,5.285115 26.09777,7.70497 1.8521,0.810018 6.8277,1.785409 11.05688,2.167536 12.07914,1.091409 18.00089,4.93145 20.04704,12.999795 0.66623,2.627048 1.98737,4.484445 5.10228,7.1733 21.14493,18.252766 35.33101,42.699446 41.82432,72.075276 2.51542,11.37977 2.73658,37.27553 0.41751,48.88725 -2.7919,13.97927 -9.80246,33.29391 -12.08455,33.29391 -0.64521,0 -2.42745,-0.52473 -3.96053,-1.16607 -7.29056,-3.04988 -38.64561,-10.61629 -44.12183,-10.64721 -1.25714,-0.007 -2.75716,-0.31266 -3.33337,-0.67902 -0.65884,-0.4189 -1.44918,-5.02829 -2.12951,-12.41963 l -1.08184,-11.75351 -1.40161,5.0573 c -0.77089,2.78152 -2.14535,7.52274 -3.05436,10.53605 -3.4223,11.34475 -7.88651,26.61623 -8.28595,28.34514 -0.41353,1.78996 -0.35269,1.7958 25.13047,2.41288 14.04976,0.34022 25.87021,0.8133 26.26766,1.05128 0.39746,0.23798 -0.36022,1.30393 -1.68372,2.36878 -1.8181,1.46277 -2.09767,2.02942 -1.14358,2.31787 0.69453,0.20998 3.09656,0.90297 5.33783,1.53997 l 4.07503,1.1582 -7.02981,8.42056 c -5.94567,7.12194 -23.10765,22.94801 -23.95985,22.09478 -0.14779,-0.14797 -1.1361,-3.54046 -2.19624,-7.53889 l -1.92753,-7.26985 -5.75813,4.46625 c -3.16697,2.45644 -5.73146,4.72282 -5.69885,5.03641 0.055,0.52946 2.49809,2.50757 19.87427,16.09201 3.5579,2.78152 6.95984,5.17066 7.55986,5.30921 1.65797,0.38285 12.59144,-8.73294 21.15486,-17.63789 16.34323,-16.99501 28.33845,-37.09937 34.97952,-58.6267 1.97754,-6.41029 1.81907,-5.77336 4.05143,-16.28308 7.74053,-36.44169 -0.0876,-77.9334 -20.73837,-109.91993 -15.70126,-24.320128 -41.36103,-46.444584 -63.18811,-54.482268 -1.50483,-0.554145 -2.73606,-1.293231 -2.73606,-1.642413 0,-0.349182 -1.51179,0.114005 -3.35953,1.029304 -2.76248,1.36842 -4.6837,1.611774 -10.81029,1.369298 -6.65809,-0.26351 -7.91421,-0.583481 -11.80715,-3.007614 l -4.35639,-2.712732 -3.84126,2.712732 c -3.59119,2.536136 -4.37821,2.731379 -12.08945,2.999171 -6.37537,0.2214 -8.84537,-0.02275 -10.87823,-1.07525 -2.3729,-1.228565 -2.87285,-1.235967 -5.11381,-0.07572 -3.75224,1.94271 -43.41554,1.896366 -46.19668,-0.05398 -1.74635,-1.224675 -2.19847,-1.224675 -5.25553,0 -1.83965,0.736972 -5.43335,1.339949 -7.98601,1.339949 -5.15756,0 -9.27347,1.76383 -19.31785,8.278446 -13.17844,8.547324 -28.761182,22.767755 -37.57187,34.287177 -17.957059,23.47774 -28.366027,50.67676 -31.077939,81.20779 -2.093363,23.56733 2.956329,50.69822 13.872972,74.53643 8.830371,19.28251 24.94382,39.73424 42.030707,53.34681 l 6.61674,5.27133 12.60625,-9.82811 c 6.93344,-5.40546 13.38542,-10.4389 14.33773,-11.18543 z m -18.43118,-13.9762 c 0.45947,-2.4653 0.16016,-2.94106 -3.57938,-5.68946 -4.11404,-3.02364 -5.50016,-3.44636 -8.06702,-2.46017 -1.12179,0.43099 -0.25622,1.69605 4.31864,6.31182 3.14689,3.17503 5.97019,5.49273 6.27399,5.15043 0.3038,-0.34229 0.778,-1.83297 1.05377,-3.31262 z m 168.70857,-8.00427 c -2.0351,-1.29434 -4.27955,-0.63854 -8.2871,2.42135 -3.44745,2.63225 -3.9962,3.43541 -3.59933,5.26803 1.02296,4.72363 1.10544,4.70935 7.07879,-1.22541 4.03987,-4.01376 5.52357,-6.00863 4.80764,-6.46397 z M 101.46106,236.31071 c 7.24887,-1.85031 15.83093,-3.83856 19.07123,-4.41833 7.15653,-1.28049 6.73237,-0.0375 7.46788,-21.8853 l 0.52495,-15.59335 -5.62897,0.28394 c -12.72923,0.64208 -24.092548,-5.8946 -25.397922,-14.61 -0.761584,-5.08475 0.568174,-9.51554 3.780562,-12.59693 l 2.51179,-2.40936 -1.81912,-2.55782 c -2.488251,-3.49866 -3.011836,-11.16031 -1.10441,-16.16089 2.49188,-6.53281 10.61558,-11.37224 19.08997,-11.37224 2.25691,0 4.10425,-0.28447 4.10519,-0.63216 0.006,-2.25729 -2.83795,-16.32716 -3.79094,-18.75417 -0.63711,-1.62255 -1.39762,-5.12507 -1.69002,-7.78339 -0.2924,-2.65831 -0.84578,-5.02767 -1.22972,-5.26525 -0.92942,-0.57511 -12.66708,11.96293 -18.133755,19.37027 -15.581542,21.113 -23.440838,45.14142 -23.433923,71.64512 0.0036,13.91613 1.67515,24.60388 5.912385,37.80399 2.674794,8.33269 3.09809,9.10833 4.760449,8.723 1.003531,-0.23261 7.755499,-1.93682 15.004374,-3.78713 z m 210.63356,-5.02082 c 4.21017,-13.11652 5.88133,-23.82765 5.88496,-37.71904 0.008,-32.1985 -11.42834,-60.37937 -34.20703,-84.28838 l -6.42429,-6.74307 -0.0343,2.77981 c -0.0248,2.01354 0.6039,3.3294 2.28085,4.7736 2.06051,1.77452 2.31512,2.56604 2.31512,7.19706 0,4.65609 -0.24839,5.41718 -2.36207,7.23749 -1.59905,1.37712 -3.39348,2.03423 -5.555,2.03423 h -3.19293 l -1.02565,7.34051 c -0.5641,4.03728 -1.23899,8.40855 -1.49975,9.71394 -0.45531,2.27928 -0.38412,2.33917 1.79473,1.50977 1.24787,-0.47501 5.0111,-0.86366 8.36273,-0.86366 10.51637,0 17.87645,5.03863 21.49171,14.713 4.74735,12.70381 -0.33947,27.95524 -11.17092,33.4929 -5.16671,2.64153 -13.27088,2.98324 -18.97207,0.79997 l -4.55246,-1.74337 0.57573,17.45933 c 0.64091,19.4363 0.98517,22.09519 2.86072,22.09519 2.04706,0 27.03432,5.76581 32.6081,7.52432 8.02417,2.5316 7.56124,2.84446 10.8218,-7.3136 z m -132.47111,5.75841 c 0,-0.42567 0.22995,-1.37392 0.511,-2.10721 0.40494,-1.05655 -0.0901,-1.33327 -2.38528,-1.33327 -3.93934,0 -4.47901,0.84254 -1.71043,2.67037 2.58734,1.70818 3.58471,1.92245 3.58471,0.77011 z m 38.35393,-0.79993 c 2.4067,-1.89541 1.87811,-2.64055 -1.87317,-2.64055 -3.07651,0 -3.21624,0.18664 -1.93473,2.58407 1.07565,2.01229 1.3199,2.01592 3.8079,0.0565 z m -42.70486,-10.23968 8.13931,-0.0132 6.6101,-18.58498 c 3.63555,-10.22174 6.37818,-18.81718 6.09473,-19.10097 -0.28345,-0.2838 -1.55322,0.43906 -2.82171,1.60634 -3.63581,3.34572 -8.18146,5.76217 -10.83939,5.76217 -2.37502,0 -7.20116,-2.6959 -11.04029,-6.16713 -1.58646,-1.43444 -1.89419,-1.49334 -1.89419,-0.3626 0,0.74254 -0.89033,2.05125 -1.97851,2.90825 -1.91645,1.50931 -1.99787,2.08329 -2.59587,18.30036 -0.56876,15.42385 -0.50698,16.69977 0.78456,16.20355 0.77107,-0.29624 5.06463,-0.54455 9.54126,-0.5518 z m 53.73329,-9.8907 c -0.30109,-5.91073 -0.54897,-13.21354 -0.55085,-16.22849 l -0.003,-5.48171 -7.36631,0.003 c -6.54074,0.003 -7.81215,-0.25943 -11.34441,-2.33831 -2.18796,-1.28771 -5.25672,-4.01787 -6.81947,-6.06702 l -2.84136,-3.72573 -1.77118,2.39855 -1.77118,2.39854 2.12381,5.77568 c 3.83689,10.43434 6.07951,16.64172 8.32933,23.0548 3.9143,11.15765 2.54836,10.01798 12.3791,10.32844 4.7634,0.15044 9.00333,0.35351 9.42205,0.45128 0.44517,0.10395 0.53398,-4.285 0.21388,-10.569 z m -72.17186,-9.27172 0.0592,-12.85398 h -8.23131 c -6.08746,0 -8.71864,-0.34174 -10.10237,-1.31212 l -1.87105,-1.31212 0.0353,9.10879 0.0353,9.1088 9.43569,6.43671 c 7.79945,5.32052 9.53491,6.19751 10.00791,5.0573 0.31472,-0.75867 0.59885,-7.1637 0.63139,-14.23338 z m 100.39168,-5.1839 -0.27021,-7.67008 h -8.71097 c -4.79103,0 -9.31021,-0.23023 -10.04262,-0.51162 -1.17896,-0.45296 -1.33033,0.97258 -1.32015,12.43253 0.006,7.11929 0.23594,13.78231 0.51026,14.80673 0.46929,1.75251 1.07795,1.47112 10.30133,-4.76246 l 9.80258,-6.62503 z m -68.11965,-17.22898 c 4.91782,-3.94571 7.21989,-9.57965 7.97624,-19.52059 0.59898,-7.87263 0.76629,-8.44661 2.53549,-8.69818 1.47223,-0.20934 1.89419,-0.81959 1.89419,-2.73937 v -2.47003 h -8.41863 -8.41864 v 2.47003 c 0,1.91978 0.42197,2.53003 1.89419,2.73937 1.82917,0.2601 1.8942,0.57804 1.8942,9.26111 0,8.66134 -0.0943,9.12596 -2.56563,12.64326 -1.41109,2.00832 -2.92645,3.61804 -3.36746,3.57716 -0.441,-0.0409 -1.93834,-1.90727 -3.32742,-4.14754 -2.37008,-3.82241 -2.52559,-4.59633 -2.52559,-12.56893 0,-8.16864 0.0729,-8.50609 1.8942,-8.76506 1.47222,-0.20934 1.89419,-0.81959 1.89419,-2.73937 v -2.47003 h -13.04889 -13.04889 v -5.0573 c 0,-2.78152 -0.13288,-5.05731 -0.2953,-5.05731 -0.16242,0 -1.49064,0.4172 -2.9516,0.92711 -1.84866,0.64523 -2.79216,1.60626 -3.10317,3.16082 -1.09646,5.48056 -1.66903,6.44701 -3.97825,6.71483 -1.9218,0.22288 -2.29963,0.67297 -2.29963,2.73937 0,2.18548 0.29333,2.47267 2.52559,2.47267 h 2.52559 l -0.0129,11.58965 c -0.007,6.3743 -0.29122,11.99661 -0.6314,12.49401 -0.34018,0.4974 -1.28147,1.14927 -2.09177,1.4486 -0.87195,0.3221 -1.47326,1.41507 -1.47326,2.67789 v 2.13366 h 10.10237 10.10236 v -2.48247 c 0,-2.36356 -0.19154,-2.49477 -3.99885,-2.73937 l -3.99885,-0.2569 -0.23298,-12.43254 -0.23297,-12.43253 5.07369,-0.14049 c 2.79053,-0.0773 5.73666,-0.17208 6.54695,-0.21072 1.13416,-0.0541 1.52541,0.7058 1.6998,3.3013 0.96477,14.35835 3.77905,21.32238 10.52843,26.05295 4.70394,3.29693 5.04408,3.25105 10.93459,-1.47506 z m -58.39872,1.59711 c 5.10171,-2.64139 6.823,-5.22823 6.823,-10.25396 0,-5.92052 -2.72002,-9.05476 -12.00548,-13.83377 -11.40097,-5.86781 -14.06623,-9.68957 -9.34852,-13.40503 4.94073,-3.89108 13.43031,-0.37604 10.48729,4.34218 -0.85882,1.37687 -0.77595,1.84428 0.49854,2.81164 2.27097,1.72371 3.50009,1.47684 6.22361,-1.24997 6.07681,-6.08417 0.0377,-12.64864 -11.67393,-12.68958 -9.00988,-0.0315 -15.33047,4.54265 -15.33047,11.0945 0,6.43279 2.95954,9.67951 14.30651,15.69475 7.67143,4.06676 9.72622,6.42793 8.47082,9.73388 -1.25784,3.31238 -6.11933,5.22525 -10.18231,4.00648 -4.71279,-1.4137 -6.16983,-3.51266 -5.5076,-7.93408 0.72612,-4.848 -0.55826,-6.06855 -4.41695,-4.19747 -2.84791,1.38096 -5.19606,4.84796 -5.19606,7.6719 0,3.34108 4.78601,7.51205 10.93878,9.53306 3.31843,1.09001 12.76847,0.30342 15.91277,-1.32453 z m 96.56903,0.33341 c 7.96928,-3.86254 11.63231,-13.93489 9.56595,-26.30382 -1.74322,-10.43468 -7.37641,-18.79772 -14.90059,-22.1214 l -3.36044,-1.48442 4.20675,-2.20697 c 3.25374,-1.70699 4.80088,-3.25718 6.82936,-6.84283 l 2.62261,-4.63586 0.2853,-17.06839 0.28529,-17.068397 h 2.02983 c 1.66977,0 2.02983,-0.425565 2.02983,-2.399119 v -2.39912 l -9.9182,-0.533943 c -10.94764,-0.589363 -15.0474,0.110207 -19.25038,3.284829 -6.38514,4.822853 -8.57365,16.81377 -4.5773,25.07912 3.43472,7.10378 11.49671,10.58006 18.1154,7.81124 l 3.2239,-1.34866 -0.49314,3.04254 c -1.05911,6.5344 -4.85992,9.27882 -11.62943,8.39718 -3.71111,-0.48332 -3.93154,-0.39646 -4.4728,1.76271 -0.41511,1.65593 -0.19373,2.48152 0.81732,3.04802 0.91294,0.51152 1.22578,1.41859 0.91577,2.65525 -0.41645,1.6613 0.0634,2.04691 4.15312,3.33765 4.41254,1.39262 11.32965,6.70568 11.32965,8.70236 0,0.47097 -2.24402,1.06005 -4.98671,1.30905 -6.16113,0.55935 -9.56706,2.49659 -12.69707,7.22189 -4.79462,7.23834 -4.14111,18.03433 1.49043,24.62147 5.11841,5.98697 11.57476,7.44066 18.38555,4.13962 z m -10.75669,-5.60674 c -2.73527,-3.13645 -3.55848,-5.85229 -3.5279,-11.63879 0.0445,-8.41813 2.7171,-13.05586 7.52376,-13.05586 6.26139,0 7.93609,2.72182 7.93609,12.89819 0,5.97563 -0.30015,7.52905 -1.92168,9.94574 -1.57524,2.3477 -2.53165,2.90928 -5.30521,3.11504 -2.43285,0.18049 -3.75485,-0.17475 -4.70506,-1.26432 z m 5.19704,-12.57232 c 0,-3.43786 -0.31361,-5.2847 -0.84187,-4.95782 -0.46302,0.28652 -0.84186,2.98637 -0.84186,5.99968 0,3.43786 0.3136,5.28469 0.84186,4.95781 0.46303,-0.28651 0.84187,-2.98636 0.84187,-5.99967 z m -8.09071,-54.0687 c -2.23494,-1.48044 -3.69539,-6.18398 -3.69539,-11.90146 0,-9.715393 2.46897,-13.582867 8.6712,-13.582867 1.99101,0 4.07462,0.455158 4.63025,1.011461 0.67203,0.672841 1.01024,4.354048 1.01024,10.995806 0,9.47681 -0.10504,10.0895 -2.0664,12.05323 -2.05524,2.05774 -6.48041,2.79467 -8.5499,1.42383 z m 3.64852,-14.737559 c -0.18674,-1.506655 -0.33954,-0.273937 -0.33954,2.739369 0,3.01331 0.1528,4.24603 0.33954,2.73938 0.18675,-1.50666 0.18675,-3.97209 0,-5.478749 z m 70.0359,85.813139 c 8.63805,-5.99342 10.31306,-20.74051 3.26822,-28.77386 -3.58759,-4.09099 -6.52297,-5.41265 -12.02136,-5.41265 -8.2591,0 -13.39752,3.61247 -15.92766,11.19766 -4.473,13.40971 4.18508,26.5295 16.92144,25.64147 3.06478,-0.21369 5.38979,-1.00852 7.75936,-2.65262 z m -13.58044,-4.47486 c -2.51379,-2.88536 -3.18518,-5.23347 -3.18518,-11.13987 0,-11.06803 4.20988,-15.78234 11.23272,-12.57865 2.63164,1.20051 3.99196,4.21344 4.52471,10.02166 0.51376,5.60123 -0.86247,11.19064 -3.31974,13.48271 -2.30244,2.14765 -7.46391,2.26712 -9.25251,0.21415 z m 5.66974,-14.30965 c -0.29938,-1.99884 -0.89886,-3.41488 -1.33217,-3.14676 -0.92564,0.57278 -1.0742,10.77784 -0.17006,11.68306 1.05733,1.05862 2.07402,-4.71867 1.50223,-8.5363 z m -20.79556,18.53128 c -0.17535,-1.52107 -0.84177,-2.41852 -1.95011,-2.62616 -0.92605,-0.17349 -1.96205,-0.74568 -2.30223,-1.27153 -0.74381,-1.14979 -0.85992,-21.74915 -0.13329,-23.64503 0.28105,-0.73329 1.41757,-1.33326 2.52559,-1.33326 1.67719,0 2.01459,-0.42349 2.01459,-2.52865 v -2.52865 h -8.83957 -8.83957 v 2.47266 c 0,2.07088 0.37619,2.51601 2.31513,2.73938 l 2.31512,0.2667 v 12.60526 12.60525 l -2.10466,0.49278 c -1.50521,0.35242 -2.18053,1.14347 -2.37104,2.77737 l -0.26639,2.2846 h 8.95141 8.95141 z m -51.88191,-39.58439 c -1.58176,-0.64621 -3.12035,-2.08672 -3.65489,-3.42192 -0.50774,-1.26824 -1.29633,-3.11719 -1.75242,-4.10876 -0.87959,-1.91231 -0.54081,-8.13281 0.58125,-10.67249 0.56196,-1.27194 0.34647,-1.45065 -1.33007,-1.103 -1.10037,0.22818 -7.49383,0.64422 -14.20769,0.92453 -13.36075,0.55782 -17.05703,-0.13568 -22.37715,-4.19845 -3.94291,-3.01105 -4.57861,-1.60242 -3.23081,7.15911 0.60617,3.94048 1.12858,8.3024 1.16091,9.69316 0.11008,4.73524 -0.17048,4.67262 20.92584,4.67028 18.56376,-0.002 23.72594,0.5643 23.72594,2.60307 0,0.37463 0.65043,0.43124 1.44541,0.12581 1.16028,-0.44578 0.90653,-0.77548 -1.28632,-1.67134 z m 46.39555,-0.91889 3.11943,-3.19846 -3.36657,-3.29136 -3.36658,-3.29136 -2.94946,2.86219 c -1.6222,1.57421 -2.94946,3.15432 -2.94946,3.51136 0,0.7621 5.2431,6.60609 5.92683,6.60609 0.25651,0 1.87012,-1.4393 3.58581,-3.19846 z m -111.01934,-4.01835 c 0.39002,-1.55581 1.76876,-2.73165 4.93198,-4.20618 2.41485,-1.12567 4.79495,-2.05038 5.2891,-2.05491 0.57134,-0.005 0.72187,-1.31249 0.41342,-3.59049 l -0.48504,-3.58226 -6.30646,0.25257 c -3.61731,0.14486 -8.21137,-0.25701 -10.77373,-0.94247 -3.35038,-0.89625 -4.36942,-0.93975 -4.07592,-0.17398 0.21524,0.56158 0.66249,3.19395 0.99391,5.84971 0.47788,3.8295 0.97289,4.97203 2.39219,5.52146 0.98429,0.38103 2.70805,1.68127 3.83056,2.88942 2.54686,2.74115 3.11076,2.74668 3.78999,0.0371 z M 262.3828,129.63421 c 0.47489,-3.03753 0.38718,-3.21658 -1.34761,-2.75088 -1.02056,0.27397 -3.74975,0.50472 -6.06488,0.51279 l -4.20931,0.0147 2.52559,1.57581 c 1.38907,0.8667 3.64943,2.77343 5.02302,4.23719 2.79256,2.97587 3.08738,2.71606 4.07319,-3.58957 z m -14.81217,-1.50117 2.3485,-0.94089 -2.15382,-0.62063 c -1.18461,-0.34135 -2.93891,-1.04131 -3.89845,-1.55546 -1.56007,-0.83594 -1.79976,-0.65875 -2.26596,1.67504 -0.28673,1.43542 -0.50937,3.60552 -0.49473,4.82243 l 0.0266,2.21257 2.04468,-2.32609 c 1.12458,-1.27935 3.10151,-2.74948 4.39318,-3.26697 z m -94.44744,-10.01212 c 4.2394,-2.05109 6.29559,-5.45246 6.29559,-10.41421 0,-5.26452 -2.97321,-8.462627 -12.6518,-13.60882 -10.51507,-5.590956 -13.0753,-9.20873 -9.23666,-13.05202 3.18292,-3.186779 11.78609,-1.429173 11.78609,2.407869 0,0.808168 -0.38779,1.857656 -0.86176,2.332196 -0.58776,0.588478 -0.33141,1.343335 0.80629,2.374182 1.6054,1.454632 1.77193,1.450629 4.43504,-0.106598 5.63401,-3.294423 5.11817,-8.933726 -1.10809,-12.113976 -2.90946,-1.48609 -4.66697,-1.751701 -9.98733,-1.509376 -9.64198,0.439161 -14.33074,4.147141 -14.33074,11.333081 0,5.967532 3.31152,9.593174 13.46982,14.747522 3.00966,1.52712 6.3245,3.52782 7.3663,4.44602 2.37057,2.08929 2.46827,5.85813 0.21047,8.11866 -2.40025,2.40316 -9.05913,2.32855 -12.18922,-0.13657 -2.09328,-1.64857 -2.26459,-2.18277 -1.79648,-5.60215 0.66432,-4.85261 -0.37046,-6.25226 -3.75027,-5.07263 -5.39956,1.88458 -7.39767,7.75366 -4.07815,11.97885 4.78051,6.0848 17.18037,7.96165 25.6209,3.87797 z m 40.09716,1.6976 h 5.76602 v -2.52865 c 0,-2.10516 -0.3374,-2.52865 -2.01459,-2.52865 -1.10802,0 -2.24454,-0.59997 -2.52559,-1.33326 -0.28105,-0.7333 -0.511,-6.39366 -0.511,-12.57859 0,-10.772727 -0.0887,-11.350828 -2.1099,-13.755832 -6.17295,-7.34502 -25.6716,-4.190881 -25.6716,4.152686 0,1.502993 0.78149,2.936017 2.21819,4.067493 2.53437,1.995953 3.87673,2.161389 6.12602,0.754987 1.28695,-0.804693 1.40515,-1.282608 0.62611,-2.531564 -1.54943,-2.484036 0.28866,-4.440155 4.46081,-4.747269 4.50578,-0.331672 6.7736,1.493446 6.7736,5.451333 0,2.630941 -0.1868,2.819457 -2.79373,2.819457 -5.09176,0 -11.3559,2.441825 -14.88372,5.801829 -3.04871,2.90368 -3.36915,3.60712 -3.36915,7.39611 0,3.50471 0.39168,4.56294 2.40295,6.49219 3.31991,3.18452 6.26094,3.9402 13.50902,3.47103 3.42679,-0.22181 8.82524,-0.4033 11.99656,-0.4033 z m -18.16696,-6.38183 c -1.74765,-1.74976 -1.68552,-5.77798 0.11694,-7.58263 1.88213,-1.88441 6.37067,-3.7361 9.05639,-3.7361 2.07485,0 2.1317,0.15494 2.1317,5.81001 0,6.5417 -0.26977,6.83325 -6.3227,6.83325 -2.20424,0 -4.18546,-0.5267 -4.98233,-1.32453 z m 94.77656,6.38183 h 5.76603 v -2.47266 c 0,-2.07088 -0.3762,-2.51601 -2.31513,-2.73938 l -2.31512,-0.2667 -0.42094,-12.22182 c -0.26317,-7.64116 -0.82469,-12.929332 -1.49821,-14.109575 -3.9567,-6.933456 -22.26576,-6.340045 -25.97518,0.841876 -1.12484,2.177831 -1.11863,2.654006 0.058,4.451993 1.98021,3.025843 4.48878,4.118529 6.91465,3.01189 1.61594,-0.737162 1.91064,-1.342732 1.48323,-3.047756 -0.75227,-3.000893 0.94285,-4.634565 4.80888,-4.634565 3.95686,0 6.63183,2.331428 6.63183,5.780112 0,2.330345 -0.16859,2.42622 -5.19051,2.95175 -8.47503,0.886889 -16.69795,6.976165 -16.69795,12.365245 0,7.53376 5.85157,11.19859 16.75383,10.49289 3.42679,-0.22181 8.82524,-0.4033 11.99656,-0.4033 z m -18.19787,-6.196 c -1.555,-1.13843 -2.03255,-5.40857 -0.82385,-7.36666 0.88907,-1.44029 7.24195,-4.09857 9.84466,-4.11939 2.28257,-0.0183 2.31513,0.0562 2.31513,5.29166 0,3.00629 -0.4383,5.749 -1.01024,6.32163 -1.36852,1.37018 -8.39865,1.28355 -10.3257,-0.12724 z M 208.24687,78.200426 c 3.0873,-1.459078 5.32815,-1.784071 12.10862,-1.756125 9.4044,0.03876 8.27664,-0.560638 -4.95277,-2.632353 -10.7478,-1.683097 -26.27926,-1.684504 -37.04201,-0.0034 -11.70641,1.82855 -14.98476,2.834999 -14.37939,4.41446 0.26875,0.701209 0.48864,1.565203 0.48864,1.919986 0,0.354783 1.98806,-0.340009 4.4179,-1.543984 3.73316,-1.849757 5.5273,-2.184381 11.57563,-2.158954 8.36729,0.03518 13.82595,2.030753 16.88446,6.172621 l 1.90795,2.583766 2.60129,-2.602822 c 1.43072,-1.431552 4.30607,-3.40851 6.38968,-4.393239 z M 106.64701,59.432808 c 3.52107,-5.015391 4.02306,-8.197501 4.53526,-28.749241 l 0.46741,-18.754163 h 2.41702 c 2.12434,0 2.41702,-0.306202 2.41702,-2.5286508 V 6.8721021 h -9.2605 -9.260499 v 2.4726648 c 0,2.0708741 0.376192,2.5160031 2.315129,2.7393721 l 2.31512,0.266707 v 19.386326 c 0,10.662479 -0.28921,20.420884 -0.64269,21.685345 -0.35349,1.26446 -2.312662,4.351765 -4.353726,6.860676 -3.476585,4.27348 -3.631097,4.67591 -2.445816,6.370186 l 1.265209,1.808528 3.930373,-2.826425 c 2.16171,-1.554534 4.99702,-4.345737 6.30069,-6.202674 z m 12.01191,-5.228389 c -1.53448,-1.53634 -1.84577,-1.316977 -2.64276,1.862298 l -0.60441,2.411113 2.27021,-1.4893 c 2.04171,-1.339406 2.14004,-1.619619 0.97696,-2.784111 z m 22.96011,-3.440759 c 4.63229,-2.366084 5.40818,-3.563028 3.79987,-5.861994 -1.24811,-1.784083 -1.41362,-1.811303 -2.88839,-0.475038 -1.76418,1.598498 -7.99678,2.548505 -11.29018,1.720912 -2.23399,-0.561375 -5.48732,-4.908374 -5.49296,-7.33951 -0.002,-1.042797 1.13452,-1.461264 4.89852,-1.802985 9.53452,-0.865608 15.30307,-5.5395 15.30307,-12.399128 0,-4.825437 -2.26924,-7.361967 -7.67388,-8.57778 -7.58235,-1.705705 -14.72957,1.357945 -18.48585,7.923945 -1.72619,3.017397 -2.04271,4.690348 -2.04271,10.796738 0,6.513079 0.23392,7.579979 2.37081,10.812937 4.23199,6.402728 14.35568,8.851949 21.5017,5.201903 z M 126.04394,29.547933 c 1.62495,-8.298644 10.69013,-12.112534 11.32138,-4.763118 0.21288,2.478386 -0.15616,3.273551 -2.19328,4.725867 -1.34707,0.960362 -4.07833,2.006933 -6.06946,2.325713 l -3.62023,0.579601 z m 43.4772,20.311239 c 0,-2.135305 -0.32739,-2.528651 -2.10466,-2.528651 h -2.10466 v -9.327133 c 0,-5.239464 0.41403,-10.133996 0.94473,-11.16821 1.31332,-2.559385 5.0696,-6.476936 6.2103,-6.476936 3.17607,0 6.31479,9.678511 6.31479,19.472192 0,6.155837 -0.54425,7.500087 -3.03659,7.500087 -1.67719,0 -2.01459,0.423493 -2.01459,2.528651 v 2.528651 h 8.83957 8.83957 v -2.528651 c 0,-2.102308 -0.3383,-2.528651 -2.00647,-2.528651 -2.44647,0 -3.01362,-1.72794 -3.04321,-9.271721 -0.0408,-10.411613 -2.97911,-17.609619 -8.93706,-21.893484 -4.085,-2.937174 -5.08579,-3.0814 -7.86379,-1.133258 -1.60469,1.125333 -3.6354,1.373779 -9.86876,1.207394 L 151.842,16.02996 v 2.185213 c 0,1.757776 0.49819,2.284972 2.54693,2.695216 l 2.54693,0.510003 -0.2318,12.707273 -0.23181,12.707273 -2.10466,0.491845 c -1.50551,0.351829 -2.18049,1.142215 -2.37104,2.776443 l -0.26638,2.284597 h 8.89548 8.89549 z m 48.80601,0.854169 c 4.19062,-2.140488 5.91514,-4.642117 5.91514,-8.580667 0,-4.397417 -2.47395,-6.901611 -11.3943,-11.533604 -5.41725,-2.812974 -7.61851,-4.415841 -7.79873,-5.678725 -0.34285,-2.402508 1.70629,-3.887796 5.36369,-3.887796 3.7888,0 5.04111,1.081654 3.84436,3.320494 -1.81775,3.400616 3.37473,5.02728 6.17134,1.933314 1.97717,-2.187393 1.90292,-5.68711 -0.16457,-7.75711 -2.15092,-2.153519 -8.0841,-3.469454 -12.40488,-2.751308 -7.03083,1.168575 -10.55655,4.420249 -10.55655,9.736013 0,4.188471 3.33154,7.626226 10.65941,10.999241 8.98554,4.13604 10.30059,5.846719 7.01972,9.13156 -2.04869,2.051179 -6.45109,2.212454 -9.1291,0.334432 -1.50551,-1.055779 -1.8687,-2.001044 -1.66058,-4.321903 0.35681,-3.978899 -1.60606,-5.339859 -4.73811,-3.285175 -5.32305,3.492024 -4.61595,9.246523 1.5092,12.282131 4.7083,2.333418 12.85702,2.361154 17.36396,0.0591 z m 33.27571,0.103782 c 4.83664,-2.202804 5.88111,-3.697628 3.86196,-5.527146 -1.47731,-1.33857 -1.80673,-1.348691 -4.16454,-0.127943 -1.40818,0.729082 -4.31306,1.325603 -6.45528,1.325603 -3.18247,0 -4.34511,-0.450697 -6.35579,-2.463814 -1.4466,-1.448353 -2.46083,-3.359022 -2.46083,-4.63586 0,-1.989365 0.30092,-2.174225 3.57792,-2.197942 1.96786,-0.01424 5.64756,-0.867662 8.17711,-1.896488 5.56054,-2.261599 8.4497,-5.998419 8.4497,-10.92879 0,-7.989181 -11.97572,-11.70937 -20.71909,-6.436263 -4.7707,2.877199 -7.26777,7.588626 -7.71432,14.555224 -0.60216,9.394293 2.45093,16.033474 8.60787,18.718522 3.70307,1.61491 11.22233,1.424345 15.19529,-0.385103 z M 236.29632,29.146267 c 0.97026,-5.986268 5.2583,-9.475057 9.6476,-7.849382 1.43967,0.533217 1.87055,1.365383 1.87055,3.61266 0,3.577293 -3.02245,6.061464 -8.42781,6.926862 l -3.6203,0.579612 z m 43.50898,20.712905 c 0,-2.102308 -0.33831,-2.528651 -2.00648,-2.528651 -2.42401,0 -3.02536,-1.766592 -3.01263,-8.850279 0.0135,-7.503114 1.36874,-12.252544 4.38946,-15.382628 1.45402,-1.506655 3.0429,-2.736781 3.53085,-2.733613 0.48795,0.0032 1.83428,1.395995 2.99184,3.095171 1.91401,2.809562 2.12995,4.030658 2.38379,13.48038 l 0.27912,10.390969 h -2.17332 c -1.85355,0 -2.17332,0.372043 -2.17332,2.528651 v 2.528651 h 8.83957 8.83957 v -2.472665 c 0,-2.070873 -0.37619,-2.516003 -2.31512,-2.739372 l -2.31513,-0.266707 -0.50305,-8.859669 c -0.56536,-9.957028 -2.43069,-15.425119 -6.80644,-19.952676 -4.34299,-4.493662 -6.60417,-4.993505 -11.1343,-2.461291 -2.12608,1.188414 -3.8656,1.788969 -3.8656,1.334566 0,-0.46622 -2.75097,-0.826186 -6.31398,-0.826186 -6.19033,0 -6.31397,0.04168 -6.31397,2.128281 0,1.694413 0.51921,2.23225 2.54692,2.638285 l 2.54693,0.510003 -0.2318,12.744343 -0.2318,12.744344 -2.31513,0.266707 c -1.93893,0.223369 -2.31512,0.668499 -2.31512,2.739372 v 2.472665 h 8.83957 8.83957 z M 150.15827,37.054816 c 0,-2.527702 -0.0719,-2.591322 -1.19318,-1.055994 -0.84211,1.15305 -0.93564,1.944467 -0.31785,2.689751 1.29586,1.563308 1.51103,1.330655 1.51103,-1.633757 z m 110.28416,0.03046 c 0,-2.601754 -0.0363,-2.626435 -1.67589,-1.14079 -1.58102,1.432531 -1.59293,1.581565 -0.21047,2.632481 1.95282,1.484485 1.88636,1.537038 1.88636,-1.491691 z"
         id="path5" /></g></g></svg>
