<?xml version="1.0" encoding="UTF-8" standalone="no"?>
<!-- add padding of ~strokeWidth/2 or more -->

<svg
   viewBox="0 0 129 38"
   aria-label="Powered by Continuum"
   version="1.1"
   sodipodi:docname="poweredby-continuum.svg"
   inkscape:version="1.4.3 (unknown)"
   id="poweredby-continuum"
   xml:space="preserve"
   xmlns:inkscape="http://www.inkscape.org/namespaces/inkscape"
   xmlns:sodipodi="http://sodipodi.sourceforge.net/DTD/sodipodi-0.dtd"
   xmlns="http://www.w3.org/2000/svg"
   xmlns:svg="http://www.w3.org/2000/svg"
   xmlns:rdf="http://www.w3.org/1999/02/22-rdf-syntax-ns#"
   xmlns:cc="http://creativecommons.org/ns#"
   xmlns:dc="http://purl.org/dc/elements/1.1/"><defs
     id="defs2"><rect
       x="0"
       y="0"
       width="340.9603"
       height="342.07943"
       id="rect34" /></defs><sodipodi:namedview
     id="namedview2"
     pagecolor="#ffffff"
     bordercolor="#000000"
     borderopacity="0.25"
     inkscape:showpageshadow="2"
     inkscape:pageopacity="0.0"
     inkscape:pagecheckerboard="0"
     inkscape:deskcolor="#d1d1d1"
     showgrid="false"
     inkscape:zoom="45.254834"
     inkscape:cx="21.113767"
     inkscape:cy="29.146058"
     inkscape:window-width="2416"
     inkscape:window-height="1232"
     inkscape:window-x="0"
     inkscape:window-y="0"
     inkscape:window-maximized="0"
     inkscape:current-layer="g2" /><title
     id="title1">Powered by Continuum</title><!-- Ten-point star (decagram), centered at (20,20) --><!-- Divider line (optional, remove if you prefer) --><!-- Text: Powered by Continuum --><g
     id="g3"
     transform="matrix(0.84129252,0,0,0.84129252,5.2304872,5.3547098)"><g
       fill="currentColor"
       font-family="Inter, system-ui, '-apple-system', 'Segoe UI', Roboto, Arial, sans-serif"
       font-size="14px"
       id="g2"
       transform="translate(-12.296509,-5.4738636)"><path
         style="font-weight:bold;font-size:17.7263px;font-family:Metamorphous;-inkscape-font-specification:'Metamorphous, Normal';dominant-baseline:middle;stroke:#000000;stroke-width:1.26616"
         d="m 60.709689,28.031933 q 0.04328,-0.519325 0.04328,-0.822265 0,-0.649156 -0.138487,-1.099238 -0.129831,-0.458737 -0.467392,-0.761677 -0.337562,-0.311595 -0.787643,-0.519325 -0.934786,-0.424116 -1.921503,-0.424116 -0.978063,0 -1.661841,0.251008 -0.683778,0.242351 -1.203103,0.666467 -0.51067,0.424115 -0.874198,1.004029 -0.363527,0.579913 -0.588568,1.24638 -0.441427,1.272347 -0.441427,2.838978 0,2.146544 1.159827,3.704519 0.822264,1.090583 2.233098,1.540665 0.7184,0.233696 1.488732,0.233696 0.770332,0 1.324279,-0.08655 0.553947,-0.09521 1.038651,-0.285629 0.969406,-0.363528 1.783016,-1.159826 l 0.432771,0.579913 q -0.666467,0.995373 -1.886882,1.583942 -1.211758,0.579913 -2.925531,0.579913 -3.167884,0 -5.002833,-2.051335 -1.679151,-1.895536 -1.679151,-4.699892 0,-1.757051 0.761677,-3.315026 1.229069,-2.501416 3.92956,-3.30637 0.92613,-0.268318 1.687807,-0.268318 0.761677,0 1.107894,0.04328 0.346216,0.03462 0.631845,0.103865 0.285629,0.06059 0.519325,0.138486 l 0.441427,0.147143 q 0.753021,0.259662 1.185792,0.259662 0.432771,0 0.960752,-0.709744 h 0.822265 l -1.142516,4.587372 z m 3.185195,3.574688 q 0,-0.675122 0.129831,-1.34159 0.138487,-0.666467 0.406805,-1.263691 0.276973,-0.597224 0.683778,-1.099238 0.406805,-0.502014 0.943441,-0.865542 1.151171,-0.778988 2.674524,-0.778988 2.302342,0 3.635277,1.64453 1.220414,1.506043 1.220414,3.713175 0,2.224443 -1.220414,3.782418 -1.332935,1.696462 -3.635277,1.696462 -2.293686,0 -3.635276,-1.722428 -1.203103,-1.557976 -1.203103,-3.765108 z m 3.825695,4.336366 q 0.441427,0.190419 1.02134,0.190419 0.588568,0 1.029995,-0.181764 0.441426,-0.190419 0.761677,-0.519325 0.32025,-0.328906 0.52798,-0.761677 0.216386,-0.441426 0.346217,-0.943441 0.233696,-0.900163 0.233696,-1.774361 0,-0.882853 -0.05193,-1.419489 -0.05193,-0.545291 -0.181764,-1.029994 -0.129831,-0.493359 -0.346217,-0.917475 -0.20773,-0.424116 -0.52798,-0.735711 -0.692434,-0.657812 -1.783017,-0.657812 -2.051334,0 -2.648558,2.354275 -0.233697,0.891508 -0.233697,2.068645 0,3.531411 1.85226,4.32771 z m 11.485742,-7.711979 q 0.787643,-1.566631 2.821667,-2.596626 1.497387,0.796299 2.302341,1.748395 1.272347,1.532009 1.540665,4.55275 0.08655,1.038651 0.08655,2.008058 0,0.969407 0.03462,1.315624 0.03462,0.346216 0.147142,0.52798 0.11252,0.173109 0.328906,0.233696 0.216385,0.05193 0.432771,0.08655 0.216385,0.03462 0.30294,0.04328 0.09521,0 0.190419,0.01731 v 0.718399 h -4.734515 v -0.718399 q 0.493359,-0.06059 0.787643,-0.112521 0.294285,-0.06059 0.450082,-0.216385 0.251007,-0.251008 0.251007,-1.393523 V 33.44157 q 0,-1.982091 -0.09521,-2.743768 -0.09521,-0.770332 -0.242352,-1.263691 -0.138487,-0.502014 -0.380838,-0.943441 -0.476048,-0.83092 -1.488733,-1.635874 -2.735112,1.687807 -2.735112,4.570062 v 2.934187 q 0,1.142515 0.164453,1.367556 0.173108,0.225041 0.424115,0.294284 0.251008,0.06059 0.683779,0.121176 l 0.22504,0.02597 v 0.718399 h -4.734514 v -0.709744 q 0.05193,-0.02597 0.129831,-0.02597 0.08655,-0.0087 0.30294,-0.03462 0.225041,-0.03462 0.458737,-0.09521 0.242352,-0.06059 0.372183,-0.20773 0.216386,-0.233696 0.216386,-1.177137 v -6.171314 q 0,-0.787643 -0.199075,-0.960751 -0.199075,-0.181764 -0.493359,-0.233697 -0.294284,-0.06059 -0.787643,-0.09521 v -0.744366 h 3.237127 z m 10.135497,7.93702 q 0.389494,-0.08655 0.614535,-0.147143 0.233697,-0.06924 0.346217,-0.22504 0.190419,-0.251008 0.190419,-1.298313 v -7.01089 h -1.480077 v -0.796299 q 1.263692,-0.181764 1.454111,-0.372183 h -0.0087 q 0.190419,-0.259662 0.337561,-1.159826 0.147142,-0.900164 0.181764,-1.324279 l 1.255036,-0.519325 v 3.115951 h 3.133261 v 1.055961 h -3.133261 v 6.984923 q 0,0.804954 0.11252,1.029995 0.121176,0.216386 0.294284,0.320251 0.173109,0.103865 0.467393,0.155797 0.476048,0.08656 1.739739,0.103865 v 0.804954 h -5.504847 z m 7.486938,-13.19086 1.575286,-1.54932 1.540665,1.54932 -1.540665,1.566631 z m -0.7184,13.19086 0.30294,-0.04328 q 0.372183,-0.05193 0.605879,-0.103865 0.233696,-0.06059 0.363528,-0.20773 0.22504,-0.268318 0.22504,-1.229069 v -5.868375 q 0,-0.986718 -0.20773,-1.185792 -0.20773,-0.20773 -0.502014,-0.259663 -0.294284,-0.05193 -0.787643,-0.09521 v -0.744366 h 4.734514 v 0.744366 q -0.49336,0.05193 -0.78764,0.103865 -0.294287,0.05193 -0.450085,0.199074 -0.251007,0.233697 -0.251007,1.237725 v 5.868375 q 0,0.986718 0.155798,1.168481 0.155797,0.181764 0.380838,0.242352 0.233696,0.06059 0.614536,0.121176 l 0.33756,0.05193 v 0.718399 h -4.734514 z m 9.702724,-7.93702 q 0.78764,-1.566631 2.82167,-2.596626 1.49739,0.796299 2.30234,1.748395 1.27235,1.532009 1.54066,4.55275 0.0866,1.038651 0.0866,2.008058 0,0.969407 0.0346,1.315624 0.0346,0.346216 0.14714,0.52798 0.11252,0.173109 0.32891,0.233696 0.21638,0.05193 0.43277,0.08655 0.21638,0.03462 0.30294,0.04328 0.0952,0 0.19042,0.01731 v 0.718399 h -4.73452 v -0.718399 q 0.49336,-0.06059 0.78765,-0.112521 0.29428,-0.06059 0.45008,-0.216385 0.25101,-0.251008 0.25101,-1.393523 V 33.44157 q 0,-1.982091 -0.0952,-2.743768 -0.0952,-0.770332 -0.24236,-1.263691 -0.13848,-0.502014 -0.38083,-0.943441 -0.47605,-0.83092 -1.48874,-1.635874 -2.73511,1.687807 -2.73511,4.570062 v 2.934187 q 0,1.142515 0.16445,1.367556 0.17311,0.225041 0.42412,0.294284 0.25101,0.06059 0.68378,0.121176 l 0.22504,0.02597 v 0.718399 h -4.73452 v -0.709744 q 0.0519,-0.02597 0.12984,-0.02597 0.0866,-0.0087 0.30293,-0.03462 0.22505,-0.03462 0.45874,-0.09521 0.24235,-0.06059 0.37219,-0.20773 0.21638,-0.233696 0.21638,-1.177137 v -6.171314 q 0,-0.787643 -0.19907,-0.960751 -0.19908,-0.181764 -0.49336,-0.233697 -0.29429,-0.06059 -0.78765,-0.09521 v -0.744366 h 3.23713 z m 14.64497,9.105501 q -1.64453,-0.986718 -2.42352,-1.834949 -1.36755,-1.497387 -1.64453,-4.34502 -0.10386,-1.02134 -0.10386,-1.904193 0,-0.891508 -0.0173,-1.185792 -0.0173,-0.30294 -0.13849,-0.484704 -0.20773,-0.328906 -1.05596,-0.406804 v -0.744366 h 4.25847 v 0.744366 q -0.85689,0.08655 -1.1079,0.380838 -0.19907,0.251007 -0.19907,1.211759 0,0.960751 0.026,1.791672 0.0346,0.83092 0.12118,1.488732 0.0866,0.657812 0.25101,1.185792 0.16445,0.519326 0.44142,0.986718 0.50202,0.865542 1.5926,1.886882 1.11655,-1.047306 1.48873,-1.696463 0.38084,-0.657811 0.54529,-1.177137 0.16446,-0.52798 0.25101,-1.185792 0.14714,-1.116549 0.14714,-2.458139 0,-1.350246 -0.0346,-1.609908 -0.0346,-0.259663 -0.16445,-0.424116 -0.25101,-0.294284 -1.09924,-0.380838 v -0.744366 h 4.24116 v 0.744366 q -0.84824,0.121176 -0.99538,0.346216 -0.14714,0.216386 -0.18176,0.51067 -0.026,0.294284 -0.026,1.203103 0,0.900164 -0.10386,1.921504 -0.0952,1.021339 -0.3116,1.817638 -0.20773,0.796298 -0.53663,1.410833 -0.32891,0.60588 -0.7963,1.116549 -0.77899,0.848231 -2.42352,1.834949 z m 11.78003,0 q -1.64453,-0.986718 -2.42352,-1.834949 -1.36755,-1.497387 -1.64453,-4.34502 -0.10386,-1.02134 -0.10386,-1.904193 0,-0.891508 -0.0173,-1.185792 -0.0173,-0.30294 -0.13849,-0.484704 -0.20773,-0.328906 -1.05596,-0.406804 v -0.744366 h 4.25846 v 0.744366 q -0.85688,0.08655 -1.10789,0.380838 -0.19907,0.251007 -0.19907,1.211759 0,0.960751 0.026,1.791672 0.0346,0.83092 0.12118,1.488732 0.0866,0.657812 0.25101,1.185792 0.16445,0.519326 0.44142,0.986718 0.50202,0.865542 1.5926,1.886882 1.11655,-1.047306 1.48873,-1.696463 0.38084,-0.657811 0.54529,-1.177137 0.16446,-0.52798 0.25101,-1.185792 0.14714,-1.116549 0.14714,-2.458139 0,-1.350246 -0.0346,-1.609908 -0.0346,-0.259663 -0.16445,-0.424116 -0.25101,-0.294284 -1.09924,-0.380838 v -0.744366 h 4.24115 v 0.744366 q -0.84823,0.121176 -0.99537,0.346216 -0.14714,0.216386 -0.18176,0.51067 -0.026,0.294284 -0.026,1.203103 0,0.900164 -0.10386,1.921504 -0.0952,1.021339 -0.3116,1.817638 -0.20773,0.796298 -0.53663,1.410833 -0.32891,0.60588 -0.7963,1.116549 -0.77899,0.848231 -2.42352,1.834949 z m 7.16668,-1.168481 0.24235,-0.03462 q 0.81361,-0.112521 0.97807,-0.285629 0.16445,-0.173108 0.20773,-0.441426 0.0433,-0.276974 0.0433,-0.770333 v -6.171314 q 0,-0.787643 -0.19907,-0.960751 -0.19908,-0.181764 -0.49336,-0.233697 -0.28563,-0.06059 -0.77899,-0.09521 v -0.744366 h 3.22847 v 1.800327 q 0.37219,-0.804954 0.83092,-1.263691 0.78765,-0.804954 1.81764,-1.332935 1.09924,0.62319 1.63588,1.168482 0.90016,0.934785 1.33293,1.973435 0.68378,-1.384867 2.12058,-2.449483 0.46739,-0.354873 1.02999,-0.709745 1.63588,0.908819 2.48411,1.878226 1.32428,1.506043 1.57529,4.457541 0.0866,1.029995 0.0866,1.990747 0,0.952096 0.0433,1.298313 0.0519,0.346216 0.17311,0.52798 0.12983,0.181764 0.34621,0.242352 0.21639,0.06059 0.5626,0.11252 l 0.32891,0.04328 v 0.718399 h -4.73451 v -0.718399 q 0.49335,-0.06059 0.78764,-0.112521 0.29428,-0.06059 0.45008,-0.216385 0.25966,-0.259663 0.25966,-1.393523 l 0.009,-1.306968 q 0.0173,-2.466795 -0.42412,-3.678554 -0.46739,-1.306968 -1.94747,-2.613936 -1.06461,0.891508 -1.54932,1.826293 -0.4847,0.934786 -0.61453,2.016713 -0.18176,1.523354 -0.18176,2.994775 0,1.462766 0.0519,1.731084 0.0519,0.259663 0.19042,0.398149 0.20773,0.20773 1.02134,0.320251 l 0.23369,0.03462 v 0.718399 h -4.74317 v -0.718399 q 0.49336,-0.06059 0.78765,-0.112521 0.29428,-0.05193 0.45008,-0.20773 0.25101,-0.242352 0.25101,-1.350245 v -1.047306 q 0,-2.787045 -0.28563,-3.773763 -0.27698,-0.995373 -0.70109,-1.609908 -0.41546,-0.614535 -1.11655,-1.211759 -1.17714,0.753022 -1.78302,1.687807 -0.77899,1.211759 -0.77899,2.882255 v 2.934187 q 0,1.142515 0.16446,1.367556 0.17311,0.225041 0.42411,0.294284 0.25101,0.06059 0.68378,0.121176 l 0.22504,0.02597 v 0.718399 h -4.72586 z"
         id="continuum-text"
         inkscape:label="Continuum"
         aria-label="Continuum" /><path
         style="-inkscape-font-specification:'Inter, system-ui, -apple-system, Segoe UI, Roboto, Arial, sans-serif, Normal';font-variant-caps:small-caps;dominant-baseline:middle;white-space:pre;inline-size:84.0663"
         d="m 52.474609,15.794922 v 3.90332 H 51.155273 V 9.7451172 h 3.670899 q 1.695312,0 2.59082,0.8544918 0.902344,0.854493 0.902344,2.180664 0,1.442383 -0.902344,2.228516 -0.895508,0.786133 -2.59082,0.786133 z m 0,-4.969727 v 3.896485 h 2.351563 q 1.162109,0 1.667969,-0.540039 Q 57,13.641602 57,12.793945 57,12.02832 56.494141,11.426758 55.988281,10.825195 54.826172,10.825195 Z m 13.979493,5.120118 q 0,1.804687 -0.950196,2.836914 -0.950195,1.02539 -2.522461,1.02539 -1.544922,0 -2.522461,-1.02539 Q 59.488281,17.75 59.488281,15.945313 v -0.451172 q 0,-1.804688 0.963867,-2.836914 0.970704,-1.032227 2.515625,-1.032227 1.579102,0 2.529297,1.032227 0.957032,1.032226 0.957032,2.836914 z m -1.250977,-0.464844 q 0,-1.34668 -0.587891,-2.071289 -0.58789,-0.72461 -1.647461,-0.72461 -1.018554,0 -1.620117,0.72461 -0.601562,0.724609 -0.601562,2.071289 v 0.464844 q 0,1.353515 0.608398,2.08496 0.608399,0.72461 1.626953,0.72461 1.059571,0 1.640625,-0.72461 0.581055,-0.731445 0.581055,-2.08496 z m 12.311523,-3.746094 -2.037109,7.963867 h -1.182617 l -1.777344,-6.27539 -0.0068,-0.03418 -0.0068,0.03418 -1.832031,6.27539 H 69.48933 l -2.03711,-7.963867 h 1.257813 l 1.360351,5.947266 0.0752,0.533203 0.0957,-0.416992 1.695312,-6.063477 h 1.12793 l 1.667969,6.083984 0.0957,0.416993 0.08203,-0.567383 1.34668,-5.933594 z m 1.196289,7.963867 v -7.963867 h 5.455079 v 1.045898 h -4.19043 v 2.283204 h 3.636719 v 1.032226 h -3.636719 v 2.563477 h 4.231445 v 1.039062 z m 11.771485,0 -1.777344,-3.069336 h -1.907226 v 3.069336 h -1.271485 v -7.963867 h 2.91211 q 1.449218,0 2.242187,0.628906 0.799805,0.628907 0.799805,1.797852 0,0.799805 -0.430664,1.34668 -0.423828,0.540039 -1.175782,0.820312 l 1.96875,3.301758 v 0.06836 z m -3.68457,-6.917969 v 2.809571 h 1.674804 q 0.868164,0 1.298828,-0.389649 0.4375,-0.396484 0.4375,-0.984375 0,-0.642578 -0.423828,-1.039062 -0.423828,-0.396485 -1.346679,-0.396485 z m 6.24121,6.917969 v -7.963867 h 5.455079 v 1.045898 h -4.19043 v 2.283204 h 3.636719 v 1.032226 h -3.636719 v 2.563477 h 4.231445 v 1.039062 z m 6.822266,0 v -7.963867 h 2.460942 q 1.69531,0 2.74804,1.025391 1.05957,1.02539 1.05957,2.741211 v 0.4375 q 0,1.71582 -1.05957,2.74121 -1.05957,1.018555 -2.83008,1.018555 z m 1.264652,-6.917969 v 5.878907 h 1.11425 q 1.31934,0 1.96875,-0.731446 0.65625,-0.731445 0.65625,-1.989257 v -0.451172 q 0,-1.298828 -0.64941,-2.00293 -0.64941,-0.704102 -1.89355,-0.704102 z m 17.0625,4.046875 q 0,1.394532 -0.90235,2.132813 -0.8955,0.738281 -2.38574,0.738281 h -3.48633 V 9.7451172 h 3.26074 q 1.53125,0 2.38575,0.6357418 0.86133,0.628907 0.86133,2.016602 0,0.69043 -0.39649,1.230469 -0.38965,0.533203 -1.07324,0.827148 0.84082,0.232422 1.28515,0.881836 0.45118,0.649414 0.45118,1.490234 z m -5.45508,-6.001953 v 3.158203 h 1.98242 q 0.84766,0 1.36719,-0.423828 0.51953,-0.423828 0.51953,-1.175781 0,-1.524414 -1.8457,-1.558594 z m 4.14258,6.015625 q 0,-0.833984 -0.45801,-1.3125 -0.45117,-0.485351 -1.45606,-0.485351 H 112.7334 V 18.625 h 2.16699 q 0.93652,0 1.45606,-0.478516 0.51953,-0.485351 0.51953,-1.305664 z m 9.29687,-5.106445 -2.93945,5.188477 v 2.77539 h -1.25781 V 16.84082 l -2.89844,-5.106445 h 1.42187 l 2.12598,3.944336 2.12598,-3.944336 z"
         id="poweredby-text"
         inkscape:label="Powered By"
         aria-label="Powered By" /><path
         d="m 27.709399,8.5113879 c -0.0084,6.692e-4 -0.01564,0.00279 -0.02322,0.00464 -0.05471,0.013408 -0.249116,0.1195136 -0.431813,0.2368008 -0.182696,0.1172874 -0.482174,0.3066577 -0.666293,0.4202054 -0.184119,0.1135479 -0.385937,0.2408946 -0.448064,0.2832323 -0.06213,0.042338 -0.192753,0.1204038 -0.290197,0.1717967 -0.09744,0.051393 -0.269424,0.1568659 -0.38306,0.2344792 -0.113635,0.077613 -0.401282,0.2578187 -0.638434,0.4016327 -0.23715,0.143814 -0.647114,0.396777 -0.910058,0.561822 -0.262943,0.165044 -0.617491,0.387035 -0.789336,0.494496 -0.171843,0.10746 -0.383036,0.240621 -0.468958,0.29484 -0.08592,0.05422 -0.4168,0.261709 -0.73594,0.459672 -0.31914,0.197963 -0.59486,0.379676 -0.612896,0.406276 -0.01804,0.0266 -0.03445,0.923295 -0.03482,1.991912 -4.05e-4,1.068618 0.01195,1.955477 0.02786,1.971019 l 0.0023,0.0023 h 0.0023 c 0.01026,0.0064 0.03036,0.0097 0.05572,0.0093 0.02536,-3.82e-4 0.05596,-0.0044 0.0859,-0.01161 0.06387,-0.01533 0.228753,-0.08278 0.36681,-0.150902 0.138056,-0.06812 0.285067,-0.123044 0.327342,-0.123044 0.0053,0 0.012,-0.0015 0.01857,-0.0023 0.04597,-0.0058 0.119424,-0.03003 0.17644,-0.06036 0.06516,-0.03467 0.46022,-0.202736 0.877556,-0.373773 0.417336,-0.17104 0.909344,-0.370968 1.093463,-0.443422 0.184119,-0.07245 0.576002,-0.229108 0.870591,-0.348236 0.294591,-0.119128 0.59215,-0.244436 0.661649,-0.278589 0.0695,-0.03415 0.146218,-0.06268 0.169475,-0.06268 0.02326,0 0.187205,-0.06609 0.364488,-0.146259 0.177284,-0.08016 0.542512,-0.236438 0.812552,-0.348237 0.270041,-0.111798 0.525493,-0.204509 0.566464,-0.204298 0.04097,2.63e-4 0.132477,0.02881 0.201978,0.06268 0.0695,0.03387 0.194988,0.09147 0.28091,0.127687 0.08592,0.03622 0.266612,0.10979 0.401633,0.16251 0.13502,0.05272 0.376714,0.153085 0.536284,0.225193 0.15957,0.07211 0.351201,0.15754 0.424849,0.188048 0.07365,0.03051 0.3044,0.124652 0.513068,0.208942 0.208668,0.08429 0.700676,0.283634 1.093463,0.443421 0.392787,0.159788 0.773728,0.316209 0.847375,0.348236 0.07365,0.03203 0.245718,0.101441 0.380739,0.153224 0.135021,0.05178 0.335271,0.133015 0.445742,0.181083 0.110472,0.04807 0.241099,0.103873 0.290198,0.123044 0.0491,0.01917 0.229787,0.0933 0.401632,0.164832 0.171844,0.07153 0.377567,0.143288 0.457351,0.160189 l 0.143938,0.03018 V 14.50571 c -4.05e-4,-1.086502 -0.0174,-1.998688 -0.03715,-2.029058 -6.17e-4,-9.49e-4 -0.0037,-0.0058 -0.0046,-0.007 -0.03682,-0.03949 -0.206479,-0.158679 -0.394668,-0.276268 -0.200736,-0.125428 -0.4663,-0.287937 -0.58968,-0.359844 -0.12338,-0.07191 -0.503386,-0.306634 -0.842733,-0.522355 -0.339346,-0.215721 -0.700662,-0.441538 -0.803265,-0.50146 -0.102603,-0.05992 -0.431179,-0.26365 -0.731297,-0.452708 -0.30008,-0.189033 -0.6566,-0.4122239 -0.791621,-0.4967931 C 29.844915,9.7756547 29.664226,9.662586 29.578303,9.6094936 29.49238,9.556401 29.281188,9.4237988 29.109345,9.3169749 28.937499,9.210151 28.626183,9.0190418 28.417515,8.8921264 28.208847,8.7652109 27.980866,8.6232723 27.911411,8.576392 27.844103,8.5309614 27.76797,8.506703 27.709434,8.5113879 Z m 0.02786,6.1637861 -0.160189,0.0534 c -0.0893,0.03012 -0.243075,0.09001 -0.341272,0.13233 -0.0982,0.04232 -0.409514,0.171153 -0.69183,0.285554 -0.282315,0.1144 -0.685138,0.27456 -0.893807,0.357522 -0.208668,0.08296 -0.458981,0.18512 -0.557178,0.227515 -0.0982,0.04239 -0.248386,0.107715 -0.334307,0.143938 -0.08592,0.03622 -0.462941,0.196425 -0.838089,0.355201 -0.37515,0.158777 -0.701389,0.287875 -0.724332,0.287875 -0.02294,0 -0.118371,0.03104 -0.211263,0.06965 -0.09289,0.03861 -0.228158,0.0967 -0.301805,0.127686 -0.07365,0.03099 -0.226157,0.09451 -0.336629,0.141617 -0.110472,0.04711 -0.380346,0.157231 -0.601288,0.246087 -0.220944,0.08886 -0.693389,0.282119 -1.049353,0.42717 -0.355963,0.14505 -0.817469,0.330345 -1.026137,0.41324 -0.208668,0.0829 -0.430802,0.175489 -0.492174,0.204299 l -0.111436,0.05108 -0.01161,3.424325 -0.01161,3.424326 0.05804,0.04411 c 0.03083,0.02399 0.245026,0.117825 0.478245,0.20662 0.233217,0.08879 0.466292,0.184077 0.51539,0.213585 0.0491,0.02951 0.188345,0.0892 0.311091,0.13233 0.122747,0.04313 0.464565,0.177424 0.759156,0.297162 0.294589,0.119738 0.594966,0.24262 0.668614,0.273946 0.07365,0.03133 0.376345,0.154619 0.670935,0.273946 0.294591,0.119325 0.775656,0.314309 1.070247,0.434135 0.294591,0.119827 0.786598,0.319396 1.093463,0.443421 0.306864,0.124025 0.618182,0.253083 0.691829,0.285554 0.07365,0.03247 0.295782,0.120489 0.492175,0.197334 0.196394,0.07684 0.596894,0.238256 0.891485,0.357522 0.294591,0.119267 0.576179,0.237279 0.624504,0.262339 0.04832,0.02506 0.137509,0.06001 0.199656,0.07893 0.04661,0.01419 0.114396,0.02066 0.171796,0.01857 0.01913,-6.95e-4 0.03805,-0.0019 0.0534,-0.0046 0.06137,-0.01115 0.261623,-0.07943 0.445742,-0.153224 0.184119,-0.0738 0.375751,-0.150298 0.424849,-0.169475 0.0491,-0.01918 0.179725,-0.07498 0.290197,-0.123044 0.11047,-0.04807 0.310722,-0.129299 0.445743,-0.181083 0.13502,-0.05178 0.307091,-0.117902 0.380738,-0.148581 0.07365,-0.03068 0.254338,-0.106886 0.401633,-0.169475 0.147296,-0.06259 0.558737,-0.232746 0.914701,-0.378417 0.355963,-0.145672 0.725963,-0.297196 0.82416,-0.334307 0.0982,-0.03711 0.259325,-0.101966 0.357523,-0.146259 0.0982,-0.0443 0.409513,-0.172935 0.691829,-0.285554 0.282316,-0.112621 0.74382,-0.299359 1.026137,-0.413241 0.282316,-0.113881 0.765704,-0.306319 1.072569,-0.429492 0.306865,-0.123173 0.618182,-0.251001 0.691829,-0.283232 0.07365,-0.03223 0.223836,-0.09345 0.334307,-0.136973 0.110472,-0.04352 0.226861,-0.09825 0.257695,-0.120722 l 0.05572,-0.04179 -0.01161,-3.417361 -0.01161,-3.417361 -0.111436,-0.06036 c -0.06137,-0.03245 -0.349295,-0.159071 -0.640755,-0.28091 -0.291459,-0.121841 -0.547781,-0.22055 -0.568787,-0.22055 -0.021,0 -0.187931,-0.06933 -0.371452,-0.153224 -0.183522,-0.08389 -0.354721,-0.150903 -0.380738,-0.150903 -0.02602,0 -0.08274,-0.01954 -0.125365,-0.04179 -0.04263,-0.02225 -0.168118,-0.07831 -0.27859,-0.125365 -0.110471,-0.04705 -0.532856,-0.215855 -0.937917,-0.376096 -0.405062,-0.160241 -0.773312,-0.312315 -0.819516,-0.336628 -0.0462,-0.02431 -0.166018,-0.07281 -0.26466,-0.106793 -0.09864,-0.03398 -0.381206,-0.147581 -0.629147,-0.253052 -0.247942,-0.10547 -0.681139,-0.28418 -0.963454,-0.396989 -0.282316,-0.112809 -0.574072,-0.229139 -0.64772,-0.260017 -0.07365,-0.03088 -0.395907,-0.163656 -0.715046,-0.29484 -0.31914,-0.131184 -0.718377,-0.293125 -0.886842,-0.359844 z m -6.407552,12.144167 v 0.0023 h -0.0023 l -0.0023,0.0023 h -0.0023 -0.0023 c -0.02945,0.01777 -0.04455,0.70695 -0.04411,1.975661 4.05e-4,1.071198 0.01679,1.96852 0.03482,1.994235 0.01804,0.02572 0.216926,0.162059 0.443421,0.304126 0.226496,0.142069 0.505021,0.318118 0.617539,0.390025 0.112518,0.07191 0.337215,0.214534 0.501461,0.315735 0.164245,0.101199 0.369106,0.222883 0.455029,0.271624 0.08592,0.04874 0.338558,0.205622 0.5595,0.348237 0.220943,0.142615 0.590942,0.372852 0.82416,0.510746 0.233217,0.137893 0.494472,0.301709 0.580394,0.364488 0.08592,0.06278 0.347177,0.22531 0.580394,0.362166 0.233217,0.136857 0.686103,0.414333 1.005242,0.617539 0.31914,0.203206 0.641399,0.399488 0.715046,0.434135 0.07365,0.03465 0.138509,0.06407 0.146259,0.065 h 0.0023 l 0.0023,-0.0023 c 0.01553,-0.0039 0.05987,-0.02232 0.106792,-0.04643 0.05362,-0.02756 0.239074,-0.13842 0.410919,-0.246087 0.171844,-0.107668 0.519108,-0.326816 0.773085,-0.48521 0.253977,-0.158394 0.649892,-0.404078 0.879878,-0.547892 0.229984,-0.143814 0.610985,-0.380861 0.845054,-0.524676 0.23407,-0.143813 0.675603,-0.416502 0.982026,-0.608253 0.306424,-0.191753 0.688568,-0.428801 0.849697,-0.524676 0.161129,-0.09588 0.448521,-0.272501 0.638434,-0.392347 0.189913,-0.119844 0.480434,-0.300543 0.645398,-0.403954 l 0.299484,-0.188048 v -1.977983 c 0,-1.265235 -0.01568,-1.988689 -0.04411,-2.005842 h -0.0023 c -0.03534,-0.0094 -0.248717,0.05594 -0.485209,0.148581 -0.244122,0.09563 -0.641361,0.255651 -0.882199,0.355201 -0.240838,0.09955 -0.497461,0.207263 -0.571108,0.239122 -0.07365,0.03186 -0.384964,0.159243 -0.69183,0.283233 -0.306865,0.123988 -0.798872,0.32165 -1.093463,0.441099 -0.29459,0.119451 -0.642037,0.266169 -0.770763,0.325021 -0.128727,0.05885 -0.386888,0.167607 -0.575751,0.241444 -0.188863,0.07384 -0.374867,0.149306 -0.413241,0.167153 -0.03837,0.01785 -0.141592,0.06297 -0.227514,0.09983 -0.08592,0.03686 -0.260407,0.10731 -0.387704,0.157867 -0.06365,0.02528 -0.130258,0.04811 -0.185726,0.065 -0.0416,0.01267 -0.0758,0.02177 -0.09983,0.02554 -0.008,0.0013 -0.01566,0.0023 -0.02089,0.0023 -0.04186,0 -0.15913,-0.03794 -0.260016,-0.08358 -0.100886,-0.04564 -0.644909,-0.274047 -1.209542,-0.506104 -0.564632,-0.232055 -1.106701,-0.457561 -1.204898,-0.501461 -0.0982,-0.0439 -0.328949,-0.13921 -0.513068,-0.211263 -0.184119,-0.07205 -0.586943,-0.232761 -0.893807,-0.357523 -0.306866,-0.124761 -0.637744,-0.26029 -0.73594,-0.301805 -0.0982,-0.04152 -0.33989,-0.138429 -0.536284,-0.215906 -0.196394,-0.07748 -0.39295,-0.158797 -0.436457,-0.181083 -0.04351,-0.02229 -0.188542,-0.081 -0.322699,-0.130009 -0.117913,-0.04307 -0.233317,-0.07158 -0.276267,-0.06733 h -0.0023 z"
         style="fill:#ffcc00"
         id="path3"
         sodipodi:nodetypes="scsssssssssssccccccssccssssscscsssssssssssscccscssssssssssssccssscssssssssccccccsssssssssssssscsssssssssssssscccccssssssssssssscccccccccssssssssssscccssssssssccsccssssssssssscssssssssssccc" /><path
         d="m 27.744258,1.6650586 c -0.002,3.615e-4 -0.0051,0.00171 -0.007,0.00232 l -0.0023,0.00232 -0.0023,0.00232 c -0.0318,0.02002 -0.09014,0.1168824 -0.13233,0.2275145 -0.045,0.1180075 -0.12069,0.3231995 -0.169475,0.455029 -0.04879,0.1318295 -0.108787,0.308455 -0.134652,0.3923465 -0.02586,0.083892 -0.06255,0.1733651 -0.08125,0.197334 -0.0187,0.023969 -0.0453,0.09098 -0.05804,0.1509024 -0.01274,0.059923 -0.07626,0.2477793 -0.141616,0.4155622 -0.06536,0.167783 -0.166605,0.4404702 -0.225193,0.6082531 -0.05859,0.167783 -0.132269,0.3734591 -0.162511,0.4573506 -0.03024,0.083891 -0.09194,0.2373431 -0.136973,0.3389502 -0.04503,0.101607 -0.08125,0.2189327 -0.08125,0.2623381 0,0.043405 -0.02229,0.1018545 -0.04875,0.1276867 -0.02646,0.025832 -0.06508,0.1118612 -0.0859,0.1926909 -0.02082,0.08083 -0.110801,0.3430258 -0.199656,0.5827157 -0.08886,0.2396899 -0.197171,0.5348396 -0.241444,0.6546846 -0.04427,0.1198449 -0.126111,0.345662 -0.181083,0.5014605 -0.05497,0.1557984 -0.139765,0.3905253 -0.190369,0.5223548 -0.05061,0.1318294 -0.120065,0.300566 -0.153224,0.3760954 -0.03316,0.075529 -0.06036,0.1616606 -0.06036,0.1903692 0,0.028709 -0.02802,0.1125184 -0.06268,0.1880477 -0.03466,0.075529 -0.104284,0.2610175 -0.155545,0.4109191 -0.05126,0.1499016 -0.09286,0.2918608 -0.09286,0.3157344 v 0.00232 0.00232 c 0,0 0,0.00232 0,0.00232 0.0011,0.00304 0.0036,0.00725 0.0046,0.00929 0.0033,0.00371 0.01069,0.011515 0.01393,0.013929 0.01279,0.00787 0.03167,0.01393 0.05108,0.01393 0.0388,0 0.183518,-0.072533 0.322699,-0.1601888 0.139181,-0.087656 0.383679,-0.2424845 0.543249,-0.3435933 0.15957,-0.1011088 0.440385,-0.2778283 0.624504,-0.3946681 0.184119,-0.1168396 0.356189,-0.2224946 0.380738,-0.2344792 0.02455,-0.011984 0.222252,-0.1365264 0.438778,-0.2762676 0.202996,-0.1310073 0.394373,-0.2293301 0.4411,-0.2298361 h 0.0023 0.0023 c 0.02896,0.013751 0.09139,0.051141 0.139295,0.081255 0.04791,0.030114 0.270041,0.1728476 0.492174,0.318056 0.222132,0.1452083 0.549833,0.3508845 0.728975,0.4573506 0.179143,0.1064661 0.359833,0.2125327 0.401633,0.2368008 0.0418,0.024268 0.2268,0.1405508 0.410919,0.257695 0.18412,0.1171442 0.37575,0.238197 0.424848,0.2693029 0.0491,0.031106 0.115033,0.059104 0.148581,0.060361 0.0071,-3.881e-4 0.01827,-0.00286 0.02322,-0.00464 l 0.0023,-0.00232 h 0.0023 l 0.0023,-0.00232 0.0023,-0.00232 0.0023,-0.00232 0.0023,-0.00232 v -0.00232 c 0.0073,-0.015828 0.0085,-0.044217 0,-0.078934 -0.01324,-0.05393 -0.113315,-0.3434643 -0.222871,-0.6430767 -0.109554,-0.2996124 -0.252255,-0.681914 -0.318056,-0.849697 -0.0658,-0.167783 -0.130833,-0.3444084 -0.143938,-0.3923464 -0.0131,-0.047938 -0.04946,-0.1439997 -0.08125,-0.2159067 -0.03179,-0.071907 -0.07147,-0.1940001 -0.08822,-0.2716244 -0.01571,-0.072773 -0.04737,-0.145074 -0.06965,-0.164832 l -0.0023,-0.00232 c -0.02266,-0.013674 -0.04179,-0.063722 -0.04179,-0.1114357 0,-0.047714 -0.03357,-0.1508056 -0.07429,-0.2275145 C 29.463294,6.273291 29.415754,6.1526042 29.39722,6.0806972 29.378686,6.0087902 29.319633,5.843396 29.267212,5.7115665 29.214791,5.5797371 29.124429,5.333779 29.065235,5.165996 29.006042,4.9982131 28.904332,4.7232044 28.840042,4.5554214 28.775751,4.3876385 28.706999,4.1859358 28.686818,4.1073571 28.666636,4.0287783 28.631567,3.9416265 28.607884,3.9123447 28.584201,3.8830629 28.553299,3.8097568 28.540558,3.7498343 28.52782,3.689912 28.4643,3.5020551 28.398942,3.3342721 28.333583,3.1664892 28.232336,2.893802 28.173749,2.7260191 28.115161,2.5582361 28.04148,2.3525599 28.011239,2.2686685 27.980997,2.1847769 27.9193,2.0313253 27.874266,1.9297183 c -0.04503,-0.101607 -0.08125,-0.2059301 -0.08125,-0.2321576 0,0 0,-0.00232 0,-0.00232 -9.29e-4,-0.00434 -0.0034,-0.010968 -0.0046,-0.013929 -6.96e-4,-0.0012 -0.0038,-0.00589 -0.0046,-0.00696 l -0.0023,-0.00232 c 0,0 -0.0023,-0.00232 -0.0023,-0.00232 -0.0023,-8.242e-4 -0.0079,-0.00179 -0.0093,-0.00232 -0.0044,-0.00115 -0.01074,-0.00218 -0.01625,-0.00232 0,0 -0.0023,0 -0.0023,0 0,0 -0.0023,0 -0.0023,0 -0.0018,2.611e-4 -0.0027,-3.616e-4 -0.0046,0 z m -12.035053,3.805064 c -0.0031,0.00116 -0.0075,0.00405 -0.0093,0.00464 h -0.0023 l -0.0023,0.00232 -0.0023,0.00232 c -7.4e-4,8.938e-4 -0.004,0.00596 -0.0046,0.00696 -0.01769,0.032058 -0.0089,0.1078008 0.02554,0.2042987 0.03379,0.09471 0.09291,0.2790896 0.13233,0.4109191 0.03942,0.1318295 0.123118,0.4099041 0.185726,0.6175394 0.06261,0.2076351 0.142308,0.4737342 0.17644,0.5896804 0.03413,0.1159462 0.105385,0.3476071 0.157867,0.51539 0.05248,0.167783 0.113148,0.3734591 0.134651,0.4573506 0.0215,0.083891 0.07763,0.2806579 0.125365,0.4364564 0.04773,0.1557985 0.138344,0.4598578 0.201978,0.6755788 0.06363,0.2157209 0.146803,0.4907297 0.183404,0.610575 0.0366,0.119845 0.138653,0.452955 0.227515,0.740583 0.08886,0.287627 0.191715,0.620737 0.227514,0.740582 0.0358,0.119845 0.09625,0.325522 0.134652,0.457351 0.0384,0.13183 0.09951,0.346415 0.136973,0.478245 0.03747,0.131829 0.103717,0.348737 0.146259,0.480566 0.04254,0.13183 0.112211,0.357647 0.155545,0.501461 0.04333,0.143813 0.103873,0.338259 0.134652,0.434135 0.03078,0.09587 0.09937,0.321693 0.153224,0.50146 0.05385,0.179767 0.129444,0.41381 0.167154,0.517712 0.03615,0.09962 0.04858,0.183227 0.03482,0.218228 -5.6e-4,0.0011 -0.004,0.006 -0.0046,0.007 l -0.0023,0.0023 c -0.0224,0.02187 -1.002759,0.06842 -2.17996,0.104471 -1.177201,0.03605 -3.115888,0.09577 -4.306525,0.13233 -1.190636,0.03656 -2.5125497,0.06564 -2.9367939,0.065 H 8.3289127 l -0.027859,0.07197 c -0.018941,0.04819 0.014464,0.09947 0.099828,0.160189 0.069799,0.04964 0.5092542,0.379989 0.9773837,0.733618 0.4681296,0.35363 0.9412027,0.713769 1.0516747,0.798622 0.110471,0.08485 0.325809,0.25176 0.478244,0.371453 0.152436,0.119694 0.384724,0.290919 0.51539,0.380738 0.130666,0.08982 0.326547,0.237208 0.436457,0.327342 0.10991,0.09013 0.304471,0.237709 0.431813,0.327343 0.127342,0.08963 0.733732,0.544812 1.348836,1.012207 0.615104,0.467396 1.185521,0.898888 1.267581,0.958811 0.08206,0.05992 0.265999,0.196266 0.408597,0.304127 0.142598,0.10786 0.351478,0.262689 0.464315,0.343593 0.112838,0.0809 0.281715,0.218376 0.373774,0.304127 0.08631,0.08039 0.158542,0.167696 0.167154,0.199655 v 0.0023 0.0023 0.0023 h -0.0023 v 0.0023 c -0.02232,0.04065 -0.208131,0.199305 -0.431813,0.36681 -0.238595,0.178671 -0.70557,0.52755 -1.037745,0.775406 -0.332174,0.247855 -0.753798,0.561242 -0.937917,0.696473 -0.184119,0.135231 -0.684061,0.511769 -1.109713,0.835768 -0.425653,0.323998 -0.817534,0.616841 -0.870591,0.652363 -0.05306,0.03552 -0.24957,0.183096 -0.436457,0.327342 -0.186887,0.144246 -0.506082,0.389772 -0.710402,0.54557 -0.204321,0.155799 -0.444139,0.329459 -0.531641,0.387704 -0.0875,0.05824 -0.2823479,0.205819 -0.4341351,0.327342 -0.1517874,0.121523 -0.4021007,0.315301 -0.5571784,0.429492 -0.1550777,0.114191 -0.437801,0.328776 -0.6268257,0.478244 -0.1661349,0.131369 -0.2994901,0.259204 -0.3250207,0.304127 -6.063e-4,0.0013 -0.00429,0.0058 -0.00464,0.007 l -0.00232,0.0023 v 0.0023 h 0.00232 c 0.00774,0.02692 0.6843833,0.0642 1.771363,0.09751 0.967711,0.02965 2.743769,0.0865 3.94668,0.125365 1.202911,0.03886 2.698493,0.0797 3.324498,0.09054 0.629266,0.01091 1.157956,0.03746 1.181682,0.06036 l 0.0023,0.0023 c 7.76e-4,9.5e-4 0.0039,0.0059 0.0046,0.007 0.01784,0.03453 7.87e-4,0.119558 -0.04643,0.239122 -0.04485,0.113579 -0.09795,0.275953 -0.1184,0.359845 -0.02045,0.08389 -0.0657,0.249286 -0.102149,0.36913 -0.03645,0.119846 -0.08682,0.276329 -0.111436,0.348237 -0.02462,0.07191 -0.07906,0.248532 -0.120722,0.392346 -0.04166,0.143814 -0.110683,0.369631 -0.153224,0.501461 -0.04254,0.13183 -0.109541,0.348737 -0.148581,0.480566 -0.03904,0.131829 -0.102668,0.346415 -0.141616,0.478245 -0.03895,0.13183 -0.102576,0.348738 -0.141616,0.480566 -0.03904,0.13183 -0.10604,0.346416 -0.148581,0.478245 -0.04254,0.13183 -0.109141,0.348737 -0.148581,0.480567 -0.03944,0.131829 -0.105789,0.355324 -0.14626,0.499138 -0.04047,0.143814 -0.109754,0.380862 -0.155545,0.524677 -0.04579,0.143813 -0.146034,0.465693 -0.22055,0.717367 -0.07452,0.251674 -0.166864,0.566965 -0.20662,0.698794 -0.03976,0.13183 -0.09791,0.326275 -0.130009,0.434135 -0.0321,0.107861 -0.102781,0.344909 -0.155545,0.524677 -0.05276,0.179767 -0.11677,0.385444 -0.141616,0.45735 -0.02485,0.07191 -0.06094,0.199341 -0.08126,0.283233 -0.02031,0.08389 -0.07778,0.289568 -0.127687,0.45735 -0.04991,0.167784 -0.09215,0.329884 -0.09286,0.359844 -7.15e-4,0.02996 0.02731,0.0534 0.06268,0.0534 0.03538,0 0.07696,-0.01801 0.09054,-0.03947 0.01358,-0.02145 0.254983,-0.189318 0.536284,-0.373774 0.281301,-0.184456 0.535431,-0.363211 0.564143,-0.396989 0.02871,-0.03378 0.07139,-0.06036 0.09519,-0.06036 h 0.0023 0.0023 c 0.02785,-0.0046 0.09437,-0.04454 0.155546,-0.09054 0.06526,-0.04907 0.279529,-0.196372 0.475923,-0.327342 0.196393,-0.130971 0.48268,-0.318412 0.636112,-0.417884 0.134254,-0.08704 0.250141,-0.174402 0.276267,-0.20662 0,0 0.0023,-0.0023 0.0023,-0.0023 0,0 0,-0.0023 0,-0.0023 v -0.0023 l 0.0023,-0.0023 v -0.0023 -0.0023 -0.0023 l 0.0023,-0.0023 c 0.01506,-0.01696 0.05543,-0.04045 0.09751,-0.0534 0.05523,-0.01699 0.169996,-0.08703 0.255374,-0.155546 0.08004,-0.06424 0.163225,-0.118955 0.190369,-0.125365 h 0.0023 0.0023 0.0023 c 0.02873,-0.0073 0.124617,-0.06833 0.220549,-0.141616 0.102329,-0.07817 0.25535,-0.179068 0.341272,-0.225193 0.08592,-0.04613 0.278925,-0.17383 0.429492,-0.283232 0.150567,-0.109404 0.372699,-0.265896 0.492174,-0.345915 0.119475,-0.08002 0.318354,-0.207981 0.4411,-0.285554 0.122745,-0.07757 0.412181,-0.269278 0.645398,-0.424849 0.233218,-0.15557 0.535915,-0.357318 0.670936,-0.450386 0.13502,-0.09307 0.360302,-0.24473 0.50146,-0.336628 0.127924,-0.08328 0.236464,-0.171348 0.255374,-0.204299 v -0.0023 -0.0023 -0.0023 -0.0023 -0.0023 l -0.0023,-0.0023 c -0.01922,-0.03261 -0.127676,-0.11635 -0.257695,-0.197334 -0.143468,-0.08936 -0.346371,-0.211702 -0.450386,-0.271625 -0.104015,-0.05992 -0.240929,-0.149537 -0.306448,-0.199655 -0.06552,-0.05012 -0.217852,-0.148501 -0.336629,-0.218229 -0.118778,-0.06973 -0.268966,-0.160707 -0.334307,-0.201977 -0.06534,-0.04127 -0.193186,-0.114413 -0.283232,-0.16251 -0.09005,-0.0481 -0.254324,-0.14875 -0.366809,-0.222872 L 20.607731,31.241944 V 28.89483 26.545395 l -0.09751,-0.08822 c -0.05037,-0.04582 -0.112643,-0.08597 -0.139295,-0.09054 h -0.0023 c -0.02366,0 -0.296673,-0.09834 -0.605932,-0.22055 -0.309258,-0.122214 -0.622825,-0.247815 -0.696473,-0.278589 -0.07365,-0.03077 -0.204274,-0.08212 -0.290197,-0.113757 -0.08592,-0.03164 -0.211079,-0.113819 -0.278589,-0.183405 l -0.123043,-0.127686 0.0023,-3.798099 0.0023,-3.7981 0.09751,-0.111435 c 0.05435,-0.06162 0.280518,-0.187317 0.50146,-0.27859 0.220944,-0.09127 0.471258,-0.194075 0.557179,-0.229836 0.08592,-0.03576 0.231913,-0.101213 0.322699,-0.146259 0.09079,-0.04505 0.196353,-0.08358 0.236801,-0.08358 0.04045,0 0.138471,-0.03029 0.215906,-0.06965 0.07743,-0.03936 0.169796,-0.08729 0.206621,-0.104471 l 0.06733,-0.03018 0.02322,-2.384259 0.02089,-2.384259 0.431814,-0.269303 c 0.237137,-0.148381 0.527955,-0.329725 0.645398,-0.401632 0.117444,-0.07191 0.264586,-0.162709 0.327342,-0.204299 0.06275,-0.04159 0.152879,-0.09415 0.201977,-0.116079 0.0491,-0.02193 0.166867,-0.0909 0.260017,-0.153224 0.09315,-0.06232 0.176919,-0.113757 0.188048,-0.113757 0.01113,0 0.122599,-0.07125 0.246087,-0.157867 l 0.225193,-0.157868 -0.0534,-0.06036 c -0.02907,-0.0342 -0.236425,-0.182697 -0.459672,-0.329664 C 22.418186,9.9129124 22.034906,9.6589843 21.789414,9.4957363 21.543921,9.3324885 21.1716,9.0829444 20.962932,8.9432011 20.754264,8.8034577 20.464829,8.606423 20.317534,8.5044231 20.170238,8.4024234 19.85159,8.188646 19.609453,8.0284999 19.367318,7.8683539 19.073057,7.67788 18.95709,7.605973 18.841124,7.5340661 18.678708,7.4247472 18.594924,7.3622075 18.51114,7.2996678 18.191387,7.0818911 17.884522,6.8793195 17.577657,6.6767482 17.066089,6.3388077 16.746949,6.1271287 16.42781,5.9154499 16.068883,5.6722186 15.950649,5.588523 15.83849,5.5091285 15.751509,5.466438 15.711526,5.4701226 Z m 24.028317,0.023216 c -0.03766,0.00653 -0.140472,0.059351 -0.236801,0.120722 -0.10275,0.065462 -0.389604,0.254744 -0.638433,0.422527 -0.248828,0.1677829 -0.485887,0.326589 -0.526998,0.350558 -0.04111,0.023969 -0.146139,0.093486 -0.232158,0.1555456 -0.08602,0.062059 -0.4168,0.2871295 -0.73594,0.499139 -0.319139,0.2120094 -0.796657,0.5280878 -1.06096,0.7034377 -0.264304,0.1753498 -0.492223,0.318056 -0.506104,0.318056 l -0.0023,0.00232 c -0.02226,0.00759 -0.11301,0.070202 -0.208942,0.1462593 -0.102328,0.081128 -0.333554,0.2432277 -0.513069,0.3598444 -0.179516,0.1166166 -0.455132,0.2923817 -0.615217,0.3923464 -0.160086,0.099965 -0.325898,0.2123608 -0.36681,0.2484087 -0.04091,0.036048 -0.285482,0.2052385 -0.543248,0.3760954 -0.257768,0.1708569 -0.599586,0.3960223 -0.759156,0.5014606 -0.15957,0.105438 -0.323848,0.21929 -0.366809,0.253052 -0.04296,0.03376 -0.07893,0.08442 -0.07893,0.111435 v 0.0023 l 0.0023,0.0023 c 3.25e-4,0.001 0.0018,0.0059 0.0023,0.007 0.01777,0.03314 0.09443,0.0977 0.185727,0.153224 0.104334,0.06346 0.306798,0.184976 0.450385,0.271625 0.143587,0.08665 0.348317,0.220412 0.455029,0.297162 0.106711,0.07675 0.28047,0.182222 0.385382,0.234479 0.104911,0.05226 0.242,0.130256 0.304127,0.171797 0.06213,0.04154 0.222954,0.1442 0.359844,0.229836 0.13689,0.08563 0.273202,0.184579 0.301805,0.218228 l 0.05108,0.06036 0.01161,2.344792 0.01161,2.344792 0.06733,0.03482 c 0.03683,0.01907 0.134673,0.06468 0.218228,0.10215 0.08356,0.03747 0.169324,0.06733 0.19037,0.06733 0.02104,0 0.123447,0.03838 0.227514,0.08358 0.104066,0.0452 0.440682,0.184106 0.747548,0.30877 0.306864,0.124663 0.604091,0.243285 0.659328,0.264659 l 0.09983,0.03947 v 3.874711 3.874712 l -0.174118,0.153224 c -0.09548,0.08422 -0.220639,0.166297 -0.278589,0.183404 -0.05795,0.01711 -0.176416,0.05945 -0.262338,0.09519 -0.08592,0.03573 -0.194666,0.08217 -0.243766,0.102149 -0.0491,0.01998 -0.190666,0.07807 -0.313413,0.130009 -0.122745,0.05194 -0.342558,0.138281 -0.489852,0.190369 -0.147296,0.05209 -0.308425,0.116285 -0.357523,0.143938 l -0.09054,0.05107 -0.02089,2.365687 -0.02322,2.365686 -0.266981,0.188048 c -0.147296,0.10362 -0.308424,0.206075 -0.357523,0.227515 -0.0491,0.02144 -0.229787,0.126691 -0.401632,0.234479 -0.171844,0.107789 -0.578923,0.364651 -0.903094,0.571108 -0.312271,0.198877 -0.536502,0.36571 -0.566464,0.417883 v 0.0023 0.0023 l -0.0023,0.0023 v 0.0023 h 0.0023 v 0.0023 c 0.01155,0.02911 0.07449,0.0851 0.141616,0.125365 0.06713,0.04026 0.312353,0.203676 0.54557,0.362166 0.233218,0.158492 0.561462,0.379331 0.728975,0.492175 0.167513,0.112844 0.41391,0.273632 0.545571,0.357522 0.131659,0.08389 0.434669,0.285225 0.675579,0.445743 0.240908,0.160518 0.610848,0.409428 0.819516,0.554857 0.208668,0.14543 0.458982,0.314407 0.557179,0.376095 0.0982,0.06169 0.237444,0.155568 0.311091,0.206621 0.07365,0.05105 0.342186,0.230758 0.596645,0.399311 0.254458,0.168553 0.570116,0.373459 0.701116,0.45735 0.131,0.08389 0.353487,0.231467 0.494496,0.327343 0.141009,0.09587 0.47638,0.327309 0.745226,0.513068 0.268846,0.185761 0.507601,0.336629 0.529319,0.336629 0.0014,2.6e-5 0.0063,1.07e-4 0.007,0 0.0013,-3.65e-4 0.0034,-0.0018 0.0046,-0.0023 0.01826,-0.0095 0.04077,-0.03414 0.05108,-0.06036 l 0.0023,-0.0023 c 0.01051,-0.03961 -0.018,-0.178246 -0.065,-0.313413 -0.04852,-0.139529 -0.124003,-0.371577 -0.167153,-0.51539 -0.04315,-0.143815 -0.104073,-0.338259 -0.134651,-0.434135 -0.03058,-0.09588 -0.08967,-0.301552 -0.13233,-0.457351 -0.04266,-0.155797 -0.112878,-0.392846 -0.155546,-0.524676 -0.04267,-0.13183 -0.102921,-0.317365 -0.134651,-0.413241 -0.03173,-0.09588 -0.07253,-0.24345 -0.09054,-0.327342 -0.01802,-0.08389 -0.05409,-0.211324 -0.07893,-0.283232 -0.02484,-0.07191 -0.079,-0.248533 -0.120721,-0.392347 -0.04172,-0.143814 -0.112394,-0.378541 -0.157868,-0.522354 -0.04547,-0.143815 -0.114498,-0.369631 -0.153224,-0.501461 -0.03872,-0.13183 -0.102576,-0.346415 -0.141616,-0.478245 -0.03904,-0.131829 -0.106039,-0.348736 -0.148581,-0.480566 -0.04254,-0.13183 -0.111036,-0.357647 -0.153224,-0.501461 -0.04219,-0.143814 -0.107086,-0.36963 -0.143938,-0.50146 -0.03685,-0.13183 -0.08702,-0.297223 -0.111435,-0.369131 -0.02442,-0.07191 -0.06928,-0.229213 -0.09983,-0.350558 -0.03055,-0.121345 -0.07222,-0.248304 -0.09286,-0.280911 -0.02064,-0.03261 -0.05348,-0.130167 -0.07197,-0.215906 -0.01849,-0.08574 -0.09508,-0.352312 -0.171797,-0.592002 -0.07672,-0.239691 -0.179502,-0.576534 -0.227514,-0.749869 -0.04801,-0.173335 -0.08822,-0.335435 -0.08822,-0.359845 l 0.0023,-0.0023 v -0.0023 h 0.0023 l 0.0023,-0.0023 c 0.04543,-0.02359 0.308016,-0.03684 0.740583,-0.03714 0.411199,-2.63e-4 1.753443,-0.04085 2.980904,-0.08822 1.227461,-0.04736 2.622917,-0.08788 3.101626,-0.09054 0.478708,-0.0027 1.443164,-0.02581 2.142815,-0.0534 l 1.272224,-0.05108 v -0.0534 -0.0023 l -0.0023,-0.0023 c -0.02067,-0.04196 -0.192177,-0.195162 -0.399311,-0.352879 -0.220942,-0.16823 -0.493139,-0.373753 -0.60361,-0.457351 -0.110472,-0.0836 -0.310722,-0.237544 -0.445743,-0.341272 -0.135021,-0.103727 -0.396275,-0.298275 -0.580394,-0.434134 -0.184119,-0.13586 -0.55644,-0.413521 -0.826481,-0.61754 -0.270041,-0.204018 -0.792551,-0.59874 -1.160789,-0.875234 -0.368238,-0.276495 -0.7883,-0.590074 -0.935595,-0.698795 -0.147296,-0.108721 -0.411382,-0.311017 -0.587359,-0.448064 -0.175977,-0.137047 -0.454531,-0.346792 -0.617539,-0.466637 -0.163008,-0.119846 -0.412082,-0.30538 -0.554857,-0.41324 -0.142776,-0.107861 -0.353896,-0.266667 -0.468959,-0.350558 -0.115062,-0.08389 -0.324446,-0.240644 -0.464315,-0.350559 -0.13987,-0.109916 -0.300182,-0.224303 -0.355201,-0.253051 -0.04814,-0.02516 -0.08814,-0.06214 -0.09751,-0.0859 l -0.0023,-0.0023 v -0.0023 -0.0023 -0.0023 l 0.0023,-0.0023 c 2.87e-4,-8.73e-4 0.0019,-0.006 0.0023,-0.007 0.01568,-0.0286 0.08196,-0.08463 0.162511,-0.134652 0.09206,-0.05716 0.240691,-0.169771 0.329663,-0.25073 0.08897,-0.08096 0.288738,-0.235733 0.443422,-0.343593 0.154683,-0.107861 0.311898,-0.225536 0.350558,-0.262339 0.03866,-0.0368 0.188452,-0.155325 0.331985,-0.262338 0.143531,-0.107011 0.358875,-0.264346 0.478245,-0.348236 0.119368,-0.08389 0.372585,-0.269427 0.564143,-0.413241 0.191559,-0.143815 0.490104,-0.370228 0.661649,-0.503782 0.171547,-0.133555 0.701378,-0.535998 1.17704,-0.893807 0.475662,-0.35781 1.106916,-0.831829 1.404553,-1.053996 0.297638,-0.222167 0.769504,-0.575418 1.047031,-0.784693 0.27753,-0.209275 0.608406,-0.454694 0.73594,-0.54557 0.127533,-0.09088 0.280689,-0.210544 0.33895,-0.266981 0.0528,-0.05115 0.08338,-0.11567 0.07661,-0.14626 v -0.0023 l -0.0023,-0.0023 v -0.0023 l -0.0023,-0.0023 h -0.0023 l -0.0023,-0.0023 c -0.05547,-0.02868 -0.383619,-0.04324 -1.014529,-0.04411 -0.544772,-7.91e-4 -1.411376,-0.01933 -1.926908,-0.04179 -0.515534,-0.02246 -1.90237,-0.06159 -3.080732,-0.0859 -1.178362,-0.02431 -2.60432,-0.06599 -3.168952,-0.09286 -0.564631,-0.02687 -1.035038,-0.05605 -1.04471,-0.065 v -0.0023 -0.0023 -0.0023 c -0.0015,-0.03097 0.01996,-0.138947 0.0534,-0.260017 0.03821,-0.138365 0.112313,-0.389394 0.164832,-0.557178 0.05252,-0.167782 0.111691,-0.36455 0.13233,-0.436456 0.02064,-0.07191 0.07049,-0.237302 0.109114,-0.369131 0.03863,-0.131828 0.100639,-0.337506 0.139295,-0.457351 0.03865,-0.119844 0.09037,-0.27633 0.116079,-0.348236 0.02571,-0.07191 0.06382,-0.190431 0.08358,-0.262338 0.01975,-0.07191 0.06951,-0.248533 0.111436,-0.392347 0.04193,-0.143814 0.104472,-0.3584 0.136973,-0.478245 0.0325,-0.119845 0.09951,-0.345662 0.148581,-0.50146 0.04907,-0.155799 0.108013,-0.343655 0.13233,-0.415562 0.02432,-0.07191 0.07548,-0.237302 0.113757,-0.369131 0.03827,-0.131829 0.103527,-0.3576466 0.143938,-0.5014605 0.04041,-0.1438141 0.108007,-0.3696311 0.150902,-0.5014606 0.0429,-0.1318295 0.109541,-0.3464153 0.148581,-0.4782448 0.03904,-0.1318294 0.102892,-0.3487368 0.141616,-0.4805663 0.03873,-0.1318295 0.107752,-0.3576466 0.153224,-0.5014605 0.04547,-0.1438141 0.116144,-0.3785407 0.157868,-0.5223548 0.04172,-0.1438139 0.09588,-0.3204395 0.120722,-0.3923464 0.02484,-0.071907 0.06092,-0.1993409 0.07893,-0.2832324 0.01801,-0.083892 0.05881,-0.2314663 0.09054,-0.3273422 0.03173,-0.095876 0.09557,-0.2835934 0.141616,-0.4178838 0.04604,-0.1342904 0.08358,-0.26734 0.08358,-0.2948403 0,-0.0275 -0.02503,-0.049206 -0.05572,-0.048753 0,0 -0.0023,0 -0.0023,0 0,0 -0.0023,0 -0.0023,0 z M 24.932828,33.951224 c -0.0044,7.81e-4 -0.01288,0.0031 -0.01625,0.0046 l -0.0023,0.0023 -0.0023,0.0023 -0.0023,0.0023 -0.0023,0.0023 v 0.0023 l -0.0023,0.0023 v 0.0023 0.0023 c -0.003,0.01247 9.5e-5,0.0286 0.0093,0.05107 0.01716,0.04194 0.109211,0.30243 0.204298,0.578073 0.09509,0.275643 0.224423,0.637803 0.287876,0.805587 0.06345,0.167782 0.131689,0.355639 0.153224,0.415562 0.02154,0.05992 0.112441,0.303559 0.201977,0.543249 0.08954,0.23969 0.213399,0.584031 0.273946,0.763799 0.06055,0.179767 0.132713,0.365478 0.160189,0.41324 0.02748,0.04776 0.0649,0.146147 0.08358,0.218229 0.01868,0.07208 0.08661,0.268672 0.150902,0.436456 0.06429,0.167782 0.165647,0.442792 0.225193,0.610575 0.05954,0.167783 0.177201,0.48966 0.262338,0.717367 0.08514,0.227705 0.179553,0.482573 0.208942,0.566464 0.02939,0.08389 0.08014,0.218451 0.113757,0.297162 0.03362,0.07871 0.06268,0.162522 0.06268,0.188048 0,0.02553 0.02526,0.110198 0.05804,0.185726 0.03279,0.07553 0.08285,0.200689 0.111436,0.278589 0.02859,0.0779 0.07652,0.205333 0.104471,0.283233 0.02795,0.0779 0.0676,0.185191 0.08822,0.239122 0.01805,0.04719 0.04649,0.08832 0.06733,0.09751 h 0.0023 0.0023 0.0023 0.0023 0.0023 0.0023 l 0.0023,-0.0023 c 0.02193,-0.01327 0.05523,-0.07113 0.07893,-0.139295 0.02709,-0.0779 0.122224,-0.338384 0.211264,-0.578072 0.08904,-0.239691 0.178868,-0.483328 0.199655,-0.543249 0.02079,-0.05992 0.08992,-0.245459 0.155546,-0.413241 0.06563,-0.167784 0.13125,-0.344409 0.143938,-0.392346 0.01268,-0.04794 0.04946,-0.146321 0.08126,-0.218229 0.03179,-0.07191 0.07147,-0.194 0.08822,-0.271624 0.01571,-0.07277 0.04737,-0.145074 0.06965,-0.164832 v -0.0023 c 0.02266,-0.01367 0.04179,-0.06372 0.04179,-0.111435 0,-0.04771 0.03357,-0.148484 0.07429,-0.225193 0.04072,-0.07671 0.09058,-0.199718 0.109114,-0.271625 0.01853,-0.07191 0.07527,-0.237301 0.127687,-0.36913 0.05242,-0.13183 0.143217,-0.377787 0.201977,-0.545571 0.05876,-0.167782 0.16089,-0.442792 0.225193,-0.610575 0.0643,-0.167783 0.132622,-0.369485 0.153224,-0.448064 0.0206,-0.07858 0.05757,-0.16573 0.08125,-0.195012 0.02368,-0.02928 0.05226,-0.102588 0.065,-0.162511 0.01274,-0.05992 0.07626,-0.245457 0.141616,-0.41324 0.06536,-0.167783 0.166605,-0.442793 0.225193,-0.610575 0.05859,-0.167783 0.132294,-0.37346 0.162511,-0.45735 0.03022,-0.08389 0.08097,-0.214668 0.113757,-0.290198 0.03278,-0.07553 0.06036,-0.168296 0.06036,-0.20662 0,-0.03832 -0.02139,-0.06965 -0.04643,-0.06965 h -0.0023 -0.0023 c -0.03259,0.0058 -0.130158,0.0552 -0.227514,0.113757 -0.103847,0.06246 -0.259993,0.156729 -0.345915,0.211264 -0.08592,0.05453 -0.302586,0.191089 -0.480567,0.301805 -0.177982,0.110714 -0.469737,0.290383 -0.647719,0.401632 -0.177982,0.11125 -0.472888,0.299228 -0.657007,0.415563 -0.184119,0.116334 -0.367779,0.21114 -0.408597,0.211263 -0.04082,1.21e-4 -0.175695,-0.06372 -0.299483,-0.141616 -0.12379,-0.0779 -0.418212,-0.26014 -0.654685,-0.403955 -0.236475,-0.143813 -0.645989,-0.39467 -0.907736,-0.559499 -0.261747,-0.164832 -0.564714,-0.355982 -0.673258,-0.424849 -0.108543,-0.06887 -0.224775,-0.125365 -0.260016,-0.125365 -0.004,0 -0.0083,-1.1e-4 -0.01161,0 z"
         style="fill:#0066ff"
         id="path2" /><path
         d="m 27.741936,-0.52186655 c 0,0 0,0.002322 0,0.002322 -0.01973,0.0112238 -0.05281,0.060725 -0.07429,0.1184004 -0.02455,0.0659147 -0.147212,0.4046404 -0.273947,0.75219081 C 27.266967,0.69859666 27.05289,1.2865745 26.917776,1.6580938 26.782661,2.0296132 26.545509,2.6869236 26.390778,3.1183655 26.236047,3.5498074 25.956383,4.3144107 25.770917,4.8177596 25.585453,5.3211084 25.243709,6.2511059 25.011762,6.8862843 24.779813,7.5214626 24.434295,8.4683069 24.24332,8.9896326 l -0.348236,0.9472033 h -0.07197 c -0.04073,0 -0.245575,-0.1123226 -0.452708,-0.2507303 C 23.163273,9.547698 22.674375,9.2206809 22.281588,8.9594522 21.888801,8.6982236 21.033093,8.1292182 20.382538,7.6941929 19.731985,7.2591676 18.48242,6.422433 17.603611,5.8369317 16.724803,5.2514302 15.666484,4.5422169 15.251854,4.2605812 14.837224,3.9789455 14.474002,3.7498343 14.446267,3.7498343 c 0,0 -0.0023,0 -0.0023,0 0,0 -0.0023,0 -0.0023,0 0,0 -0.0023,0 -0.0023,0 0,0 -0.0023,0 -0.0023,0 0,0 -0.0023,0.00232 -0.0023,0.00232 0,0 -0.0023,0 -0.0023,0 0,0 -0.0023,0.00232 -0.0023,0.00232 -0.0012,9.682e-4 -0.0036,0.00347 -0.0046,0.00464 -0.0093,0.013741 -0.01481,0.04111 -0.007,0.067326 0.01256,0.041946 0.135789,0.4589136 0.273946,0.926309 0.138158,0.4673954 0.349819,1.1715758 0.468959,1.5670642 0.119139,0.3954884 0.311927,1.0326577 0.42717,1.4161617 0.115242,0.3835038 0.287639,0.962572 0.385381,1.2861534 0.09774,0.3235815 0.224734,0.746165 0.280911,0.937917 0.05618,0.1917523 0.232826,0.7797293 0.392347,1.3070473 0.15952,0.527318 0.431314,1.434402 0.605931,2.015129 0.174617,0.580725 0.318056,1.084139 0.318056,1.119 0,0.03486 -0.03365,0.07169 -0.07661,0.08358 -0.04296,0.01188 -0.91276,0.04319 -1.931552,0.06965 -1.018792,0.02646 -2.80613,0.07708 -3.972217,0.111435 -1.166087,0.03436 -2.6530497,0.07267 -3.3036037,0.0859 -0.6505539,0.01323 -1.3787841,0.03609 -1.6181388,0.05107 -0.238732,0.01495 -0.3929584,0.03912 -0.4271701,0.065 0,0 -0.00232,0.0023 -0.00232,0.0023 0,0 0,0.0023 0,0.0023 0,0 -0.00232,0.0023 -0.00232,0.0023 0,0 0,0.0023 0,0.0023 0,0 -0.00232,0 -0.00232,0 0,0 0,0.0023 0,0.0023 0,0 0,0.0023 0,0.0023 0,0 0.00232,0 0.00232,0 0,0 0,0.0023 0,0.0023 0.02294,0.04027 0.2103662,0.194623 0.4341348,0.355201 0.2386868,0.171283 0.7067483,0.513303 1.0400664,0.761477 0.333318,0.248175 0.8523933,0.638243 1.1538235,0.865948 0.3014302,0.227705 0.7406352,0.55954 0.9773837,0.738261 0.2367484,0.178722 1.1436314,0.86198 2.0151284,1.518311 0.871497,0.656332 1.971063,1.482633 2.442299,1.834046 0.471235,0.351411 0.857647,0.658539 0.858983,0.684865 0,0 0,0.0023 0,0.0023 0,0 0,0.0023 0,0.0023 0,0 -0.0023,0.0023 -0.0023,0.0023 -0.02537,0.04402 -0.246548,0.229463 -0.513068,0.429491 -0.284288,0.213365 -1.212769,0.914026 -2.063882,1.555457 -0.851112,0.64143 -1.787182,1.345611 -2.080132,1.567064 -0.292951,0.221454 -0.6762836,0.511247 -0.8520188,0.643077 -0.1757352,0.131829 -0.5185326,0.386697 -0.7614771,0.566464 -0.2429444,0.179768 -0.7250028,0.541928 -1.0725684,0.805587 -0.3475656,0.263659 -0.8543789,0.645961 -1.1259646,0.849697 -0.2715858,0.203737 -0.4958054,0.384048 -0.4968174,0.399311 -0.00101,0.01526 0.2949054,0.03877 0.6570062,0.0534 0.3621007,0.01463 1.6128399,0.04759 2.7789271,0.07197 1.166087,0.02438 3.414931,0.08618 4.998354,0.136973 1.583424,0.05079 2.896435,0.108405 2.918222,0.127686 0,0 0.0023,0.0023 0.0023,0.0023 0,0 0.0023,0.0023 0.0023,0.0023 0,0 0.0023,0.0023 0.0023,0.0023 0.01461,0.03111 0.01125,0.108318 -0.01161,0.192691 -0.02476,0.09138 -0.209797,0.714849 -0.410919,1.385981 -0.201122,0.671132 -0.46305,1.545351 -0.582716,1.940838 -0.119665,0.395489 -0.400114,1.325527 -0.624504,2.068525 -0.224389,0.742998 -0.46646,1.518831 -0.536284,1.72261 -0.06982,0.203777 -0.329584,1.042744 -0.578073,1.864226 -0.248488,0.82148 -0.441229,1.51235 -0.42717,1.534562 0,0 0.0023,0 0.0023,0 0,0 0.0023,0.0023 0.0023,0.0023 0,0 0.0023,0 0.0023,0 0,0 0.0023,0 0.0023,0 0.05407,-0.0085 0.301994,-0.152854 0.585037,-0.341271 0.312323,-0.207909 0.973306,-0.652823 1.469558,-0.988992 0.496251,-0.336169 1.300366,-0.876674 1.785292,-1.200255 0.484926,-0.323582 1.173166,-0.78038 1.529919,-1.016851 0.356754,-0.236471 1.270355,-0.846782 2.03138,-1.3558 0.761025,-0.509019 1.527733,-1.019101 1.704037,-1.13293 0.165284,-0.106716 0.319597,-0.185689 0.357523,-0.183404 0,0 0.0023,0.0023 0.0023,0.0023 0,0 0.0023,0 0.0023,0 0,0 0.0023,0 0.0023,0 0,0 0.0023,0.0023 0.0023,0.0023 0.03079,0.03818 0.126808,0.262349 0.22055,0.51539 0.09999,0.269911 0.321299,0.872154 0.492174,1.33955 0.170876,0.467394 0.503092,1.368342 0.73594,2.00352 0.232846,0.635178 0.537877,1.469115 0.6779,1.852618 0.140024,0.383504 0.410089,1.139198 0.601288,1.6785 0.1912,0.539302 0.511345,1.427838 0.710403,1.975662 0.199056,0.547823 0.37281,1.016537 0.387703,1.040066 0.0031,0.0048 0.0079,0.0085 0.01161,0.01161 0.0052,0.0034 0.01497,0.009 0.02089,0.0093 0.01057,-9.18e-4 0.02404,-0.008 0.03482,-0.01857 0.02244,-0.02191 0.13111,-0.282632 0.239122,-0.580395 0.108012,-0.297763 0.350104,-0.96351 0.538606,-1.478844 0.1885,-0.515333 0.653727,-1.789673 1.033102,-2.832323 0.379374,-1.042652 0.798406,-2.189556 0.930952,-2.549091 0.132547,-0.359536 0.414631,-1.124138 0.626825,-1.699394 0.212193,-0.575255 0.405044,-1.101839 0.429492,-1.167753 0.02139,-0.05768 0.05534,-0.104856 0.08126,-0.116079 0,0 0.0023,-0.0023 0.0023,-0.0023 8.78e-4,-2.05e-4 0.0061,1.04e-4 0.007,0 0,0 0.0023,0 0.0023,0 0.02631,0 0.229793,0.119463 0.452708,0.266982 0.222916,0.147519 0.967906,0.645527 1.655284,1.10507 0.687377,0.459545 1.852082,1.238206 2.588558,1.729575 0.736476,0.491369 1.679046,1.120294 2.096383,1.39991 0.417336,0.279617 0.900723,0.606303 1.072569,0.724332 0.171843,0.118028 0.594228,0.403151 0.937917,0.633791 0.364807,0.244812 0.572221,0.365218 0.624504,0.364487 0,0 0.0023,0 0.0023,0 0,0 0.0023,0 0.0023,0 0,0 0.0023,0 0.0023,0 0,0 0.0023,0 0.0023,0 0,0 0,-0.0023 0,-0.0023 0,0 0.0023,0 0.0023,0 0,0 0,-0.0023 0,-0.0023 0,0 0,-0.0023 0,-0.0023 0,0 0.0023,0 0.0023,0 0.0073,-0.03368 -0.07789,-0.353635 -0.188048,-0.710402 -0.110158,-0.356767 -0.294004,-0.951779 -0.408597,-1.323299 -0.114594,-0.37152 -0.355187,-1.156264 -0.533963,-1.743504 -0.178775,-0.587241 -0.45837,-1.51956 -0.622182,-2.070846 -0.163814,-0.551287 -0.33501,-1.119124 -0.380739,-1.262938 -0.04573,-0.143814 -0.188343,-0.615589 -0.315734,-1.047031 -0.127393,-0.431441 -0.347859,-1.16399 -0.489853,-1.629747 -0.141994,-0.465756 -0.249688,-0.869241 -0.239122,-0.896128 l 0.02089,-0.04875 2.152101,-0.07661 c 1.183725,-0.04201 3.035991,-0.09574 4.116156,-0.118401 1.080166,-0.02266 2.634815,-0.0603 3.454506,-0.08358 0.81969,-0.02328 1.501007,-0.05451 1.515989,-0.06965 0,0 0.0023,0 0.0023,0 0,0 0,-0.0023 0,-0.0023 0,0 0,-0.0023 0,-0.0023 0,0 0,-0.0023 0,-0.0023 0,0 0,-0.0023 0,-0.0023 -0.0086,-0.02584 -0.0609,-0.08081 -0.130009,-0.13233 -0.08506,-0.0634 -0.290865,-0.232281 -0.459672,-0.376095 C 48.4116,27.815421 47.963382,27.46217 47.586772,27.174542 47.210163,26.886914 46.576657,26.40623 46.177575,26.106617 45.778494,25.807005 45.035263,25.248077 44.526935,24.864573 44.018608,24.48107 43.228302,23.88186 42.769501,23.53431 42.3107,23.186759 41.840454,22.833509 41.724792,22.749617 c -0.115662,-0.08389 -0.477729,-0.353474 -0.803266,-0.601288 -0.305191,-0.232326 -0.552165,-0.449017 -0.575751,-0.501461 0,0 0,-0.0023 0,-0.0023 0,0 -0.0023,-0.0023 -0.0023,-0.0023 0,0 0,-0.0023 0,-0.0023 0,0 0,-0.0023 0,-0.0023 0.0075,-0.03202 0.667065,-0.548328 1.464914,-1.149181 0.79785,-0.600852 1.898713,-1.432011 2.446942,-1.845653 0.548228,-0.413642 1.201365,-0.906844 1.450985,-1.095784 0.249621,-0.18894 0.694401,-0.520801 0.988992,-0.738261 0.294591,-0.217462 0.774543,-0.581453 1.065604,-0.810231 0.291062,-0.228776 0.733006,-0.570285 0.982027,-0.756834 0.241239,-0.180717 0.445257,-0.353227 0.464315,-0.392346 0,0 0,-0.0023 0,-0.0023 0,0 0.0023,0 0.0023,0 l 0.01161,-0.05804 -0.879877,-0.02786 c -0.483701,-0.01581 -1.252331,-0.02825 -1.708681,-0.02786 -0.45635,3.73e-4 -1.743194,-0.02935 -2.860182,-0.065 -1.116989,-0.03565 -2.873825,-0.08646 -3.904892,-0.113757 -1.2871,-0.03408 -1.891677,-0.06541 -1.92923,-0.09983 l -0.05572,-0.05108 0.552536,-1.829402 c 0.303361,-1.006432 0.716871,-2.37942 0.919344,-3.0505517 0.202473,-0.6711319 0.39354,-1.3083013 0.424848,-1.4161617 0.03131,-0.1078605 0.147,-0.5027743 0.257695,-0.877556 0.110696,-0.3747816 0.272245,-0.9046581 0.359845,-1.1770393 0.0876,-0.2723812 0.290332,-0.905848 0.448064,-1.409197 0.153821,-0.490867 0.252942,-0.8731043 0.243766,-0.926309 0,0 0,-0.00232 0,-0.00232 0,0 0,-0.00232 0,-0.00232 0,0 -0.0023,0 -0.0023,0 -0.02468,-0.00877 -0.411037,0.2250563 -0.856662,0.5200332 -0.445624,0.2949768 -1.0191,0.6837088 -1.276867,0.865948 -0.257766,0.1822393 -0.941405,0.6462151 -1.518311,1.03078 -0.576907,0.3845648 -1.736633,1.1591284 -2.57695,1.7202883 -0.840315,0.5611598 -1.889967,1.2625576 -2.333184,1.5577778 -0.443219,0.2952202 -0.840009,0.5299474 -0.879878,0.5223548 -0.0014,-2.745e-4 -0.0031,-0.00178 -0.0046,-0.00232 C 31.592808,9.9031692 31.513152,9.7575034 31.426278,9.5235953 31.346159,9.3078742 30.91796,8.1319188 30.47211,6.9095 30.02626,5.6870813 29.568536,4.4417932 29.457581,4.1421808 29.346628,3.8425684 29.090123,3.1271568 28.886473,2.5519008 28.682825,1.976645 28.38203,1.1314778 28.217859,0.67606696 28.053689,0.22065607 27.889102,-0.23427219 27.85105,-0.33614042 c -0.0333,-0.0891347 -0.07316,-0.16373716 -0.09519,-0.18108297 0,0 -0.0023,-0.002322 -0.0023,-0.002322 0,0 -0.0023,0 -0.0023,0 0,0 -0.0023,-0.002322 -0.0023,-0.002322 0,0 -0.0023,0 -0.0023,0 0,0 -0.0023,0 -0.0023,0 z m 0.007,2.18692515 c 0.0071,-0.00104 0.01505,7.867e-4 0.02089,0.00232 0.0027,0.00106 0.0094,0.00302 0.01161,0.00464 0,0 0.0023,0.00232 0.0023,0.00232 8.48e-4,0.00108 0.0039,0.00577 0.0046,0.00696 0.0016,0.00395 0.0046,0.011333 0.0046,0.016251 0,0.026228 0.03622,0.1305506 0.08125,0.2321576 0.04503,0.101607 0.106731,0.2550586 0.136973,0.3389502 0.03024,0.083891 0.103922,0.2895676 0.16251,0.4573506 0.05859,0.1677829 0.159834,0.4404701 0.225193,0.608253 0.06536,0.167783 0.128878,0.3556399 0.141616,0.4155622 0.01274,0.059923 0.04364,0.1332286 0.06733,0.1625104 0.02368,0.029282 0.05875,0.1164336 0.07893,0.1950124 0.02018,0.078579 0.08893,0.2802814 0.153224,0.4480643 0.06429,0.167783 0.166,0.4427917 0.225193,0.6105746 0.05919,0.167783 0.149556,0.4137411 0.201977,0.5455705 0.05242,0.1318295 0.111474,0.2972237 0.130008,0.3691307 0.01853,0.071907 0.06607,0.1925938 0.106793,0.2693029 0.04072,0.076709 0.07429,0.1798008 0.07429,0.2275145 0,0.047714 0.01913,0.097762 0.04179,0.1114357 0,0 0.0023,0.00232 0.0023,0.00232 0.02228,0.019758 0.05394,0.092059 0.06965,0.164832 0.01675,0.077624 0.05643,0.1997175 0.08822,0.2716244 0.03179,0.071907 0.06815,0.1679687 0.08125,0.2159067 0.0131,0.047938 0.07814,0.2245634 0.143938,0.3923464 0.0658,0.167783 0.208502,0.5500846 0.318056,0.849697 0.109556,0.2996124 0.209634,0.5891465 0.222871,0.6430767 0.0091,0.037031 0.0089,0.063406 0,0.078934 0,0 0,0.00232 0,0.00232 0,0 -0.0023,0.00232 -0.0023,0.00232 0,0 -0.0023,0.00232 -0.0023,0.00232 0,0 -0.0023,0.00232 -0.0023,0.00232 0,0 -0.0023,0.00232 -0.0023,0.00232 0,0 -0.0023,0 -0.0023,0 0,0 -0.0023,0.00232 -0.0023,0.00232 -0.0057,0.00204 -0.01554,0.00493 -0.02322,0.00464 -0.03355,-0.00126 -0.09948,-0.029255 -0.148581,-0.060361 C 30.311576,9.2347944 30.119946,9.1137416 29.935826,8.9965974 29.751707,8.8794532 29.566706,8.7631703 29.524907,8.7389024 29.483107,8.7146343 29.302417,8.6085677 29.123274,8.5021016 28.944132,8.3956355 28.616431,8.1899593 28.394299,8.044751 28.172166,7.8995426 27.950034,7.7568089 27.902125,7.726695 c -0.04791,-0.030114 -0.110331,-0.067504 -0.139295,-0.081255 0,0 -0.0023,0 -0.0023,0 0,0 -0.0023,0 -0.0023,0 -0.04673,5.06e-4 -0.238104,0.098829 -0.4411,0.2298361 -0.216526,0.1397412 -0.414228,0.2642838 -0.438778,0.2762676 -0.02455,0.011985 -0.196619,0.1176396 -0.380738,0.2344792 -0.184119,0.1168398 -0.464934,0.2935593 -0.624504,0.3946681 -0.15957,0.1011088 -0.404068,0.255937 -0.543249,0.3435933 -0.139181,0.087656 -0.283898,0.1601888 -0.322699,0.1601888 -0.0194,0 -0.03829,-0.00606 -0.05108,-0.01393 -0.0043,-0.00322 -0.01124,-0.010038 -0.01393,-0.013929 -0.0014,-0.00271 -0.0042,-0.0087 -0.0046,-0.011608 0,0 0,-0.00232 0,-0.00232 0,0 0,-0.00232 0,-0.00232 0,-0.023874 0.0416,-0.1658328 0.09286,-0.3157344 0.05126,-0.1499016 0.120885,-0.3353897 0.155545,-0.4109191 0.03466,-0.075529 0.06268,-0.159339 0.06268,-0.1880477 0,-0.028709 0.0272,-0.1148399 0.06036,-0.1903692 0.03316,-0.075529 0.102618,-0.244266 0.153224,-0.3760954 0.0506,-0.1318295 0.135398,-0.3665564 0.190369,-0.5223548 0.05497,-0.1557985 0.136812,-0.3816156 0.181083,-0.5014605 0.04427,-0.119845 0.152588,-0.4149947 0.241444,-0.6546846 0.08886,-0.2396899 0.178836,-0.5018859 0.199656,-0.5827157 0.02082,-0.08083 0.05944,-0.1668585 0.0859,-0.1926909 0.02646,-0.025832 0.04875,-0.084281 0.04875,-0.1276867 0,-0.043405 0.03622,-0.1607311 0.08125,-0.2623381 0.04503,-0.1016071 0.106731,-0.2550588 0.136973,-0.3389502 0.03024,-0.083892 0.103922,-0.2895676 0.162511,-0.4573506 0.05859,-0.1677829 0.159834,-0.4404701 0.225193,-0.6082531 0.06536,-0.1677829 0.128878,-0.3556396 0.141616,-0.4155622 0.01274,-0.059922 0.03934,-0.1269334 0.05804,-0.1509024 0.0187,-0.023969 0.05539,-0.1134425 0.08125,-0.197334 0.02586,-0.083892 0.08587,-0.260517 0.134652,-0.3923465 0.04878,-0.1318295 0.124472,-0.3370215 0.169475,-0.455029 0.04219,-0.1106321 0.100526,-0.2074942 0.13233,-0.2275145 0,0 0.0023,-0.00232 0.0023,-0.00232 0,0 0.0023,-0.00232 0.0023,-0.00232 0.0038,-0.00123 0.008,-0.0018 0.01161,-0.00232 z m -12.037375,3.805064 c 0.03998,-0.00368 0.126964,0.039006 0.239123,0.1184004 0.118234,0.083696 0.477161,0.3269269 0.7963,0.5386057 0.31914,0.211679 0.830708,0.5496195 1.137573,0.7521908 0.306865,0.2025716 0.626618,0.4203483 0.710402,0.482888 0.08378,0.06254 0.2462,0.1718586 0.362166,0.2437655 0.115967,0.071907 0.410228,0.2623809 0.652363,0.4225269 0.242137,0.1601461 0.560785,0.3739235 0.708081,0.4759232 0.147295,0.1019999 0.43673,0.2990346 0.645398,0.438778 0.208668,0.1397433 0.580989,0.3892874 0.826482,0.5525352 0.245492,0.163248 0.628772,0.4171761 0.852018,0.5641427 0.223247,0.146967 0.430604,0.295467 0.459672,0.329664 l 0.0534,0.06036 -0.225193,0.157868 c -0.123488,0.08662 -0.234955,0.157867 -0.246087,0.157867 -0.01113,0 -0.0949,0.05143 -0.188048,0.113757 -0.09315,0.06232 -0.210918,0.131298 -0.260017,0.153224 -0.0491,0.02193 -0.139222,0.07449 -0.201977,0.116079 -0.06276,0.04159 -0.209898,0.132392 -0.327342,0.204299 -0.117443,0.07191 -0.408261,0.253251 -0.645398,0.401632 l -0.431814,0.269303 -0.02089,2.384259 -0.02322,2.384259 -0.06733,0.03018 c -0.03683,0.01718 -0.129186,0.06511 -0.206621,0.104471 -0.07744,0.03936 -0.175459,0.06965 -0.215906,0.06965 -0.04045,0 -0.146015,0.03853 -0.236801,0.08358 -0.09079,0.04505 -0.236777,0.110498 -0.322699,0.146259 -0.08592,0.03576 -0.336235,0.138565 -0.557179,0.229836 -0.220942,0.09127 -0.447107,0.216968 -0.50146,0.27859 l -0.09751,0.111435 -0.0023,3.7981 -0.0023,3.798099 0.123043,0.127686 c 0.06751,0.06959 0.192667,0.15177 0.278589,0.183405 0.08592,0.03164 0.21655,0.08298 0.290197,0.113757 0.07365,0.03077 0.387215,0.156375 0.696473,0.278589 0.309259,0.122214 0.582267,0.22055 0.605932,0.22055 0,0 0.0023,0 0.0023,0 0.02665,0.0046 0.08892,0.04472 0.139295,0.09054 l 0.09751,0.08822 v 2.349435 2.347114 l 0.204299,0.134651 c 0.112485,0.07412 0.276763,0.174773 0.366809,0.222872 0.09005,0.0481 0.217892,0.121239 0.283232,0.16251 0.06534,0.04127 0.215529,0.13225 0.334307,0.201977 0.118777,0.06973 0.27111,0.168112 0.336629,0.218229 0.06552,0.05012 0.202433,0.139734 0.306448,0.199655 0.104015,0.05992 0.306918,0.182264 0.450386,0.271625 0.130019,0.08098 0.238476,0.164721 0.257695,0.197334 0,0 0.0023,0.0023 0.0023,0.0023 0,0 0,0.0023 0,0.0023 0,0 0,0.0023 0,0.0023 0,0 0,0.0023 0,0.0023 0,0 0,0.0023 0,0.0023 0,0 0,0.0023 0,0.0023 -0.01891,0.03295 -0.12745,0.121016 -0.255374,0.204299 -0.141158,0.0919 -0.36644,0.24356 -0.50146,0.336628 -0.135021,0.09307 -0.437718,0.294816 -0.670936,0.450386 -0.233217,0.155571 -0.522653,0.347276 -0.645398,0.424849 -0.122746,0.07757 -0.321625,0.205534 -0.4411,0.285554 -0.119475,0.08002 -0.341607,0.236511 -0.492174,0.345915 -0.150567,0.109402 -0.343571,0.237106 -0.429492,0.283232 -0.08592,0.04613 -0.238943,0.147023 -0.341272,0.225193 -0.09593,0.07328 -0.191821,0.134303 -0.220549,0.141616 0,0 -0.0023,0 -0.0023,0 0,0 -0.0023,0 -0.0023,0 0,0 -0.0023,0 -0.0023,0 -0.02714,0.0064 -0.110327,0.06113 -0.190369,0.125365 -0.08538,0.06852 -0.200139,0.138557 -0.255374,0.155546 -0.04488,0.0138 -0.08474,0.03581 -0.09751,0.0534 0,0 -0.0023,0.0023 -0.0023,0.0023 0,0 0,0.0023 0,0.0023 0,0 0,0.0023 0,0.0023 0,0 0,0.0023 0,0.0023 0,0 -0.0023,0.0023 -0.0023,0.0023 0,0 0,0.0023 0,0.0023 -4.79e-4,8.73e-4 -0.0016,0.0036 -0.0023,0.0046 -0.02613,0.03222 -0.142013,0.119583 -0.276267,0.20662 -0.153432,0.09947 -0.439719,0.286913 -0.636112,0.417884 -0.196394,0.13097 -0.410668,0.278275 -0.475923,0.327342 -0.06118,0.046 -0.127694,0.08595 -0.155546,0.09054 0,0 -0.0023,0 -0.0023,0 0,0 -0.0023,0 -0.0023,0 -0.0238,0 -0.06647,0.02658 -0.09519,0.06036 -0.02871,0.03378 -0.282842,0.212533 -0.564143,0.396989 -0.281301,0.184456 -0.522703,0.352319 -0.536284,0.373774 -0.01358,0.02146 -0.05517,0.03947 -0.09054,0.03947 -0.03538,0 -0.0634,-0.02343 -0.06268,-0.0534 7.15e-4,-0.02996 0.04296,-0.19206 0.09286,-0.359844 0.04991,-0.167782 0.107373,-0.373459 0.127687,-0.45735 0.02031,-0.08389 0.05641,-0.211326 0.08126,-0.283233 0.02485,-0.07191 0.08885,-0.277583 0.141616,-0.45735 0.05276,-0.179768 0.123449,-0.416816 0.155545,-0.524677 0.0321,-0.10786 0.09025,-0.302305 0.130009,-0.434135 0.03976,-0.131829 0.132104,-0.44712 0.20662,-0.698794 0.07452,-0.251674 0.174759,-0.573554 0.22055,-0.717367 0.04579,-0.143815 0.115075,-0.380863 0.155545,-0.524677 0.04047,-0.143814 0.10682,-0.367309 0.14626,-0.499138 0.03944,-0.13183 0.106039,-0.348737 0.148581,-0.480567 0.04254,-0.131829 0.10954,-0.346415 0.148581,-0.478245 0.03904,-0.131828 0.102668,-0.348736 0.141616,-0.480566 0.03895,-0.13183 0.102576,-0.346416 0.141616,-0.478245 0.03904,-0.131829 0.106039,-0.348736 0.148581,-0.480566 0.04254,-0.13183 0.111563,-0.357647 0.153224,-0.501461 0.04166,-0.143814 0.0961,-0.320439 0.120722,-0.392346 0.02462,-0.07191 0.07498,-0.228391 0.111436,-0.348237 0.03645,-0.119844 0.0817,-0.28524 0.102149,-0.36913 0.02045,-0.08389 0.07355,-0.246266 0.1184,-0.359845 0.04722,-0.119564 0.06428,-0.204588 0.04643,-0.239122 -6.96e-4,-0.0011 -0.0039,-0.006 -0.0046,-0.007 0,0 -0.0023,-0.0023 -0.0023,-0.0023 -0.02373,-0.0229 -0.552416,-0.04945 -1.181682,-0.06036 -0.626005,-0.01085 -2.121587,-0.05168 -3.324498,-0.09054 -1.202911,-0.03886 -2.978969,-0.09571 -3.94668,-0.125365 -1.0869797,-0.03331 -1.7636258,-0.07058 -1.771363,-0.09751 0,0 -0.00232,0 -0.00232,0 0,0 0,-0.0023 0,-0.0023 0,0 0.00232,-0.0023 0.00232,-0.0023 0.011388,-0.03589 0.1524532,-0.170965 0.3296638,-0.311092 0.1890247,-0.149468 0.471748,-0.364053 0.6268257,-0.478244 0.1550777,-0.114191 0.405391,-0.307969 0.5571784,-0.429492 0.1517872,-0.121523 0.3466331,-0.269099 0.4341351,-0.327342 0.0875,-0.05824 0.32732,-0.231905 0.531641,-0.387704 0.20432,-0.155798 0.523515,-0.401324 0.710402,-0.54557 0.186887,-0.144246 0.3834,-0.29182 0.436457,-0.327342 0.05306,-0.03552 0.444938,-0.328365 0.870591,-0.652363 0.425652,-0.323999 0.925594,-0.700537 1.109713,-0.835768 0.184119,-0.135231 0.605743,-0.448618 0.937917,-0.696473 0.332175,-0.247856 0.79915,-0.596735 1.037745,-0.775406 0.223682,-0.167505 0.409493,-0.326158 0.431813,-0.36681 0,0 0,-0.0023 0,-0.0023 0,0 0.0023,0 0.0023,0 0,0 0,-0.0023 0,-0.0023 0,0 0,-0.0023 0,-0.0023 0,0 0,-0.0023 0,-0.0023 -0.0086,-0.03196 -0.08085,-0.119263 -0.167154,-0.199655 -0.09206,-0.08575 -0.260936,-0.223223 -0.373774,-0.304127 -0.112837,-0.0809 -0.321717,-0.235733 -0.464315,-0.343593 -0.142598,-0.107861 -0.326538,-0.244204 -0.408597,-0.304127 -0.08206,-0.05992 -0.652477,-0.491415 -1.267581,-0.958811 -0.615104,-0.467395 -1.221494,-0.922573 -1.348836,-1.012207 -0.127342,-0.08963 -0.321903,-0.23721 -0.431813,-0.327343 -0.10991,-0.09013 -0.305791,-0.237521 -0.436457,-0.327342 -0.130666,-0.08982 -0.362954,-0.261044 -0.51539,-0.380738 C 10.755749,17.401734 10.540411,17.234828 10.42994,17.149974 10.319468,17.065121 9.8463949,16.704982 9.3782653,16.351352 8.9101358,15.997723 8.4706809,15.667378 8.4008816,15.617734 8.3155178,15.55702 8.2821124,15.50574 8.3010538,15.457545 l 0.027859,-0.07197 h 0.7707634 c 0.4242442,6.35e-4 1.7461579,-0.02845 2.9367939,-0.065 1.190637,-0.03656 3.129324,-0.09628 4.306525,-0.13233 1.177201,-0.03605 2.157562,-0.0826 2.17996,-0.104471 0,0 0.0023,-0.0023 0.0023,-0.0023 6.29e-4,-0.001 0.0041,-0.0058 0.0046,-0.007 0.01376,-0.035 0.0013,-0.118608 -0.03482,-0.218228 -0.03771,-0.103902 -0.113302,-0.337945 -0.167154,-0.517712 -0.05385,-0.179767 -0.122445,-0.405585 -0.153224,-0.50146 -0.03078,-0.09588 -0.09132,-0.290322 -0.134652,-0.434135 -0.04333,-0.143814 -0.113004,-0.369631 -0.155545,-0.501461 -0.04254,-0.131829 -0.108792,-0.348737 -0.146259,-0.480566 -0.03747,-0.13183 -0.09858,-0.346415 -0.136973,-0.478245 -0.0384,-0.131829 -0.09885,-0.337506 -0.134652,-0.457351 -0.0358,-0.119845 -0.138653,-0.452955 -0.227514,-0.740582 -0.08886,-0.287628 -0.190913,-0.620738 -0.227515,-0.740583 C 16.975008,9.8843167 16.891838,9.6093079 16.828205,9.393587 16.764571,9.177866 16.673959,8.8738067 16.626227,8.7180082 16.578496,8.5622097 16.522366,8.3654432 16.500862,8.2815518 16.479359,8.1976603 16.418693,7.9919842 16.366211,7.8242012 16.313729,7.6564183 16.242475,7.4247574 16.208344,7.3088112 16.174212,7.192865 16.094511,6.9267659 16.031904,6.7191308 15.969296,6.5114955 15.885599,6.2334209 15.846178,6.1015914 15.806756,5.9697619 15.747638,5.7853822 15.713848,5.6906723 15.67942,5.5941744 15.670623,5.5184319 15.68831,5.4863736 c 6.75e-4,-0.001 0.0039,-0.00607 0.0046,-0.00696 0,0 0.0023,-0.00232 0.0023,-0.00232 0,0 0.0023,-0.00232 0.0023,-0.00232 0,0 0.0023,0 0.0023,0 0.0024,-7.86e-4 0.0086,-0.00437 0.01161,-0.00464 z m 24.025996,0.023216 c 0.0025,-4.356e-4 0.005,2.8e-5 0.007,0 0.03069,-4.526e-4 0.05572,0.021253 0.05572,0.048753 0,0.0275 -0.03753,0.1605499 -0.08358,0.2948403 -0.04604,0.1342904 -0.109886,0.3220078 -0.141616,0.4178838 -0.03173,0.095876 -0.07253,0.2434507 -0.09054,0.3273422 -0.01801,0.083892 -0.05409,0.2113254 -0.07893,0.2832324 -0.02484,0.071907 -0.079,0.2485325 -0.120722,0.3923464 -0.04172,0.1438141 -0.112394,0.3785407 -0.157868,0.5223548 -0.04547,0.1438139 -0.114498,0.369631 -0.153224,0.5014605 -0.03872,0.1318295 -0.102576,0.3487369 -0.141616,0.4805663 -0.03904,0.1318295 -0.105684,0.3464153 -0.148581,0.4782448 -0.0429,0.1318295 -0.110493,0.3576465 -0.150902,0.5014606 -0.04041,0.1438139 -0.105663,0.3696315 -0.143938,0.5014605 -0.03827,0.131829 -0.08944,0.297224 -0.113757,0.369131 -0.02432,0.07191 -0.08326,0.259763 -0.13233,0.415562 -0.04907,0.155798 -0.116079,0.381615 -0.148581,0.50146 -0.0325,0.119845 -0.09504,0.334431 -0.136973,0.478245 -0.04193,0.143814 -0.09168,0.32044 -0.111436,0.392347 -0.01975,0.07191 -0.05786,0.19043 -0.08358,0.262338 -0.02571,0.07191 -0.07742,0.228392 -0.116079,0.348236 -0.03866,0.119845 -0.10067,0.325523 -0.139295,0.457351 -0.03862,0.131829 -0.08847,0.297224 -0.109114,0.369131 -0.02064,0.07191 -0.07981,0.268674 -0.13233,0.436456 -0.05252,0.167784 -0.126623,0.418813 -0.164832,0.557178 -0.03343,0.12107 -0.05488,0.229052 -0.0534,0.260017 0,0 0,0.0023 0,0.0023 0,0 0,0.0023 0,0.0023 0,0 0,0.0023 0,0.0023 0.0097,0.009 0.480079,0.03813 1.04471,0.065 0.564632,0.02687 1.99059,0.06855 3.168952,0.09286 1.178362,0.02431 2.565198,0.06344 3.080732,0.0859 0.515532,0.02246 1.382136,0.041 1.926908,0.04179 0.63091,8.68e-4 0.959059,0.01543 1.014529,0.04411 0,0 0.0023,0.0023 0.0023,0.0023 0,0 0.0023,0 0.0023,0 0,0 0.0023,0.0023 0.0023,0.0023 0,0 0,0.0023 0,0.0023 0,0 0.0023,0.0023 0.0023,0.0023 0,0 0,0.0023 0,0.0023 0.0068,0.03059 -0.02381,0.09511 -0.07661,0.14626 -0.05826,0.05644 -0.211417,0.176104 -0.33895,0.266981 -0.127534,0.09088 -0.45841,0.336295 -0.73594,0.54557 -0.277527,0.209275 -0.749393,0.562526 -1.047031,0.784693 -0.297637,0.222167 -0.928891,0.696186 -1.404553,1.053996 -0.475662,0.357809 -1.005493,0.760252 -1.17704,0.893807 -0.171545,0.133554 -0.47009,0.359967 -0.661649,0.503782 -0.191558,0.143814 -0.444775,0.329349 -0.564143,0.413241 -0.11937,0.08389 -0.334714,0.241225 -0.478245,0.348236 -0.143533,0.107013 -0.293326,0.225536 -0.331985,0.262338 -0.03866,0.0368 -0.195875,0.154478 -0.350558,0.262339 -0.154684,0.10786 -0.354449,0.262634 -0.443422,0.343593 -0.08897,0.08096 -0.237604,0.193566 -0.329663,0.25073 -0.08055,0.05002 -0.146835,0.106053 -0.162511,0.134652 -4.25e-4,9.49e-4 -0.002,0.0061 -0.0023,0.007 0,0 -0.0023,0.0023 -0.0023,0.0023 0,0 0,0.0023 0,0.0023 0,0 0,0.0023 0,0.0023 0,0 0,0.0023 0,0.0023 0,0 0.0023,0.0023 0.0023,0.0023 0.0094,0.02376 0.04936,0.06074 0.09751,0.0859 0.05502,0.02875 0.215331,0.143135 0.355201,0.253051 0.139869,0.109915 0.349253,0.266667 0.464315,0.350559 0.115063,0.08389 0.326183,0.242697 0.468959,0.350558 0.142775,0.10786 0.391849,0.293394 0.554857,0.41324 0.163008,0.119845 0.441562,0.32959 0.617539,0.466637 0.175977,0.137047 0.440063,0.339343 0.587359,0.448064 0.147295,0.108721 0.567357,0.4223 0.935595,0.698795 0.368238,0.276494 0.890748,0.671216 1.160789,0.875234 0.270041,0.204019 0.642362,0.48168 0.826481,0.61754 0.184119,0.135859 0.445373,0.330407 0.580394,0.434134 0.135021,0.103728 0.335271,0.257674 0.445743,0.341272 0.110471,0.0836 0.382668,0.289121 0.60361,0.457351 0.207134,0.157717 0.378641,0.310921 0.399311,0.352879 0,0 0.0023,0.0023 0.0023,0.0023 0,0 0,0.0023 0,0.0023 v 0.0534 l -1.272224,0.05108 c -0.699651,0.02758 -1.664107,0.05073 -2.142815,0.0534 -0.478709,0.0027 -1.874165,0.04318 -3.101626,0.09054 -1.227461,0.04737 -2.569705,0.08796 -2.980904,0.08822 -0.432567,3.01e-4 -0.695154,0.01355 -0.740583,0.03714 0,0 -0.0023,0.0023 -0.0023,0.0023 0,0 -0.0023,0 -0.0023,0 0,0 0,0.0023 0,0.0023 0,0 -0.0023,0.0023 -0.0023,0.0023 0,0.02441 0.04021,0.18651 0.08822,0.359845 0.04801,0.173335 0.150797,0.510178 0.227514,0.749869 0.07672,0.23969 0.153304,0.506264 0.171797,0.592002 0.01849,0.08574 0.05133,0.1833 0.07197,0.215906 0.02064,0.03261 0.06231,0.159566 0.09286,0.280911 0.03055,0.121345 0.07541,0.278652 0.09983,0.350558 0.02442,0.07191 0.07458,0.237301 0.111435,0.369131 0.03685,0.13183 0.101749,0.357646 0.143938,0.50146 0.04219,0.143814 0.110683,0.369631 0.153224,0.501461 0.04254,0.13183 0.109541,0.348737 0.148581,0.480566 0.03904,0.13183 0.102892,0.346415 0.141616,0.478245 0.03873,0.13183 0.107752,0.357646 0.153224,0.501461 0.04547,0.143813 0.116144,0.37854 0.157868,0.522354 0.04172,0.143814 0.09588,0.32044 0.120721,0.392347 0.02484,0.07191 0.06092,0.199342 0.07893,0.283232 0.01801,0.08389 0.05881,0.231466 0.09054,0.327342 0.03173,0.09588 0.09198,0.281411 0.134651,0.413241 0.04267,0.13183 0.112887,0.368879 0.155546,0.524676 0.04266,0.155799 0.101753,0.361474 0.13233,0.457351 0.03058,0.09588 0.0915,0.29032 0.134651,0.434135 0.04315,0.143813 0.118638,0.375861 0.167153,0.51539 0.047,0.135167 0.07552,0.273806 0.065,0.313413 0,0 -0.0023,0.0023 -0.0023,0.0023 -0.01178,0.02997 -0.03548,0.05685 -0.05572,0.06268 -0.0014,2.13e-4 -0.0056,0 -0.007,0 -0.02172,0 -0.260473,-0.150868 -0.529319,-0.336629 -0.268846,-0.185759 -0.604217,-0.417193 -0.745226,-0.513068 -0.141009,-0.09588 -0.363496,-0.243451 -0.494496,-0.327343 -0.131,-0.08389 -0.446658,-0.288797 -0.701116,-0.45735 -0.254459,-0.168553 -0.522998,-0.348259 -0.596645,-0.399311 -0.07365,-0.05105 -0.212895,-0.144934 -0.311091,-0.206621 -0.0982,-0.06169 -0.348511,-0.230665 -0.557179,-0.376095 -0.208668,-0.145429 -0.578608,-0.394339 -0.819516,-0.554857 -0.24091,-0.160518 -0.54392,-0.361851 -0.675579,-0.445743 -0.131661,-0.08389 -0.378058,-0.244678 -0.545571,-0.357522 -0.167513,-0.112844 -0.495757,-0.333683 -0.728975,-0.492175 -0.233217,-0.15849 -0.478443,-0.321903 -0.54557,-0.362166 -0.06713,-0.04026 -0.130066,-0.09626 -0.141616,-0.125365 0,0 0,-0.0023 0,-0.0023 0,0 -0.0023,0 -0.0023,0 0,0 0,-0.0023 0,-0.0023 0,0 0.0023,-0.0023 0.0023,-0.0023 0,0 0,-0.0023 0,-0.0023 0,0 0,-0.0023 0,-0.0023 0.02996,-0.05217 0.254193,-0.219006 0.566464,-0.417883 0.324171,-0.206457 0.73125,-0.463319 0.903094,-0.571108 0.171845,-0.107788 0.352534,-0.21304 0.401632,-0.234479 0.0491,-0.02144 0.210227,-0.123895 0.357523,-0.227515 l 0.266981,-0.188048 0.02322,-2.365686 0.02089,-2.365687 0.09054,-0.05107 c 0.0491,-0.02765 0.210227,-0.09185 0.357523,-0.143938 0.147294,-0.05209 0.367107,-0.138425 0.489852,-0.190369 0.122747,-0.05194 0.264315,-0.110032 0.313413,-0.130009 0.0491,-0.01997 0.157843,-0.06642 0.243766,-0.102149 0.08592,-0.03573 0.204388,-0.07808 0.262338,-0.09519 0.05795,-0.01711 0.183106,-0.09918 0.278589,-0.183404 l 0.174118,-0.153224 v -3.874712 -3.874711 l -0.09983,-0.03947 c -0.05524,-0.02137 -0.352464,-0.139996 -0.659328,-0.264659 -0.306866,-0.124664 -0.643482,-0.26357 -0.747548,-0.30877 -0.104067,-0.0452 -0.20647,-0.08358 -0.227514,-0.08358 -0.02105,0 -0.106813,-0.02985 -0.19037,-0.06733 -0.08356,-0.03747 -0.181403,-0.08308 -0.218228,-0.10215 l -0.06733,-0.03482 -0.01161,-2.344792 -0.01161,-2.344792 -0.05108,-0.06036 c -0.0286,-0.03365 -0.164915,-0.132593 -0.301805,-0.218228 -0.13689,-0.08564 -0.297718,-0.188296 -0.359844,-0.229836 -0.06213,-0.04154 -0.199216,-0.11954 -0.304127,-0.171797 -0.104912,-0.05226 -0.278671,-0.15773 -0.385382,-0.234479 -0.106712,-0.07675 -0.311442,-0.210513 -0.455029,-0.297162 -0.143587,-0.08665 -0.346051,-0.208166 -0.450385,-0.271625 -0.09129,-0.05553 -0.167961,-0.120087 -0.185727,-0.153224 -4.81e-4,-0.0011 -0.002,-0.0059 -0.0023,-0.007 0,0 -0.0023,-0.0023 -0.0023,-0.0023 0,0 0,-0.0023 0,-0.0023 0,-0.02702 0.03597,-0.07767 0.07893,-0.111435 0.04296,-0.03376 0.207239,-0.147614 0.366809,-0.253052 0.15957,-0.1054383 0.501388,-0.3306037 0.759156,-0.5014606 0.257766,-0.1708569 0.502337,-0.3400475 0.543248,-0.3760954 0.04091,-0.036048 0.206724,-0.1484442 0.36681,-0.2484087 0.160085,-0.099965 0.435701,-0.2757298 0.615217,-0.3923464 0.179515,-0.1166167 0.410741,-0.2787168 0.513069,-0.3598444 0.09593,-0.076057 0.186684,-0.1386698 0.208942,-0.1462593 0,0 0.0023,-0.00232 0.0023,-0.00232 0.01388,0 0.2418,-0.1427062 0.506104,-0.318056 0.264303,-0.1753499 0.741821,-0.4914283 1.06096,-0.7034377 0.31914,-0.2120095 0.64992,-0.4370798 0.73594,-0.499139 0.08602,-0.062059 0.191047,-0.1315767 0.232158,-0.1555456 0.04111,-0.023969 0.27817,-0.1827751 0.526998,-0.350558 0.248829,-0.167783 0.535683,-0.3570649 0.638433,-0.422527 0.09633,-0.061371 0.199146,-0.1141877 0.236801,-0.120722 z M 27.709434,8.5113879 c 0.05854,-0.00468 0.134669,0.019573 0.201977,0.065004 0.06945,0.04688 0.297436,0.1888189 0.506104,0.3157344 0.208668,0.1269154 0.519984,0.3180246 0.69183,0.4248485 0.171843,0.1068239 0.383035,0.2394261 0.468958,0.2925187 0.08592,0.053092 0.266612,0.1661611 0.401633,0.2507303 0.135021,0.084569 0.491541,0.3077601 0.791657,0.4968171 0.300118,0.189058 0.628694,0.392785 0.731297,0.452708 0.102603,0.05992 0.463919,0.285739 0.803265,0.50146 0.339347,0.215721 0.719353,0.450448 0.842733,0.522355 0.12338,0.07191 0.388944,0.234416 0.58968,0.359844 0.188189,0.117589 0.357846,0.23678 0.394668,0.276268 9.27e-4,0.0011 0.004,0.006 0.0046,0.007 0.01974,0.03037 0.03674,0.942556 0.03715,2.029058 v 1.975661 l -0.143938,-0.03018 c -0.07978,-0.0169 -0.285507,-0.08865 -0.457351,-0.160189 -0.171845,-0.07154 -0.352534,-0.145661 -0.401632,-0.164832 -0.0491,-0.01917 -0.179726,-0.07498 -0.290198,-0.123044 -0.110471,-0.04807 -0.310721,-0.129299 -0.445742,-0.181083 -0.135021,-0.05178 -0.307091,-0.121194 -0.380739,-0.153224 -0.07365,-0.03203 -0.454588,-0.188448 -0.847375,-0.348236 -0.392787,-0.159787 -0.884795,-0.359133 -1.093463,-0.443421 -0.208668,-0.08429 -0.439421,-0.178436 -0.513068,-0.208942 -0.07365,-0.03051 -0.265279,-0.115938 -0.424849,-0.188048 -0.15957,-0.07211 -0.401264,-0.172471 -0.536284,-0.225193 -0.135021,-0.05272 -0.315711,-0.126294 -0.401633,-0.16251 -0.08592,-0.03622 -0.211411,-0.09381 -0.28091,-0.127687 -0.0695,-0.03387 -0.161005,-0.06242 -0.201978,-0.06268 -0.04097,-2.11e-4 -0.296423,0.0925 -0.566464,0.204298 -0.27004,0.111799 -0.635268,0.268074 -0.812552,0.348237 -0.177283,0.08016 -0.34123,0.146259 -0.364488,0.146259 -0.02326,0 -0.09997,0.02853 -0.169475,0.06268 -0.0695,0.03415 -0.367058,0.159461 -0.661649,0.278589 -0.294589,0.119128 -0.686472,0.275783 -0.870591,0.348236 -0.184119,0.07245 -0.676127,0.272382 -1.093463,0.443422 -0.417336,0.171037 -0.812395,0.339103 -0.877556,0.373773 -0.06516,0.03467 -0.152739,0.06268 -0.195012,0.06268 -0.04228,0 -0.189286,0.05492 -0.327342,0.123044 -0.138057,0.06812 -0.302944,0.135569 -0.36681,0.150902 -0.05987,0.01436 -0.121093,0.01509 -0.141616,0.0023 0,0 -0.0023,0 -0.0023,0 0,0 -0.0023,-0.0023 -0.0023,-0.0023 -0.01591,-0.01554 -0.02826,-0.902401 -0.02786,-1.971019 3.75e-4,-1.068617 0.01679,-1.965312 0.03482,-1.991912 0.01804,-0.0266 0.293756,-0.208313 0.612896,-0.406276 0.31914,-0.197963 0.650017,-0.405454 0.73594,-0.459672 0.08592,-0.05422 0.297115,-0.18738 0.468958,-0.29484 0.171845,-0.107461 0.526393,-0.329452 0.789336,-0.494496 0.262944,-0.165045 0.672908,-0.418008 0.910058,-0.561822 0.237152,-0.143814 0.524799,-0.3240192 0.638434,-0.4016326 0.113636,-0.077613 0.285617,-0.1830863 0.38306,-0.2344792 0.09744,-0.051393 0.228071,-0.1294588 0.290197,-0.1717967 0.06213,-0.042338 0.263945,-0.1696844 0.448064,-0.2832323 0.184119,-0.1135477 0.483597,-0.302918 0.666293,-0.4202054 0.182697,-0.1172872 0.377099,-0.2233931 0.431813,-0.2368008 0.0076,-0.00186 0.01485,-0.00397 0.02322,-0.00464 z m 0.02786,6.1637861 0.306448,0.120722 c 0.168465,0.06672 0.567702,0.22866 0.886842,0.359844 0.319139,0.131184 0.641398,0.263964 0.715046,0.29484 0.07365,0.03088 0.365404,0.147208 0.64772,0.260017 0.282315,0.112809 0.715512,0.291519 0.963454,0.396989 0.247941,0.105471 0.530505,0.219072 0.629147,0.253052 0.09864,0.03398 0.218457,0.08248 0.26466,0.106793 0.0462,0.02431 0.414454,0.176387 0.819516,0.336628 0.405061,0.160241 0.827446,0.329047 0.937917,0.376096 0.110472,0.04705 0.235962,0.103113 0.27859,0.125365 0.04263,0.02225 0.09935,0.04179 0.125365,0.04179 0.02602,0 0.197216,0.06701 0.380738,0.150903 0.183521,0.08389 0.350448,0.153224 0.371452,0.153224 0.02101,0 0.277328,0.09871 0.568787,0.22055 0.29146,0.121839 0.579383,0.248463 0.640755,0.28091 l 0.111436,0.06036 0.01161,3.417361 0.01161,3.417361 -0.05572,0.04179 c -0.03083,0.02247 -0.147223,0.0772 -0.257695,0.120722 -0.110471,0.04352 -0.260659,0.104742 -0.334307,0.136973 -0.07365,0.03223 -0.384964,0.160059 -0.691829,0.283232 -0.306865,0.123173 -0.790253,0.315611 -1.072569,0.429492 -0.282317,0.113882 -0.743821,0.30062 -1.026137,0.413241 -0.282316,0.112619 -0.593633,0.241259 -0.691829,0.285554 -0.0982,0.04429 -0.259325,0.109148 -0.357523,0.146259 -0.0982,0.03711 -0.468197,0.188635 -0.82416,0.334307 -0.355964,0.145671 -0.767405,0.315828 -0.914701,0.378417 -0.147295,0.06259 -0.327984,0.138796 -0.401633,0.169475 -0.07365,0.03068 -0.245718,0.0968 -0.380738,0.148581 -0.135021,0.05178 -0.335273,0.133015 -0.445743,0.181083 -0.110472,0.04807 -0.241099,0.103866 -0.290197,0.123044 -0.0491,0.01918 -0.24073,0.09568 -0.424849,0.169475 -0.184119,0.0738 -0.38437,0.142078 -0.445742,0.153224 -0.06137,0.01115 -0.163047,0.005 -0.225193,-0.01393 -0.06215,-0.01892 -0.151332,-0.05388 -0.199656,-0.07893 -0.04833,-0.02506 -0.329913,-0.143072 -0.624504,-0.262339 -0.294591,-0.119266 -0.695091,-0.280678 -0.891485,-0.357522 -0.196393,-0.07685 -0.418527,-0.164864 -0.492175,-0.197334 -0.07365,-0.03247 -0.384965,-0.161529 -0.691829,-0.285554 -0.306865,-0.124025 -0.798872,-0.323594 -1.093463,-0.443421 -0.294591,-0.119826 -0.775656,-0.31481 -1.070247,-0.434135 -0.29459,-0.119327 -0.597288,-0.242621 -0.670935,-0.273946 -0.07365,-0.03133 -0.374025,-0.154208 -0.668614,-0.273946 -0.294591,-0.119738 -0.636409,-0.25403 -0.759156,-0.297162 -0.122746,-0.04313 -0.261993,-0.102824 -0.311091,-0.13233 -0.0491,-0.02951 -0.282173,-0.12479 -0.51539,-0.213585 -0.233219,-0.0888 -0.447411,-0.182632 -0.478245,-0.20662 l -0.05804,-0.04411 0.01161,-3.424326 0.01161,-3.424325 0.111436,-0.05108 c 0.06137,-0.02881 0.283506,-0.121403 0.492174,-0.204299 0.208668,-0.0829 0.670174,-0.26819 1.026137,-0.41324 0.355964,-0.145051 0.828409,-0.338313 1.049353,-0.42717 0.220942,-0.08886 0.490816,-0.198981 0.601288,-0.246087 0.110472,-0.04711 0.262981,-0.110625 0.336629,-0.141617 0.07365,-0.03099 0.208913,-0.08908 0.301805,-0.127686 0.09289,-0.03861 0.18832,-0.06965 0.211263,-0.06965 0.02294,0 0.349182,-0.129098 0.724332,-0.287875 0.375148,-0.158776 0.752167,-0.318978 0.838089,-0.355201 0.08592,-0.03622 0.236111,-0.101543 0.334307,-0.143938 0.0982,-0.0424 0.34851,-0.144553 0.557178,-0.227515 0.208669,-0.08296 0.611492,-0.243122 0.893807,-0.357522 0.282316,-0.114401 0.593632,-0.243237 0.69183,-0.285554 0.0982,-0.04232 0.251969,-0.102214 0.341272,-0.13233 z M 21.32742,26.821662 c 0.03528,-0.0091 0.157459,0.01906 0.283232,0.065 0.134157,0.04901 0.279193,0.107722 0.322699,0.130009 0.04351,0.02229 0.240063,0.103604 0.436457,0.181083 0.196394,0.07748 0.438086,0.174391 0.536284,0.215906 0.0982,0.04152 0.429074,0.177044 0.73594,0.301805 0.306864,0.124762 0.709688,0.285471 0.893807,0.357523 0.184119,0.07205 0.41487,0.167365 0.513068,0.211263 0.0982,0.0439 0.640266,0.269406 1.204898,0.501461 0.564633,0.232057 1.108656,0.460469 1.209542,0.506104 0.100886,0.04563 0.218158,0.08358 0.260016,0.08358 0.04186,0 0.179151,-0.0423 0.306448,-0.09286 0.127297,-0.05056 0.301781,-0.121006 0.387704,-0.157867 0.08592,-0.03686 0.189141,-0.08198 0.227514,-0.09983 0.03837,-0.01785 0.224378,-0.09332 0.413241,-0.167153 0.188863,-0.07384 0.447024,-0.182592 0.575751,-0.241444 0.128726,-0.05885 0.476173,-0.20557 0.770763,-0.325021 0.294591,-0.119449 0.786598,-0.317111 1.093463,-0.441099 0.306866,-0.12399 0.618182,-0.251373 0.69183,-0.283233 0.07365,-0.03186 0.33027,-0.139571 0.571108,-0.239122 0.240838,-0.09955 0.638077,-0.259575 0.882199,-0.355201 0.236492,-0.09264 0.449874,-0.158015 0.485209,-0.148581 0,0 0.0023,0 0.0023,0 0.02843,0.01715 0.04411,0.740607 0.04411,2.005842 v 1.977983 l -0.299484,0.188048 c -0.164964,0.103411 -0.455485,0.28411 -0.645398,0.403954 -0.189913,0.119846 -0.477305,0.296471 -0.638434,0.392347 -0.161129,0.09587 -0.543273,0.332923 -0.849697,0.524676 -0.306423,0.191751 -0.747956,0.46444 -0.982026,0.608253 -0.234069,0.143815 -0.61507,0.380862 -0.845054,0.524676 -0.229986,0.143814 -0.625901,0.389498 -0.879878,0.547892 -0.253977,0.158394 -0.601241,0.377542 -0.773085,0.48521 -0.171845,0.107667 -0.357298,0.218529 -0.410919,0.246087 -0.04692,0.02411 -0.09126,0.04251 -0.106792,0.04643 0,0 -0.0023,0.0023 -0.0023,0.0023 0,0 -0.0023,0 -0.0023,0 -0.0077,-9.38e-4 -0.07261,-0.03036 -0.146259,-0.065 -0.07365,-0.03465 -0.395906,-0.230929 -0.715046,-0.434135 -0.319139,-0.203206 -0.772025,-0.480682 -1.005242,-0.617539 -0.233217,-0.136856 -0.494472,-0.299387 -0.580394,-0.362166 -0.08592,-0.06278 -0.347177,-0.226595 -0.580394,-0.364488 -0.233218,-0.137894 -0.603217,-0.368131 -0.82416,-0.510746 -0.220942,-0.142615 -0.473579,-0.299496 -0.5595,-0.348237 -0.08592,-0.04874 -0.290784,-0.170425 -0.455029,-0.271624 -0.164246,-0.101201 -0.388943,-0.243828 -0.501461,-0.315735 -0.112518,-0.07191 -0.391043,-0.247956 -0.617539,-0.390025 -0.226495,-0.142067 -0.425385,-0.27841 -0.443421,-0.304126 -0.01804,-0.02572 -0.03442,-0.923037 -0.03482,-1.994235 -4.45e-4,-1.268711 0.01466,-1.95789 0.04411,-1.975661 0,0 0.0023,0 0.0023,0 0,0 0.0023,0 0.0023,0 z m 3.605408,7.129562 c 0.0044,-7.81e-4 0.0085,0 0.01393,0 0.03524,0 0.151473,0.0565 0.260016,0.125365 0.108544,0.06887 0.411511,0.260017 0.673258,0.424849 0.261747,0.164829 0.671261,0.415686 0.907736,0.559499 0.236473,0.143815 0.530895,0.326055 0.654685,0.403955 0.123788,0.0779 0.258664,0.141737 0.299483,0.141616 0.04082,-1.23e-4 0.224478,-0.09493 0.408597,-0.211263 0.184119,-0.116335 0.479025,-0.304313 0.657007,-0.415563 0.177982,-0.111249 0.469737,-0.290918 0.647719,-0.401632 0.177981,-0.110716 0.394646,-0.247271 0.480567,-0.301805 0.08592,-0.05454 0.242068,-0.148807 0.345915,-0.211264 0.09736,-0.05855 0.19492,-0.107914 0.227514,-0.113757 0,0 0.0023,0 0.0023,0 0,0 0.0023,0 0.0023,0 0.02504,0 0.04643,0.03132 0.04643,0.06965 0,0.03832 -0.02758,0.131092 -0.06036,0.20662 -0.03278,0.07553 -0.08354,0.206306 -0.113757,0.290198 -0.03022,0.08389 -0.103922,0.289567 -0.162511,0.45735 -0.05859,0.167782 -0.159834,0.442792 -0.225193,0.610575 -0.06536,0.167783 -0.128878,0.353318 -0.141616,0.41324 -0.01274,0.05992 -0.04132,0.13323 -0.065,0.162511 -0.02368,0.02928 -0.06065,0.116432 -0.08125,0.195012 -0.0206,0.07858 -0.08892,0.280281 -0.153224,0.448064 -0.0643,0.167783 -0.166432,0.442793 -0.225193,0.610575 -0.05876,0.167784 -0.149556,0.413741 -0.201977,0.545571 -0.05242,0.131829 -0.109153,0.297224 -0.127687,0.36913 -0.01853,0.07191 -0.0684,0.194916 -0.109114,0.271625 -0.04072,0.07671 -0.07429,0.177479 -0.07429,0.225193 0,0.04771 -0.01913,0.09776 -0.04179,0.111435 0,0 0,0.0023 0,0.0023 -0.02228,0.01976 -0.05394,0.09206 -0.06965,0.164832 -0.01675,0.07762 -0.05643,0.199718 -0.08822,0.271624 -0.03179,0.07191 -0.06857,0.170291 -0.08126,0.218229 -0.01269,0.04794 -0.07831,0.224562 -0.143938,0.392346 -0.06562,0.167782 -0.134757,0.353318 -0.155546,0.413241 -0.02079,0.05992 -0.110616,0.303558 -0.199655,0.543249 -0.08904,0.239688 -0.184176,0.500173 -0.211264,0.578072 -0.0237,0.06816 -0.057,0.12603 -0.07893,0.139295 0,0 -0.0023,0.0023 -0.0023,0.0023 0,0 -0.0023,0 -0.0023,0 0,0 -0.0023,0 -0.0023,0 0,0 -0.0023,0 -0.0023,0 0,0 -0.0023,0 -0.0023,0 0,0 -0.0023,0 -0.0023,0 0,0 -0.0023,0 -0.0023,0 -0.02083,-0.0092 -0.04928,-0.05032 -0.06733,-0.09751 -0.02062,-0.05393 -0.06027,-0.161224 -0.08822,-0.239122 -0.02795,-0.0779 -0.07588,-0.205334 -0.104471,-0.283233 -0.02859,-0.0779 -0.07865,-0.203059 -0.111436,-0.278589 -0.03278,-0.07553 -0.05804,-0.160201 -0.05804,-0.185726 0,-0.02553 -0.02907,-0.109335 -0.06268,-0.188048 -0.03362,-0.07871 -0.08437,-0.213271 -0.113757,-0.297162 -0.02939,-0.08389 -0.123806,-0.338759 -0.208942,-0.566464 -0.08514,-0.227707 -0.202793,-0.549584 -0.262338,-0.717367 -0.05955,-0.167783 -0.160902,-0.442793 -0.225193,-0.610575 -0.06429,-0.167784 -0.132222,-0.364374 -0.150902,-0.436456 -0.01868,-0.07208 -0.0561,-0.170465 -0.08358,-0.218229 -0.02748,-0.04776 -0.09964,-0.233473 -0.160189,-0.41324 -0.06055,-0.179768 -0.18441,-0.524109 -0.273946,-0.763799 -0.08954,-0.23969 -0.180442,-0.483326 -0.201977,-0.543249 -0.02154,-0.05992 -0.08977,-0.24778 -0.153224,-0.415562 -0.06345,-0.167784 -0.192787,-0.529944 -0.287876,-0.805587 -0.09509,-0.275643 -0.18714,-0.536128 -0.204298,-0.578073 -0.0092,-0.02247 -0.0123,-0.0386 -0.0093,-0.05107 0,0 0,-0.0023 0,-0.0023 0,0 0,-0.0023 0,-0.0023 0,0 0.0023,-0.0023 0.0023,-0.0023 0,0 0,-0.0023 0,-0.0023 0,0 0.0023,-0.0023 0.0023,-0.0023 0,0 0.0023,-0.0023 0.0023,-0.0023 0,0 0.0023,-0.0023 0.0023,-0.0023 0,0 0.0023,-0.0023 0.0023,-0.0023 0.0034,-0.0016 0.01187,-0.0039 0.01625,-0.0046 z m 2.785892,9.892238 c 0,0 -0.0023,0.0023 -0.0023,0.0023 0,0 -0.0023,0 -0.0023,0 0,0 -0.0023,0.0023 -0.0023,0.0023 0,0 -0.0023,0.0023 -0.0023,0.0023 0,0 -0.0023,0.0023 -0.0023,0.0023 0,0 0,0.0023 0,0.0023 0,0 -0.0023,0.0023 -0.0023,0.0023 0,0 0,0.0023 0,0.0023 0,0 0,0.0023 0,0.0023 0,0 0,0.0023 0,0.0023 0,0 0,0.0023 0,0.0023 0,0 0,0.0023 0,0.0023 0,0 0,0.0023 0,0.0023 0,0 0,0.0023 0,0.0023 0,0 0.0023,0.0023 0.0023,0.0023 0,0 0.0023,0.0023 0.0023,0.0023 0,0 0,0.0023 0,0.0023 0,0 0.0023,0 0.0023,0 0,0 0.0023,0.0023 0.0023,0.0023 0,0 0.0023,0 0.0023,0 0,0 0,0.0023 0,0.0023 0,0 0.0023,0 0.0023,0 0,0 0.0023,0 0.0023,0 0,0 0.0023,0.0023 0.0023,0.0023 0,0 0.0023,0 0.0023,0 0,0 0.0023,0 0.0023,0 0,0 0.0023,-0.0023 0.0023,-0.0023 0,0 0.0023,0 0.0023,0 0,0 0.0023,0 0.0023,0 0,0 0.0023,-0.0023 0.0023,-0.0023 0,0 0.0023,0 0.0023,0 0,0 0,-0.0023 0,-0.0023 0,0 0.0023,0 0.0023,0 0,0 0.0023,-0.0023 0.0023,-0.0023 0,0 0,-0.0023 0,-0.0023 0,0 0.0023,0 0.0023,0 0,0 0,-0.0023 0,-0.0023 0,0 0,-0.0023 0,-0.0023 0,0 0.0023,-0.0023 0.0023,-0.0023 0,0 0,-0.0023 0,-0.0023 0,0 0,-0.0023 0,-0.0023 0,0 0,-0.0023 0,-0.0023 0,0 0,-0.0023 0,-0.0023 0,0 -0.0023,-0.0023 -0.0023,-0.0023 0,0 0,-0.0023 0,-0.0023 0,0 -0.0023,-0.0023 -0.0023,-0.0023 0,0 0,-0.0023 0,-0.0023 0,0 -0.0023,0 -0.0023,0 0,0 -0.0023,-0.0023 -0.0023,-0.0023 0,0 0,-0.0023 0,-0.0023 0,0 -0.0023,0 -0.0023,0 0,0 -0.0023,0 -0.0023,0 0,0 -0.0023,-0.0023 -0.0023,-0.0023 0,0 -0.0023,0 -0.0023,0 0,0 -0.0023,0 -0.0023,0 0,0 -0.0023,0 -0.0023,0 0,0 -0.0023,0 -0.0023,0 0,0 -0.0023,0 -0.0023,0 z"
         style="fill:#000000"
         id="path1" /></g></g><metadata
     id="metadata1"><rdf:RDF><cc:Work
         rdf:about=""><dc:title>Powered by Continuum</dc:title></cc:Work></rdf:RDF></metadata></svg>
